<svg xmlns="http://www.w3.org/2000/svg" xmlns:xlink="http://www.w3.org/1999/xlink" width="841.089" height="613.527" viewBox="0 0 841.089 613.527">
  <defs>
    <clipPath id="clip-path">
      <rect id="Rectángulo_295361" data-name="Rectángulo 295361" width="841.089" height="613.527" fill="none"/>
    </clipPath>
  </defs>
  <g id="Grupo_145894" data-name="Grupo 145894" transform="translate(-390 -5333.5)">
    <g id="Grupo_145806" data-name="Grupo 145806" transform="translate(390 5333.5)">
      <text id="Estructurales" transform="translate(382.723 35.262)" fill="#12263f" font-size="16" font-family="Roboto-Black, Roboto" font-weight="800"><tspan x="0" y="0">Estructu</tspan><tspan y="0" letter-spacing="-0.015em">r</tspan><tspan y="0">ales</tspan></text>
      <text id="Muestran_solo_la_estructura_administrativa_de_la_empresa." data-name="Muestran solo la estructura administrativa de la empresa." transform="translate(382.723 59.262)" fill="#12263f" font-size="16" font-family="Roboto-Regular, Roboto"><tspan x="0" y="0">Muest</tspan><tspan y="0" letter-spacing="-0.02em">r</tspan><tspan y="0">an solo la estructu</tspan><tspan y="0" letter-spacing="-0.021em">r</tspan><tspan y="0">a administ</tspan><tspan y="0" letter-spacing="-0.021em">r</tspan><tspan y="0">ati</tspan><tspan y="0" letter-spacing="-0.008em">v</tspan><tspan y="0">a de la emp</tspan><tspan y="0" letter-spacing="-0.01em">r</tspan><tspan y="0">esa.</tspan></text>
      <text id="Funcionales" transform="translate(382.723 107.262)" fill="#12263f" font-size="16" font-family="Roboto-Black, Roboto" font-weight="800"><tspan x="0" y="0" letter-spacing="-0.01em">F</tspan><tspan y="0">uncionales</tspan></text>
      <text id="Indican_en_el_cuerpo_de_la_gráfica_además_de_las_unidades_y_" data-name="Indican en el cuerpo de la gráfica, además de las unidades y " transform="translate(382.723 131.262)" fill="#12263f" font-size="16" font-family="Roboto-Regular, Roboto"><tspan x="0" y="0">Indican en el cuerpo de la g</tspan><tspan y="0" letter-spacing="-0.023em">r</tspan><tspan y="0">áfica, además de las unidades y </tspan></text>
      <text id="sus_relaciones_las_principales_funciones_de_los_" data-name="sus relaciones, las principales funciones de los " transform="translate(382.723 155.262)" fill="#12263f" font-size="16" font-family="Roboto-Regular, Roboto"><tspan x="0" y="0">sus </tspan><tspan y="0" letter-spacing="-0.01em">r</tspan><tspan y="0">elaciones, las principales funciones de los </tspan></text>
      <text id="departamentos." transform="translate(382.723 179.262)" fill="#12263f" font-size="16" font-family="Roboto-Regular, Roboto"><tspan x="0" y="0">depa</tspan><tspan y="0" letter-spacing="0.024em">r</tspan><tspan y="0">tamen</tspan><tspan y="0" letter-spacing="-0.01em">t</tspan><tspan y="0">os.</tspan></text>
      <text id="Especiales_" data-name="Especiales " transform="translate(382.723 227.262)" fill="#12263f" font-size="16" font-family="Roboto-Black, Roboto" font-weight="800"><tspan x="0" y="0">Especiales </tspan></text>
      <text id="Se_destacan_algunas_características." data-name="Se destacan algunas características." transform="translate(382.723 251.262)" fill="#12263f" font-size="16" font-family="Roboto-Regular, Roboto"><tspan x="0" y="0">Se destacan algunas ca</tspan><tspan y="0" letter-spacing="-0.022em">r</tspan><tspan y="0">acterísticas.</tspan></text>
      <g id="Grupo_145795" data-name="Grupo 145795">
        <g id="Grupo_145794" data-name="Grupo 145794" clip-path="url(#clip-path)">
          <path id="Trazado_196013" data-name="Trazado 196013" d="M303.034,157.217h-173.5a12.894,12.894,0,0,1-12.894-12.894V119.376a12.894,12.894,0,0,1,12.894-12.894h173.5a12.894,12.894,0,0,1,12.894,12.894v24.947a12.894,12.894,0,0,1-12.894,12.894" fill="#fdd7ae"/>
          <rect id="Rectángulo_295360" data-name="Rectángulo 295360" width="199.289" height="50.735" rx="12.894" transform="translate(116.639 106.482)" fill="none" stroke="#fcbc77" stroke-miterlimit="10" stroke-width="1.832"/>
        </g>
      </g>
      <text id="Por_su_objetivo" data-name="Por su objetivo" transform="translate(155.661 139.237)" fill="#12263f" font-size="18" font-family="Roboto-Bold, Roboto" font-weight="700"><tspan x="0" y="0" letter-spacing="-0.006em">P</tspan><tspan y="0">or su objeti</tspan><tspan y="0" letter-spacing="-0.007em">v</tspan><tspan y="0">o</tspan></text>
      <g id="Grupo_145797" data-name="Grupo 145797">
        <g id="Grupo_145796" data-name="Grupo 145796" clip-path="url(#clip-path)">
          <path id="Trazado_196014" data-name="Trazado 196014" d="M356.867,5.273h-8.155V258.427h8.155" fill="none" stroke="#727997" stroke-linecap="round" stroke-linejoin="round" stroke-width="2.138"/>
          <line id="Línea_1035" data-name="Línea 1035" x2="7.458" transform="translate(341.254 131.85)" fill="none" stroke="#727997" stroke-linecap="round" stroke-linejoin="round" stroke-width="3"/>
          <path id="Trazado_196015" data-name="Trazado 196015" d="M365.8,28.327a5.064,5.064,0,1,1,5.064,5.064,5.064,5.064,0,0,1-5.064-5.064" fill="#206897"/>
          <path id="Trazado_196016" data-name="Trazado 196016" d="M365.8,101.679a5.064,5.064,0,1,1,5.064,5.064,5.064,5.064,0,0,1-5.064-5.064" fill="#206897"/>
          <path id="Trazado_196017" data-name="Trazado 196017" d="M365.8,221.712a5.064,5.064,0,1,1,5.064,5.064,5.064,5.064,0,0,1-5.064-5.064" fill="#206897"/>
        </g>
      </g>
      <text id="Generales" transform="translate(382.723 302.6)" fill="#12263f" font-size="16" font-family="Roboto-Black, Roboto" font-weight="800"><tspan x="0" y="0">Gene</tspan><tspan y="0" letter-spacing="-0.014em">r</tspan><tspan y="0">ales</tspan></text>
      <text id="Presentan_toda_la_organización_se_llaman_también_cartas_" data-name="Presentan toda la organización; se llaman también cartas " transform="translate(382.723 326.6)" fill="#12263f" font-size="16" font-family="Roboto-Regular, Roboto"><tspan x="0" y="0">P</tspan><tspan y="0" letter-spacing="-0.009em">r</tspan><tspan y="0">esentan </tspan><tspan y="0" letter-spacing="-0.011em">t</tspan><tspan y="0">oda la o</tspan><tspan y="0" letter-spacing="-0.009em">r</tspan><tspan y="0">ganización; se llaman también ca</tspan><tspan y="0" letter-spacing="0.02em">r</tspan><tspan y="0">tas </tspan></text>
      <text id="maestras." transform="translate(382.723 350.6)" fill="#12263f" font-size="16" font-family="Roboto-Regular, Roboto"><tspan x="0" y="0">maest</tspan><tspan y="0" letter-spacing="-0.02em">r</tspan><tspan y="0">as.</tspan></text>
      <text id="Departamentales_" data-name="Departamentales " transform="translate(382.723 398.6)" fill="#12263f" font-size="16" font-family="Roboto-Black, Roboto" font-weight="800"><tspan x="0" y="0">Depa</tspan><tspan y="0" letter-spacing="0.025em">r</tspan><tspan y="0">tamentales </tspan></text>
      <text id="Representan_la_organización_de_un_departamento_o_sección." data-name="Representan la organización de un departamento o sección." transform="translate(382.723 422.6)" fill="#12263f" font-size="16" font-family="Roboto-Regular, Roboto"><tspan x="0" y="0">Rep</tspan><tspan y="0" letter-spacing="-0.009em">r</tspan><tspan y="0">esentan la o</tspan><tspan y="0" letter-spacing="-0.011em">r</tspan><tspan y="0">ganización de un depa</tspan><tspan y="0" letter-spacing="0.021em">r</tspan><tspan y="0">tamen</tspan><tspan y="0" letter-spacing="-0.01em">t</tspan><tspan y="0">o o sección.</tspan></text>
      <g id="Grupo_145799" data-name="Grupo 145799">
        <g id="Grupo_145798" data-name="Grupo 145798" clip-path="url(#clip-path)">
          <path id="Trazado_196018" data-name="Trazado 196018" d="M303.034,381.487h-173.5a12.894,12.894,0,0,1-12.894-12.894V343.646a12.894,12.894,0,0,1,12.894-12.895h173.5a12.894,12.894,0,0,1,12.894,12.895v24.947a12.894,12.894,0,0,1-12.894,12.894" fill="#fdd7ae"/>
          <path id="Rectángulo_295363" data-name="Rectángulo 295363" d="M12.894,0h173.5a12.894,12.894,0,0,1,12.894,12.894V37.841a12.895,12.895,0,0,1-12.895,12.895H12.894A12.894,12.894,0,0,1,0,37.842V12.894A12.894,12.894,0,0,1,12.894,0Z" transform="translate(116.639 330.751)" fill="none" stroke="#fcbc77" stroke-miterlimit="10" stroke-width="1.832"/>
        </g>
      </g>
      <text id="Por_su_área" data-name="Por su área" transform="translate(170.304 362.3)" fill="#12263f" font-size="18" font-family="Roboto-Bold, Roboto" font-weight="700"><tspan x="0" y="0" letter-spacing="-0.006em">P</tspan><tspan y="0">or su á</tspan><tspan y="0" letter-spacing="-0.009em">r</tspan><tspan y="0">ea</tspan></text>
      <g id="Grupo_145801" data-name="Grupo 145801">
        <g id="Grupo_145800" data-name="Grupo 145800" clip-path="url(#clip-path)">
          <path id="Trazado_196019" data-name="Trazado 196019" d="M356.867,279.929h-8.155V432.31h8.155" fill="none" stroke="#727997" stroke-linecap="round" stroke-linejoin="round" stroke-width="2.181"/>
          <line id="Línea_1036" data-name="Línea 1036" x2="7.458" transform="translate(341.254 356.119)" fill="none" stroke="#727997" stroke-linecap="round" stroke-linejoin="round" stroke-width="3"/>
          <path id="Trazado_196020" data-name="Trazado 196020" d="M365.8,296.664a5.064,5.064,0,1,1,5.064,5.065,5.064,5.064,0,0,1-5.064-5.065" fill="#206897"/>
          <path id="Trazado_196021" data-name="Trazado 196021" d="M365.8,392.928a5.064,5.064,0,1,1,5.064,5.064,5.064,5.064,0,0,1-5.064-5.064" fill="#206897"/>
        </g>
      </g>
      <text id="Esquemáticos" transform="translate(382.723 483.259)" fill="#12263f" font-size="16" font-family="Roboto-Black, Roboto" font-weight="800"><tspan x="0" y="0">Esquemáticos</tspan></text>
      <text id="Contienen_solo_los_órganos_principales_se_elaboran_para_" data-name="Contienen solo los órganos principales, se elaboran para " transform="translate(382.723 507.259)" fill="#12263f" font-size="16" font-family="Roboto-Regular, Roboto"><tspan x="0" y="0">Contienen solo los ó</tspan><tspan y="0" letter-spacing="-0.012em">r</tspan><tspan y="0">ganos principales, se elabo</tspan><tspan y="0" letter-spacing="-0.022em">r</tspan><tspan y="0">an pa</tspan><tspan y="0" letter-spacing="-0.02em">r</tspan><tspan y="0">a </tspan></text>
      <text id="el_público_no_contienen_detalles." data-name="el público, no contienen detalles." transform="translate(382.723 531.259)" fill="#12263f" font-size="16" font-family="Roboto-Regular, Roboto"><tspan x="0" y="0">el público, no contienen detalles.</tspan></text>
      <text id="Analíticos" transform="translate(382.723 579.259)" fill="#12263f" font-size="16" font-family="Roboto-Black, Roboto" font-weight="800"><tspan x="0" y="0" letter-spacing="-0.023em">A</tspan><tspan y="0">nalíticos</tspan></text>
      <text id="Más_detallados_y_técnicos." data-name="Más detallados y técnicos." transform="translate(382.723 603.259)" fill="#12263f" font-size="16" font-family="Roboto-Regular, Roboto"><tspan x="0" y="0">Más detallados y técnicos.</tspan></text>
      <g id="Grupo_145803" data-name="Grupo 145803">
        <g id="Grupo_145802" data-name="Grupo 145802" clip-path="url(#clip-path)">
          <path id="Trazado_196022" data-name="Trazado 196022" d="M303.034,558.016h-173.5a12.894,12.894,0,0,1-12.894-12.894V520.174a12.893,12.893,0,0,1,12.894-12.893h173.5a12.893,12.893,0,0,1,12.894,12.893v24.948a12.894,12.894,0,0,1-12.894,12.894" fill="#fdd7ae"/>
          <path id="Rectángulo_295366" data-name="Rectángulo 295366" d="M12.894,0h173.5a12.894,12.894,0,0,1,12.894,12.894V37.842A12.893,12.893,0,0,1,186.4,50.735H12.894A12.894,12.894,0,0,1,0,37.841V12.894A12.894,12.894,0,0,1,12.894,0Z" transform="translate(116.639 507.281)" fill="none" stroke="#fcbc77" stroke-miterlimit="10" stroke-width="1.832"/>
        </g>
      </g>
      <text id="Por_su_contenido" data-name="Por su contenido" transform="translate(147.702 538.83)" fill="#12263f" font-size="18" font-family="Roboto-Bold, Roboto" font-weight="700"><tspan x="0" y="0" letter-spacing="-0.006em">P</tspan><tspan y="0">or su contenido</tspan></text>
      <g id="Grupo_145805" data-name="Grupo 145805">
        <g id="Grupo_145804" data-name="Grupo 145804" clip-path="url(#clip-path)">
          <path id="Trazado_196023" data-name="Trazado 196023" d="M356.867,453.269h-8.155V612.027h8.155" fill="none" stroke="#727997" stroke-linecap="round" stroke-linejoin="round" stroke-width="2.115"/>
          <line id="Línea_1037" data-name="Línea 1037" x2="7.458" transform="translate(341.254 532.648)" fill="none" stroke="#727997" stroke-linecap="round" stroke-linejoin="round" stroke-width="3"/>
          <path id="Trazado_196024" data-name="Trazado 196024" d="M365.8,476.323a5.064,5.064,0,1,1,5.064,5.064,5.064,5.064,0,0,1-5.064-5.064" fill="#206897"/>
          <path id="Trazado_196025" data-name="Trazado 196025" d="M365.8,573.334a5.064,5.064,0,1,1,5.064,5.064,5.064,5.064,0,0,1-5.064-5.064" fill="#206897"/>
          <path id="Trazado_196026" data-name="Trazado 196026" d="M83.854,1.5H75.7V612.027h8.155" fill="none" stroke="#727997" stroke-linecap="round" stroke-linejoin="round" stroke-width="3"/>
          <line id="Línea_1038" data-name="Línea 1038" x2="7.458" transform="translate(68.242 306.764)" fill="none" stroke="#727997" stroke-linecap="round" stroke-linejoin="round" stroke-width="3"/>
          <path id="Trazado_196027" data-name="Trazado 196027" d="M54.788,202.051V416.366a26.816,26.816,0,1,1-53.633,0V202.051a26.816,26.816,0,1,1,53.633,0" fill="#fbaed1"/>
          <path id="Trazado_196028" data-name="Trazado 196028" d="M54.788,202.051V416.366a26.816,26.816,0,1,1-53.633,0V202.051a26.816,26.816,0,1,1,53.633,0Z" fill="none" stroke="#f40b74" stroke-miterlimit="10" stroke-width="2.31"/>
        </g>
      </g>
      <text id="Organigramas" transform="translate(36.694 404.478) rotate(-90)" fill="#12263f" font-size="30" font-family="Roboto-Bold, Roboto" font-weight="700"><tspan x="0" y="0">O</tspan><tspan y="0" letter-spacing="-0.008em">r</tspan><tspan y="0">ganig</tspan><tspan y="0" letter-spacing="-0.014em">r</tspan><tspan y="0">amas</tspan></text>
    </g>
  </g>
</svg>
