<svg xmlns="http://www.w3.org/2000/svg" xmlns:xlink="http://www.w3.org/1999/xlink" width="1030" height="660.221" viewBox="0 0 1030 660.221">
  <defs>
    <clipPath id="clip-path">
      <rect id="Rectángulo_295317" data-name="Rectángulo 295317" width="937.556" height="660.221" fill="none"/>
    </clipPath>
    <clipPath id="clip-path-3">
      <rect id="Rectángulo_295319" data-name="Rectángulo 295319" width="937.556" height="647.422" fill="none"/>
    </clipPath>
  </defs>
  <g id="Grupo_145894" data-name="Grupo 145894" transform="translate(-285 -5874.891)">
    <g id="Grupo_144820" data-name="Grupo 144820" transform="translate(292.159 6038.732)">
      <path id="Trazado_193921" data-name="Trazado 193921" d="M628.508,87.027H591.726a1.268,1.268,0,0,1-1.268-1.268V19.805a1.268,1.268,0,0,1,1.268-1.268h7.61a1.268,1.268,0,0,0,0-2.537h-7.61a3.805,3.805,0,0,0-3.805,3.805V85.759a3.805,3.805,0,0,0,3.805,3.805h36.782a1.268,1.268,0,1,0,0-2.537" transform="translate(-587.921 -13.463)" fill="#206897"/>
      <path id="Trazado_193922" data-name="Trazado 193922" d="M861.189,18.537h7.61a1.268,1.268,0,0,1,1.268,1.268V45.172a1.268,1.268,0,1,0,2.537,0V19.805A3.8,3.8,0,0,0,868.8,16h-7.61a1.268,1.268,0,0,0,0,2.537" transform="translate(-816.797 -13.463)" fill="#206897"/>
      <path id="Trazado_193923" data-name="Trazado 193923" d="M687.726,10.147h17.757a3.8,3.8,0,0,0,3.8-3.805V3.805A3.8,3.8,0,0,0,705.483,0H687.726a3.805,3.805,0,0,0-3.805,3.805V6.342a3.805,3.805,0,0,0,3.805,3.805m-1.268-6.342a1.268,1.268,0,0,1,1.268-1.268h17.757a1.268,1.268,0,0,1,1.268,1.268V6.342a1.268,1.268,0,0,1-1.268,1.268H687.726a1.268,1.268,0,0,1-1.268-1.268Z" transform="translate(-668.701)" fill="#206897"/>
      <path id="Trazado_193924" data-name="Trazado 193924" d="M632.6,81.268A1.268,1.268,0,0,0,631.336,80H621.189a1.268,1.268,0,0,0-1.268,1.268V91.415a1.268,1.268,0,0,0,1.268,1.268h10.147a1.268,1.268,0,0,0,1.268-1.268Zm-2.537,8.878h-7.61v-7.61h7.61Z" transform="translate(-614.847 -67.317)" fill="#206897"/>
      <path id="Trazado_193925" data-name="Trazado 193925" d="M632.6,177.268A1.268,1.268,0,0,0,631.336,176H621.189a1.268,1.268,0,0,0-1.268,1.268v10.147a1.268,1.268,0,0,0,1.268,1.268h10.147a1.268,1.268,0,0,0,1.268-1.268Zm-2.537,8.878h-7.61v-7.61h7.61Z" transform="translate(-614.847 -148.097)" fill="#206897"/>
      <path id="Trazado_193926" data-name="Trazado 193926" d="M632.6,273.268A1.268,1.268,0,0,0,631.336,272H621.189a1.268,1.268,0,0,0-1.268,1.268v10.147a1.268,1.268,0,0,0,1.268,1.268h10.147a1.268,1.268,0,0,0,1.268-1.268Zm-2.537,8.878h-7.61v-7.61h7.61Z" transform="translate(-614.847 -228.877)" fill="#206897"/>
      <path id="Trazado_193927" data-name="Trazado 193927" d="M631.336,368H621.189a1.268,1.268,0,0,0-1.268,1.268v10.147a1.268,1.268,0,0,0,1.268,1.268h10.147a1.268,1.268,0,0,0,1.268-1.268V369.268A1.268,1.268,0,0,0,631.336,368m-1.268,10.147h-7.61v-7.61h7.61Z" transform="translate(-614.847 -309.656)" fill="#206897"/>
      <path id="Trazado_193928" data-name="Trazado 193928" d="M772.02,96h-22.83a1.268,1.268,0,1,0,0,2.537h22.83a1.268,1.268,0,1,0,0-2.537" transform="translate(-722.554 -80.78)" fill="#206897"/>
      <path id="Trazado_193929" data-name="Trazado 193929" d="M745.093,128h-27.9a1.268,1.268,0,1,0,0,2.537h27.9a1.268,1.268,0,1,0,0-2.537" transform="translate(-695.627 -107.707)" fill="#206897"/>
      <path id="Trazado_193930" data-name="Trazado 193930" d="M773.288,193.268A1.268,1.268,0,0,0,772.02,192h-22.83a1.268,1.268,0,1,0,0,2.537h22.83a1.268,1.268,0,0,0,1.268-1.268" transform="translate(-722.554 -161.56)" fill="#206897"/>
      <path id="Trazado_193931" data-name="Trazado 193931" d="M736.214,225.268A1.268,1.268,0,0,0,734.946,224H717.189a1.268,1.268,0,1,0,0,2.537h17.757a1.268,1.268,0,0,0,1.268-1.268" transform="translate(-695.627 -188.487)" fill="#206897"/>
      <path id="Trazado_193932" data-name="Trazado 193932" d="M754.263,288h-5.073a1.268,1.268,0,1,0,0,2.537h5.073a1.268,1.268,0,0,0,0-2.537" transform="translate(-722.554 -242.34)" fill="#206897"/>
      <path id="Trazado_193933" data-name="Trazado 193933" d="M726.068,320h-8.878a1.268,1.268,0,1,0,0,2.537h8.878a1.268,1.268,0,0,0,0-2.537" transform="translate(-695.627 -269.266)" fill="#206897"/>
      <path id="Trazado_193934" data-name="Trazado 193934" d="M752.994,384h-3.805a1.268,1.268,0,1,0,0,2.537h3.805a1.268,1.268,0,0,0,0-2.537" transform="translate(-722.554 -323.12)" fill="#206897"/>
      <path id="Trazado_193935" data-name="Trazado 193935" d="M717.189,418.537H728.6a1.268,1.268,0,1,0,0-2.537H717.189a1.268,1.268,0,1,0,0,2.537" transform="translate(-695.627 -350.046)" fill="#206897"/>
      <path id="Trazado_193936" data-name="Trazado 193936" d="M833.27,235.493a1.268,1.268,0,0,0-.656,1.669h0a17.743,17.743,0,1,1-9.176-9.176,1.268,1.268,0,1,0,1.027-2.319l-.012-.005a20.279,20.279,0,1,0,10.487,10.487A1.268,1.268,0,0,0,833.27,235.493Z" transform="translate(-763.064 -188.46)" fill="#206897"/>
      <path id="Trazado_193937" data-name="Trazado 193937" d="M861.241,275.635a1.268,1.268,0,0,0,1.164-2.254,12.675,12.675,0,1,0,5.549,5.637,1.268,1.268,0,0,0-2.28,1.112l.008.017a10.142,10.142,0,1,1-4.442-4.512" transform="translate(-803.32 -228.849)" fill="#206897"/>
      <path id="Trazado_193938" data-name="Trazado 193938" d="M896.1,323.83a1.268,1.268,0,1,0-.845-2.392,5.073,5.073,0,1,0,6.469,6.469,1.268,1.268,0,1,0-2.392-.845,2.537,2.537,0,1,1-3.238-3.238Z" transform="translate(-843.671 -270.415)" fill="#206897"/>
      <path id="Trazado_193939" data-name="Trazado 193939" d="M939.84,213.858a1.268,1.268,0,0,0-1.172-.783h-3.805V209.27a1.268,1.268,0,0,0-2.165-.9l-5.073,5.073a1.268,1.268,0,0,0-.372.9v4.548L916.21,229.935a1.268,1.268,0,1,0,1.762,1.825l.031-.031,11.043-11.043H933.6a1.268,1.268,0,0,0,.9-.372l5.073-5.073a1.268,1.268,0,0,0,.275-1.383m-10.05,1.015,2.537-2.537v1.487l-2.537,2.537Zm3.28,3.276h-1.486l2.537-2.537h1.486Z" transform="translate(-863.836 -175.025)" fill="#206897"/>
    </g>
    <g id="Grupo_144817" data-name="Grupo 144817" transform="translate(291.777 6220.888)">
      <path id="Trazado_193940" data-name="Trazado 193940" d="M265.405,244.993a2.19,2.19,0,0,0,2.97,1.4c2.44-1.05,3.66-2.872,6.169-1.893a3.777,3.777,0,0,1,1.67,5.761c-1.594,2.164-3.739,1.3-6.225,1.7a2.189,2.189,0,0,0-1.763,2.769l2.456,8.475a2.188,2.188,0,0,0,2.708,1.491l8.291-2.4c.287,2.111-.565,5.238,2.6,7.569a6.129,6.129,0,0,0,9.349-2.709c1.426-3.657-.951-5.822-1.849-7.787l8.291-2.4a2.189,2.189,0,0,0,1.491-2.708l-7.135-24.618a4.342,4.342,0,0,0-5.372-2.958l-24.113,6.988a2.715,2.715,0,0,0-1.85,3.36Zm-.019-8.9a.351.351,0,0,1,.214-.171l24.113-6.988a1.985,1.985,0,0,1,2.456,1.353l7.088,24.457-8.314,2.409a2.19,2.19,0,0,0-1.4,2.971c1.051,2.441,2.871,3.66,1.893,6.169a3.778,3.778,0,0,1-5.761,1.67c-2.167-1.6-1.282-3.6-1.7-6.225a2.19,2.19,0,0,0-2.769-1.762l-8.314,2.409-2.356-8.13c1.993-.271,5.232.573,7.569-2.6a6.13,6.13,0,0,0-2.71-9.349c-3.659-1.427-5.831.954-7.787,1.849l-2.257-7.786A.351.351,0,0,1,265.386,236.1Z" transform="translate(-222.927 -226.504)" fill="#206897"/>
      <path id="Trazado_193941" data-name="Trazado 193941" d="M14.641,404.394H67.922a4.342,4.342,0,0,0,4.336-4.337v-8.994a1.177,1.177,0,1,0-2.354,0v8.994a1.985,1.985,0,0,1-1.983,1.983H42.459v-8.656a2.19,2.19,0,0,0-2.464-2.169,21.441,21.441,0,0,0-3.171.75,3.779,3.779,0,1,1,0-7.3,21.428,21.428,0,0,0,3.171.751,2.19,2.19,0,0,0,2.464-2.169v-8.656h8.465c-.313,2.109-2,4.874.391,7.994a6.13,6.13,0,0,0,9.734,0c2.387-3.116.708-5.857.391-7.994h8.107a.358.358,0,0,1,.358.358v10.62a1.177,1.177,0,0,0,2.354,0v-10.62a2.715,2.715,0,0,0-2.712-2.712h-8.3A2.19,2.19,0,0,0,59.08,374.7c.329,2.636,1.739,4.314.1,6.452a3.777,3.777,0,0,1-6,0c-1.639-2.138-.228-3.816.1-6.452a2.19,2.19,0,0,0-2.169-2.464H42.459v-8.465c2.107.313,4.873,2,7.994-.391a6.13,6.13,0,0,0,0-9.734c-3.126-2.4-5.993-.688-7.994-.391v-8.107a2.715,2.715,0,0,0-2.712-2.712H29.128a1.177,1.177,0,1,0,0,2.353H39.747a.359.359,0,0,1,.358.358v8.3a2.19,2.19,0,0,0,2.464,2.169c2.487-.311,4.311-1.741,6.451-.1a3.777,3.777,0,0,1,0,6c-2.138,1.638-3.812.229-6.451-.1a2.19,2.19,0,0,0-2.464,2.169v8.656H31.64a22.929,22.929,0,0,1,.663-2.67,6.132,6.132,0,1,0-11.843,0,22.909,22.909,0,0,1,.663,2.67H12.659V346.776a1.985,1.985,0,0,1,1.983-1.983h8.995a1.177,1.177,0,0,0,0-2.353H14.641a4.341,4.341,0,0,0-4.336,4.336v53.281A4.341,4.341,0,0,0,14.641,404.394Zm-1.983-29.8h8.656a2.19,2.19,0,0,0,2.169-2.464,21.388,21.388,0,0,0-.751-3.171,3.779,3.779,0,1,1,7.3,0,21.453,21.453,0,0,0-.75,3.171,2.19,2.19,0,0,0,2.169,2.464h8.656v8.465a22.85,22.85,0,0,1-2.67-.663,6.132,6.132,0,1,0,0,11.843,22.915,22.915,0,0,1,2.67-.663v8.465H14.641a1.985,1.985,0,0,1-1.983-1.983Z" transform="translate(-10.305 -324.059)" fill="#206897"/>
    </g>
    <g id="Grupo_144819" data-name="Grupo 144819" transform="translate(285 6412.678)">
      <path id="Trazado_193952" data-name="Trazado 193952" d="M860.238,829.774A3.827,3.827,0,0,0,863,828.61l6.5-6.667a3.855,3.855,0,0,0-5.521-5.383l-3.815,3.911-.668-.65a3.855,3.855,0,1,0-5.376,5.528l3.429,3.334a3.836,3.836,0,0,0,2.688,1.091m-4.41-8.143a1.371,1.371,0,0,1,1.936-.027l1.558,1.515a1.243,1.243,0,0,0,1.757-.023l4.681-4.8a1.369,1.369,0,1,1,1.961,1.912l-6.5,6.667a1.376,1.376,0,0,1-1.935.026l-3.428-3.334A1.371,1.371,0,0,1,855.829,821.631Z" transform="translate(-809.62 -776.403)" fill="#206897"/>
      <path id="Trazado_193953" data-name="Trazado 193953" d="M810.441,781.86a1.243,1.243,0,0,0-1.985,1.5,16.38,16.38,0,0,0,1.488,1.71,16.171,16.171,0,1,0-3.973-6.508,1.243,1.243,0,0,0,2.368-.756,13.708,13.708,0,1,1,3.363,5.507,13.9,13.9,0,0,1-1.261-1.449" transform="translate(-769.432 -727.643)" fill="#206897"/>
      <path id="Trazado_193954" data-name="Trazado 193954" d="M662.594,638.128l-7.843-7.842a1.243,1.243,0,0,0-1.758,0l-.048.048-3.018-3.018A21.838,21.838,0,0,0,653.4,616.8a1.243,1.243,0,0,0-2.482-.157A19.374,19.374,0,0,1,631.587,634.8h-.118a19.38,19.38,0,1,1,19.185-22.817,1.243,1.243,0,0,0,2.447-.439,21.891,21.891,0,0,0-11.266-15.44V586.082a1.259,1.259,0,0,0-.364-.879l-15.405-15.4a1.259,1.259,0,0,0-.879-.364H583.342a3.734,3.734,0,0,0-3.73,3.729v10.448a1.243,1.243,0,0,0,2.487,0V573.165a1.245,1.245,0,0,1,1.243-1.243h40.6V583.6a3.734,3.734,0,0,0,3.73,3.729H639.35v7.65a21.967,21.967,0,0,0-7.544-1.419.282.282,0,0,0-.037,0H604.012a1.243,1.243,0,1,0,0,2.486h17.406a21.8,21.8,0,0,0-4.959,3.56H604.012a1.243,1.243,0,1,0,0,2.486h10.209a21.638,21.638,0,0,0-4.08,8.888h-6.129a1.243,1.243,0,1,0,0,2.486h5.766q-.086.972-.088,1.96,0,.81.058,1.61h-5.737a1.243,1.243,0,1,0,0,2.486h6.061a21.637,21.637,0,0,0,4.152,9.242H604.012a1.243,1.243,0,1,0,0,2.486h12.452a21.781,21.781,0,0,0,4.951,3.555h-17.4a1.243,1.243,0,1,0,0,2.486h27.556a21.983,21.983,0,0,0,7.781-1.422V650.4a1.245,1.245,0,0,1-1.243,1.243H583.342A1.245,1.245,0,0,1,582.1,650.4V588.586a1.243,1.243,0,0,0-2.487,0V650.4a3.734,3.734,0,0,0,3.73,3.728h54.764a3.734,3.734,0,0,0,3.73-3.729V634.735q.832-.442,1.632-.96l3.018,3.017a1.254,1.254,0,0,0-.048,1.806l7.843,7.842a5.878,5.878,0,0,0,8.314-8.312Zm-34.92-53.289a1.245,1.245,0,0,1-1.243-1.243V573.68l11.161,11.159ZM645.5,632.287q.8-.658,1.542-1.4t1.4-1.542l2.748,2.747-2.943,2.942Zm15.34,12.4a3.408,3.408,0,0,1-4.8,0l-6.964-6.963,4.8-4.8,6.964,6.963a3.407,3.407,0,0,1,0,4.8" transform="translate(-579.612 -569.436)" fill="#206897"/>
      <path id="Trazado_193955" data-name="Trazado 193955" d="M636.014,724.74h5.439a2.784,2.784,0,0,0,2.781-2.78v-5.438a2.784,2.784,0,0,0-2.781-2.781h-5.439a2.784,2.784,0,0,0-2.781,2.781v5.438a2.784,2.784,0,0,0,2.781,2.78m-.294-8.219a.3.3,0,0,1,.294-.294h5.439a.3.3,0,0,1,.294.294v5.438a.3.3,0,0,1-.294.294h-5.439a.3.3,0,0,1-.294-.294Z" transform="translate(-624.732 -690.862)" fill="#206897"/>
      <path id="Trazado_193956" data-name="Trazado 193956" d="M633.233,831.895a2.784,2.784,0,0,0,2.781,2.78h5.439a2.784,2.784,0,0,0,2.781-2.78v-5.438a2.784,2.784,0,0,0-2.781-2.78h-5.439a2.784,2.784,0,0,0-2.781,2.78Zm2.487-5.438a.3.3,0,0,1,.294-.294h5.439a.3.3,0,0,1,.294.294v5.438a.3.3,0,0,1-.294.294h-5.439a.3.3,0,0,1-.294-.294Z" transform="translate(-624.732 -783.368)" fill="#206897"/>
      <path id="Trazado_193957" data-name="Trazado 193957" d="M633.233,944.062a2.784,2.784,0,0,0,2.781,2.78h5.439a2.784,2.784,0,0,0,2.781-2.78v-5.438a2.784,2.784,0,0,0-2.781-2.781h-5.439a2.784,2.784,0,0,0-2.781,2.781Zm2.487-5.438a.3.3,0,0,1,.294-.294h5.439a.3.3,0,0,1,.294.294v5.438a.3.3,0,0,1-.294.294h-5.439a.3.3,0,0,1-.294-.294Z" transform="translate(-624.732 -877.752)" fill="#206897"/>
    </g>
    <g id="Grupo_144821" data-name="Grupo 144821" transform="translate(1235.869 5922.773)">
      <path id="Trazado_193942" data-name="Trazado 193942" d="M1169.845,232.873h-52.232a1.65,1.65,0,0,1-1.648-1.648V184.953a1.65,1.65,0,0,1,1.648-1.648h2.656a1.191,1.191,0,0,0,0-2.382h-2.656a4.034,4.034,0,0,0-4.03,4.03v46.272a4.034,4.034,0,0,0,4.03,4.03h25.635v2.494a2.694,2.694,0,0,0,1.234,2.261l-7.892,15.66a1.191,1.191,0,1,0,2.1,1.123l8.261-16.349h5.007V256.32a1.191,1.191,0,1,0,2.382,0V240.444h5.008l8.26,16.349a1.191,1.191,0,1,0,2.1-1.123l-7.892-15.66a2.693,2.693,0,0,0,1.234-2.261v-2.494h6.795a1.191,1.191,0,0,0,0-2.381m-9.176,4.876a.314.314,0,0,1-.314.314h-14.411a.314.314,0,0,1-.314-.314v-2.494h15.039Z" transform="translate(-1113.584 -176.337)" fill="#206897"/>
      <path id="Trazado_193943" data-name="Trazado 193943" d="M1247.655,156.586H1224.1a5.786,5.786,0,0,0-5.653-4.586h-12.655a5.786,5.786,0,0,0-5.653,4.586h-15.284a1.191,1.191,0,1,0,0,2.382h62.8a1.65,1.65,0,0,1,1.648,1.648v46.272a1.65,1.65,0,0,1-1.648,1.648h-13.308a1.191,1.191,0,0,0,0,2.382h13.308a4.034,4.034,0,0,0,4.03-4.03V160.616a4.034,4.034,0,0,0-4.03-4.03m-45.043,0a3.4,3.4,0,0,1,3.18-2.2h12.655a3.4,3.4,0,0,1,3.18,2.2Z" transform="translate(-1172.554 -152)" fill="#206897"/>
      <path id="Trazado_193944" data-name="Trazado 193944" d="M1212.343,250.606h-6.429a2.113,2.113,0,0,0-2.111,2.111v3.749a2.113,2.113,0,0,0,2.111,2.111h6.429a2.113,2.113,0,0,0,2.111-2.111v-.684h3.015v9.762a1.191,1.191,0,0,0,1.191,1.191h4.478v.684a2.113,2.113,0,0,0,2.111,2.111h6.429a2.113,2.113,0,0,0,2.111-2.111v-.684h8.769v.684a2.113,2.113,0,0,0,2.111,2.111h6.429a2.113,2.113,0,0,0,2.111-2.111V263.67a2.113,2.113,0,0,0-2.111-2.111h-6.429a2.113,2.113,0,0,0-2.111,2.111v.684h-8.769v-.684a2.113,2.113,0,0,0-2.111-2.111h-6.429a2.113,2.113,0,0,0-2.111,2.111v.684h-3.287v-9.762a1.176,1.176,0,0,0-.016-.184v-9.134h3.387v.684a2.113,2.113,0,0,0,2.111,2.111h6.429a2.113,2.113,0,0,0,2.111-2.111v-.684h2.733v4.064a1.191,1.191,0,0,0,1.191,1.191h4.76v.684a2.113,2.113,0,0,0,2.111,2.111h6.429a2.113,2.113,0,0,0,2.111-2.111v-3.749a2.113,2.113,0,0,0-2.111-2.111h-6.429a2.113,2.113,0,0,0-2.111,2.111v.684h-3.57v-8.462h3.57v.684a2.113,2.113,0,0,0,2.111,2.111h6.429a2.113,2.113,0,0,0,2.111-2.111v-3.749a2.113,2.113,0,0,0-2.111-2.111h-6.429a2.113,2.113,0,0,0-2.111,2.111v.684h-4.76a1.191,1.191,0,0,0-1.191,1.191v4.4h-2.733v-.684a2.113,2.113,0,0,0-2.111-2.111h-6.429a2.113,2.113,0,0,0-2.111,2.111v.684h-4.578a1.191,1.191,0,0,0-1.191,1.191V253.4h-3v-.684a2.113,2.113,0,0,0-2.111-2.111m32.6,13.335h5.887v3.208h-5.887Zm-19.419,0h5.887v3.208h-5.887Zm19.419-16.208h5.887v3.208h-5.887Zm0-10.844h5.887V240.1h-5.887Zm-19.335,5.589h5.887v3.208H1225.6Zm-13.532,13.717h-5.887v-3.208h5.887Z" transform="translate(-1189.499 -221.426)" fill="#206897"/>
      <path id="Trazado_193945" data-name="Trazado 193945" d="M1165.774,234.507h-8.859a1.191,1.191,0,1,0,0,2.382h8.859a1.191,1.191,0,1,0,0-2.382" transform="translate(-1149.043 -221.426)" fill="#206897"/>
      <path id="Trazado_193946" data-name="Trazado 193946" d="M1156.915,272.142h8.859a1.191,1.191,0,1,0,0-2.382h-8.859a1.191,1.191,0,1,0,0,2.382" transform="translate(-1149.043 -251.09)" fill="#206897"/>
      <path id="Trazado_193947" data-name="Trazado 193947" d="M1156.915,460.732h8.859a1.191,1.191,0,1,0,0-2.382h-8.859a1.191,1.191,0,1,0,0,2.382" transform="translate(-1149.043 -409.78)" fill="#206897"/>
    </g>
    <path id="Trazado_193968" data-name="Trazado 193968" d="M78.128,61.176V55.231a2.151,2.151,0,0,0-2.149-2.149H47.307V47.677A23.859,23.859,0,1,0,25.578,11.462a1.334,1.334,0,0,0,2.278,1.388,21.192,21.192,0,1,1,32.75,26.321c-.533-4.4-3.994-5.782-6.994-6.634l-1.693-.461c-.212-.057-.4-.353-.544-.669,3.161-2.187,5.505-5.887,5.505-9.121V19.355A12.365,12.365,0,0,0,53.5,10.377a10.771,10.771,0,0,0-7.5-3.149h-.042a10.779,10.779,0,0,0-7.509,3.149,12.363,12.363,0,0,0-3.383,8.978v2.931c0,3.234,2.344,6.934,5.505,9.121-.147.315-.333.612-.549.67l-1.684.458c-3,.852-6.461,2.236-7,6.63a21.221,21.221,0,0,1-5.827-20.852,1.334,1.334,0,1,0-2.575-.694A23.887,23.887,0,0,0,44.64,47.677v5.405H15.071a2.151,2.151,0,0,0-2.149,2.149v5.945a14.255,14.255,0,1,0,2.667,0V55.749h29.05V61.18a14.126,14.126,0,0,0-7.124,2.713A1.334,1.334,0,1,0,39.1,66.04a11.583,11.583,0,0,1,16.1,16.332A9.726,9.726,0,0,0,51.5,77.327a6.787,6.787,0,1,0-11.064,0,9.727,9.727,0,0,0-3.694,5.046,11.591,11.591,0,0,1-1.173-12.125,1.334,1.334,0,1,0-2.391-1.182,14.257,14.257,0,1,0,14.125-7.883V55.749H75.46v5.427a14.257,14.257,0,1,0,2.667,0ZM14.256,86.947a11.532,11.532,0,0,1-6.969-2.335A7.027,7.027,0,0,1,10.738,79.2a6.776,6.776,0,0,0,7.033,0,7.03,7.03,0,0,1,3.453,5.413,11.533,11.533,0,0,1-6.969,2.335M10.136,73.4a4.12,4.12,0,1,1,4.12,4.119,4.124,4.124,0,0,1-4.12-4.119m15.708,1.969a11.516,11.516,0,0,1-2.363,7,9.732,9.732,0,0,0-3.694-5.043,6.787,6.787,0,1,0-11.064,0A9.727,9.727,0,0,0,5.03,82.364a11.584,11.584,0,1,1,20.814-7Zm20.129-6.083A4.119,4.119,0,1,1,41.854,73.4,4.124,4.124,0,0,1,45.973,69.283Zm0,17.675A11.528,11.528,0,0,1,39,84.621,7.027,7.027,0,0,1,42.455,79.2a6.776,6.776,0,0,0,7.033,0,7.028,7.028,0,0,1,3.449,5.418A11.52,11.52,0,0,1,45.973,86.958Zm0-77.062c3.6.067,7.439,2.524,8.131,7.741a4.323,4.323,0,0,1-1.076-.882,3.491,3.491,0,0,0-3.79-1.231c-.48.125-.891.235-1.248.331a9.26,9.26,0,0,1-2.017.431,9.152,9.152,0,0,1-2-.427c-.361-.1-.778-.209-1.269-.336a3.49,3.49,0,0,0-3.787,1.232,4.316,4.316,0,0,1-1.076.882c.693-5.217,4.536-7.674,8.136-7.741M37.727,22.287V20.5a6,6,0,0,0,3.092-1.878c.6-.612.649-.662,1.215-.516.48.124.889.234,1.244.33a10.4,10.4,0,0,0,2.7.518,10.462,10.462,0,0,0,2.709-.522c.351-.094.755-.2,1.223-.325.568-.146.617-.1,1.217.516A6,6,0,0,0,54.214,20.5v1.787c0,2.945-3.007,6.741-6.31,7.964a4.9,4.9,0,0,1-3.867,0C40.734,29.027,37.727,25.232,37.727,22.287Zm12.387,11.8-3.519,2.066-.05.031c-.569.368-.579.368-1.147,0l-.05-.031-3.52-2.067a4.163,4.163,0,0,0,1.088-1.411c.065.025.129.052.194.076a7.516,7.516,0,0,0,5.723,0c.065-.024.13-.051.194-.077a4.156,4.156,0,0,0,1.087,1.412M33.929,40.382c0-3.2,1.722-4.247,4.62-5.127l5.424,3.184a3.233,3.233,0,0,0,4,0l5.424-3.184c2.9.879,4.62,1.931,4.62,5.127v.9a21.148,21.148,0,0,1-24.083,0v-.9ZM76.794,86.947a11.523,11.523,0,0,1-6.964-2.334A7.027,7.027,0,0,1,73.279,79.2a6.776,6.776,0,0,0,7.033,0,7.028,7.028,0,0,1,3.451,5.414A11.532,11.532,0,0,1,76.794,86.947ZM72.675,73.4a4.12,4.12,0,1,1,4.119,4.119A4.124,4.124,0,0,1,72.675,73.4M86.02,82.364a9.726,9.726,0,0,0-3.693-5.044,6.787,6.787,0,1,0-11.064,0,9.727,9.727,0,0,0-3.69,5.043,11.586,11.586,0,1,1,18.446,0Z" transform="translate(1223.95 6205.003)" fill="#206897"/>
    <g id="Grupo_144822" data-name="Grupo 144822" transform="translate(1230.205 6371.602)">
      <path id="Trazado_193948" data-name="Trazado 193948" d="M1562.549,816.22a1.242,1.242,0,0,0,1.709.407l6.733-4.142a1.242,1.242,0,1,0-1.3-2.115l-6.733,4.142a1.242,1.242,0,0,0-.408,1.709" transform="translate(-1495.574 -795.903)" fill="#206897"/>
      <path id="Trazado_193949" data-name="Trazado 193949" d="M1609.223,895.184l-9.871-.959a1.242,1.242,0,1,0-.24,2.472l9.87.959c.041,0,.082.006.122.006a1.242,1.242,0,0,0,.119-2.478" transform="translate(-1525.551 -866.614)" fill="#206897"/>
      <path id="Trazado_193950" data-name="Trazado 193950" d="M1527.533,731.743a1.238,1.238,0,0,0,1.608-.707l3.595-9.243a1.242,1.242,0,0,0-2.315-.9l-3.6,9.243a1.242,1.242,0,0,0,.708,1.608" transform="translate(-1465.597 -720.101)" fill="#206897"/>
      <path id="Trazado_193951" data-name="Trazado 193951" d="M1194.243,743.1a2.884,2.884,0,0,0-3.964-.939l-1.486.917a2.88,2.88,0,0,0-.939,3.964l.854,1.384-19.531,24.18-4.125,2.545a1.242,1.242,0,0,0,1.3,2.114l3.248-2,6.33,10.26a5.074,5.074,0,0,0-2.656.556l-.044.023c-.111.059-.222.12-.33.187l-3.714,2.3a6.667,6.667,0,0,0-2.193,2.245l-.917,1.382-.674,1.015-.017-.006-.031-.014c-.052-.023-.1-.049-.154-.077l-.032-.017a1.889,1.889,0,0,1-.16-.107l-.032-.025a1.743,1.743,0,0,1-.136-.117l-.016-.015a1.916,1.916,0,0,1-.132-.145l-.026-.034a1.856,1.856,0,0,1-.117-.165l-5.368-8.7a1.806,1.806,0,0,1,.588-2.485l1.607-.991a1.242,1.242,0,1,0-1.3-2.114l-1.607.991a4.292,4.292,0,0,0-1.879,4.81l-1.195.737a3.411,3.411,0,0,0-1.11,4.689l3.032,4.913a3.384,3.384,0,0,0,2.114,1.526,3.432,3.432,0,0,0,.792.093,3.381,3.381,0,0,0,1.782-.509l1.2-.738a4.287,4.287,0,0,0,.817.585l-3.449,5.195-.813.555a1.5,1.5,0,0,0-1.645.189l-2.14,1.8a1.51,1.51,0,0,0-1.665.026c-.024.017-.048.034-.071.052l-12.048,9.511a2.9,2.9,0,0,0-1.11,2.291V818.8a2.922,2.922,0,0,0,2.918,2.918h19.709a2.9,2.9,0,0,0,2.275-1.091l1.634-2.033a1.5,1.5,0,0,0,.364-1.153l2.2-1.851a1.49,1.49,0,0,0,.456-.672l5.069,1.039a1.218,1.218,0,0,0,.227.025c.148,0,.3,0,.443,0a6.606,6.606,0,0,0,3.649-.88l5.106-3.041c.085.005.171.008.256.008a4.028,4.028,0,0,0,2.108-.6l4.1-2.508a4.052,4.052,0,0,0-.28-7.074,18.673,18.673,0,0,1-3.135-8.881,4.085,4.085,0,0,1-2.831-4.967,4.159,4.159,0,0,0-.542-.7l24.612-5.357.855,1.384a2.883,2.883,0,0,0,3.964.939l1.486-.917a2.881,2.881,0,0,0,.939-3.965ZM1160.7,793.355a.924.924,0,0,1-1.271-.3l-3.031-4.914a.925.925,0,0,1,.3-1.271l1.054-.65,4,6.484Zm3.342,25.721a.431.431,0,0,1-.338.162H1144a.434.434,0,0,1-.434-.434v-3.869a.432.432,0,0,1,.165-.341l11.3-8.921,10.185,11.948Zm2.526-3.692-8.934-10.481,1.323-1.113,8.867,10.538Zm12.175-2.4a4.525,4.525,0,0,1-2.656.524l-6.364-1.3a1.237,1.237,0,0,0-.45-.01l-7.812-9.282.708-.483h0l.035-.026c.027-.02.053-.04.078-.062l.036-.034c.025-.023.048-.047.071-.072l.027-.03c.028-.034.054-.068.078-.1l.007-.009.006-.008.006-.01,6.569-9.894c.014-.021.028-.043.041-.065a4.06,4.06,0,0,1,1.371-1.411l3.714-2.3c.069-.043.138-.081.209-.116.032-.016.064-.03.1-.045s.074-.034.112-.048.087-.034.131-.048l.069-.023c.054-.017.109-.033.164-.047h0a2.633,2.633,0,0,1,.606-.074h.013c.06,0,.118,0,.177.006l.057.005c.052,0,.1.01.156.018l.092.017a2.406,2.406,0,0,1,.234.056l.089.025c.04.014.078.029.116.044s.061.023.091.036.077.034.114.053l.083.043c.038.02.075.041.112.064l.074.048c.037.025.074.049.109.076s.043.034.063.05c.037.029.073.058.108.09a2.387,2.387,0,0,1,.44.527l.091.149,1.324,2.161,1.662,2.712.422.69a1.086,1.086,0,0,1,.1.2,1.159,1.159,0,0,1,.035.673,1.276,1.276,0,0,1-.584.793l-.747.457h0a1.275,1.275,0,0,1-.159.081l-.035.015a1.271,1.271,0,0,1-.163.054l-.02,0a1.289,1.289,0,0,1-.155.027l-.03,0a1.431,1.431,0,0,1-.166,0l-.031,0a1.313,1.313,0,0,1-.167-.021h0a1.242,1.242,0,0,1-.172-.05l-.015-.005a1.175,1.175,0,0,1-.322-.186h0a1.213,1.213,0,0,1-.134-.128l-.01-.012a1.08,1.08,0,0,1-.105-.143l-1.238-2.024a3.284,3.284,0,0,0-2.061-1.489,3.4,3.4,0,0,0-2.593.426,1.244,1.244,0,0,0-.576.888c-.014.106-.031.21-.05.313-.014.075-.03.149-.047.223-.005.025-.01.05-.016.074q-.033.14-.072.276a.1.1,0,0,1,0,.011,5.259,5.259,0,0,1-.586,1.32,0,0,0,0,0,0,0,5.833,5.833,0,0,1-1.972,1.889,1.242,1.242,0,1,0,1.291,2.123,9.1,9.1,0,0,0,1.61-1.236l5.187,8.18a5.147,5.147,0,0,0,4.316,2.342c.09,0,.181,0,.272-.01.035.065.072.129.11.193a4.085,4.085,0,0,0,.5.659Zm1.054-9.132v0c.021.058.043.115.067.173,0,.006.005.014.008.021.021.052.045.1.068.154.006.011.01.023.016.035.023.048.048.1.072.142.008.014.014.028.022.042.033.061.068.121.1.18.062.1.13.2.2.295l.077.1c.046.058.093.115.142.17.034.039.068.079.1.116s.056.055.083.082a4.09,4.09,0,0,0,.315.284l.034.027a4.03,4.03,0,0,0,.686.44,4.085,4.085,0,0,0-.439,1.352,2.638,2.638,0,0,1-2.051-1.192l-5.71-9.006a7.991,7.991,0,0,0,.607-1.752.928.928,0,0,1,.266.023.822.822,0,0,1,.516.369l1.238,2.024.006.008c.061.1.126.195.2.287.052.068.107.131.163.195.019.022.037.046.057.068,0,.011.006.022.008.033q.029.129.066.256c.008.025.015.049.022.074.03.1.063.191.1.284,0,.01.008.019.012.028.034.086.072.169.113.252.012.024.023.048.036.071.047.091.095.18.148.268a3.186,3.186,0,0,1,2.645,4.094m.793-14.783.417-.255a1.614,1.614,0,1,1,1.684,2.755l-.415.253-1.228-2Zm9.257,14.92a1.572,1.572,0,0,1,.45,2.869l-4.1,2.508a1.56,1.56,0,0,1-1.089.206c-.021,0-.043-.01-.066-.013l-.033-.006a1.562,1.562,0,0,1-1.17-1.216.077.077,0,0,0,0-.014,1.582,1.582,0,0,1,.417-1.394l.029-.029.056-.051c.019-.017.038-.034.059-.049l.045-.036c.037-.027.074-.053.113-.078l0,0,.815-.5a4.307,4.307,0,0,0,.422-.223l3.138-1.919a1.563,1.563,0,0,1,.917-.054m-2.858-5.445a1.614,1.614,0,0,1,1.537,2.834l-.739.452a4.116,4.116,0,0,0-.425.226l-3.122,1.908a1.619,1.619,0,0,1-1.685-.317h0c-.035-.032-.068-.065-.1-.1l-.025-.03c-.023-.027-.047-.054-.069-.083s-.059-.083-.086-.126-.052-.091-.074-.137c-.007-.015-.013-.03-.02-.045-.014-.032-.028-.064-.041-.1-.006-.017-.012-.034-.017-.052s-.02-.063-.029-.095-.009-.036-.013-.053-.014-.064-.02-.1l-.008-.051c0-.034-.008-.067-.01-.1,0-.016,0-.032,0-.048,0-.035,0-.07,0-.1,0-.016,0-.03,0-.045,0-.036.006-.071.01-.105,0-.015,0-.03.005-.045,0-.031.011-.062.018-.093a1.61,1.61,0,0,1,.517-.882c.011-.01.021-.021.032-.031s.03-.027.047-.04c.039-.022.078-.042.116-.065l4.03-2.464q.087-.053.171-.111m-1.93-4.956a1.614,1.614,0,0,1,.61,2.845c-.041.023-.082.046-.123.071l-3.112,1.9.031-.025c.06-.047.119-.095.175-.146.035-.031.068-.064.1-.1.051-.049.1-.1.149-.151.033-.035.064-.072.1-.108.045-.053.089-.106.13-.161.029-.038.058-.077.086-.117.039-.056.077-.114.114-.173.025-.041.051-.081.074-.122.036-.062.068-.126.1-.19.02-.041.042-.08.06-.122.032-.072.061-.145.089-.22.013-.036.029-.071.041-.107.038-.112.072-.225.1-.341s.047-.222.063-.333c.005-.036.008-.071.012-.107.009-.076.016-.152.021-.228,0-.041,0-.083,0-.124,0-.071,0-.142,0-.212,0-.042,0-.084-.007-.126-.005-.071-.013-.142-.023-.213-.005-.039-.01-.079-.016-.118-.014-.08-.031-.159-.05-.238-.006-.028-.012-.058-.019-.086-.029-.107-.061-.212-.1-.316-.008-.02-.017-.04-.025-.061-.027-.07-.054-.141-.085-.209l.286-.175a1.6,1.6,0,0,1,1.221-.192M1214.6,781.04a.4.4,0,0,1-.178.246l-1.486.917a.4.4,0,0,1-.546-.129l-15.645-25.356a1.242,1.242,0,1,0-2.113,1.3l13.408,21.73-28.865,6.284-7.645-12.391,18.562-22.98,1.5,2.431a1.242,1.242,0,1,0,2.114-1.3l-3.737-6.057a.4.4,0,0,1,.129-.546l1.486-.917a.4.4,0,0,1,.546.129l22.421,36.339a.394.394,0,0,1,.049.3" transform="translate(-1141.08 -738.3)" fill="#206897"/>
    </g>
    <g id="Grupo_144818" data-name="Grupo 144818" transform="translate(1231.61 6071.732)">
      <path id="Trazado_193958" data-name="Trazado 193958" d="M276.969,1051.864a13.3,13.3,0,0,0,0,26.6h0a13.3,13.3,0,0,0,0-26.6Zm0,24.073a10.774,10.774,0,1,1,10.774-10.774,10.755,10.755,0,0,1-10.774,10.774" transform="translate(-221.867 -1032.193)" fill="#206897"/>
      <path id="Trazado_193959" data-name="Trazado 193959" d="M81.879,980.246l-2.619-2.619a1.263,1.263,0,1,0-1.786,1.786l2.619,2.619a2.63,2.63,0,1,1-3.719,3.719L66.212,975.588a18.757,18.757,0,0,0,3.72-3.717l3.375,3.375a1.263,1.263,0,1,0,1.786-1.786L71.337,969.7a18.569,18.569,0,0,0-.851-19.281V939.137a3.961,3.961,0,0,0-3.956-3.956H63.341v-3.435a3.961,3.961,0,0,0-3.956-3.956H24.192a1.263,1.263,0,1,0,0,2.525H59.384a1.433,1.433,0,0,1,1.431,1.431v3.435H11.1a3.961,3.961,0,0,0-3.956,3.956v64.935H3.956a1.433,1.433,0,0,1-1.431-1.431v-70.9a1.433,1.433,0,0,1,1.431-1.431H18.3a1.263,1.263,0,0,0,0-2.525H3.956A3.961,3.961,0,0,0,0,931.745v70.9a3.961,3.961,0,0,0,3.956,3.956H7.145v3.435a3.961,3.961,0,0,0,3.956,3.956H66.529a3.961,3.961,0,0,0,3.956-3.956v-26.6l4.1,4.1a5.155,5.155,0,1,0,7.29-7.29m-37.531-7.636a16,16,0,1,1,26.758-11.85c0,13.665-16.427,21.25-26.758,11.85m23.612,37.423a1.433,1.433,0,0,1-1.431,1.431H11.1a1.433,1.433,0,0,1-1.431-1.431v-70.9a1.433,1.433,0,0,1,1.431-1.431H66.529a1.433,1.433,0,0,1,1.431,1.431v8.281A18.411,18.411,0,0,0,55.1,942.231c-15.989,0-24.487,19.061-13.758,30.94a18.538,18.538,0,0,0,22.7,3.819l3.918,3.918v29.125Z" transform="translate(0 -927.789)" fill="#206897"/>
      <path id="Trazado_193960" data-name="Trazado 193960" d="M94.471,1042.244H110.1a1.263,1.263,0,1,0,0-2.526H94.471a1.263,1.263,0,0,0,0,2.526" transform="translate(-78.431 -1021.972)" fill="#206897"/>
      <path id="Trazado_193961" data-name="Trazado 193961" d="M94.471,1087.4H110.1a1.263,1.263,0,1,0,0-2.525H94.471a1.263,1.263,0,0,0,0,2.525" transform="translate(-78.431 -1059.966)" fill="#206897"/>
      <path id="Trazado_193962" data-name="Trazado 193962" d="M94.471,1132.548H110.1a1.263,1.263,0,1,0,0-2.526H94.471a1.263,1.263,0,0,0,0,2.526" transform="translate(-78.431 -1097.96)" fill="#206897"/>
      <path id="Trazado_193963" data-name="Trazado 193963" d="M94.471,1180.711H110.1a1.263,1.263,0,1,0,0-2.525H94.471a1.263,1.263,0,0,0,0,2.525" transform="translate(-78.431 -1138.487)" fill="#206897"/>
      <path id="Trazado_193964" data-name="Trazado 193964" d="M132.243,1265.794h-13.32l-1.519-3.43a14.409,14.409,0,0,0,3.483-16.38h12.168a1.263,1.263,0,0,0,0-2.526H119.467a14.441,14.441,0,1,0-4.126,20.483l1.605,3.626a1.262,1.262,0,0,0,1.155.751h14.142a1.263,1.263,0,1,0,0-2.526m-25.86-14.061v11.847a11.913,11.913,0,1,1,9.821-20.122h-1.97a1.263,1.263,0,0,0,0,2.526h3.841a11.82,11.82,0,0,1,1.418,4.487H107.646A1.263,1.263,0,0,0,106.383,1251.734Zm2.525,11.847V1253h10.584a11.877,11.877,0,0,1-3.181,6.9l-.924-2.086a1.263,1.263,0,1,0-2.309,1.022l1.227,2.771A11.838,11.838,0,0,1,108.909,1263.581Z" transform="translate(-78.43 -1188.225)" fill="#206897"/>
      <path id="Trazado_193965" data-name="Trazado 193965" d="M345.9,1320.4h-8.055a1.263,1.263,0,1,0,0,2.526H345.9a1.263,1.263,0,0,0,0-2.526" transform="translate(-283.217 -1258.156)" fill="#206897"/>
      <path id="Trazado_193966" data-name="Trazado 193966" d="M345.9,1359.533h-8.055a1.263,1.263,0,1,0,0,2.526H345.9a1.263,1.263,0,0,0,0-2.526" transform="translate(-283.217 -1291.083)" fill="#206897"/>
      <path id="Trazado_193967" data-name="Trazado 193967" d="M317.414,1103.255l-6.956,6.694-1.512-3.057a1.263,1.263,0,1,0-2.264,1.12l2.277,4.6a1.263,1.263,0,0,0,2.007.35l8.2-7.89a1.263,1.263,0,1,0-1.751-1.82Z" transform="translate(-257.95 -1075.139)" fill="#206897"/>
    </g>
    <g id="Grupo_145733" data-name="Grupo 145733" transform="translate(304.749 5874.891)">
      <g id="Grupo_145722" data-name="Grupo 145722">
        <g id="Grupo_145721" data-name="Grupo 145721" clip-path="url(#clip-path)">
          <path id="Trazado_195921" data-name="Trazado 195921" d="M390.9,158.221a23.918,23.918,0,1,1,0-47.836H539.431a23.918,23.918,0,1,1,0,47.836Z" fill="#fdd7ae"/>
          <path id="Trazado_195922" data-name="Trazado 195922" d="M539.431,110.927a23.376,23.376,0,0,1,0,46.752H390.9a23.376,23.376,0,1,1,0-46.752Zm0-1.085H390.9a24.461,24.461,0,0,0,0,48.922H539.431a24.461,24.461,0,0,0,0-48.922" fill="#faa141"/>
          <path id="Trazado_195923" data-name="Trazado 195923" d="M339.951,577.359V588.64H590.375V577.359" fill="none" stroke="#727997" stroke-linecap="round" stroke-linejoin="round" stroke-width="2"/>
          <line id="Línea_1021" data-name="Línea 1021" y1="10.316" transform="translate(465.164 588.64)" fill="none" stroke="#727997" stroke-linecap="round" stroke-linejoin="round" stroke-width="2"/>
          <path id="Trazado_195924" data-name="Trazado 195924" d="M590.376,193.61V182.329H339.952V193.61" fill="none" stroke="#727997" stroke-linecap="round" stroke-linejoin="round" stroke-width="2"/>
          <line id="Línea_1022" data-name="Línea 1022" y2="10.316" transform="translate(465.164 172.013)" fill="none" stroke="#727997" stroke-linecap="round" stroke-linejoin="round" stroke-width="2"/>
          <path id="Trazado_195925" data-name="Trazado 195925" d="M390.9,659.678a23.918,23.918,0,1,1,0-47.836H539.431a23.918,23.918,0,1,1,0,47.836Z" fill="#fdd7ae"/>
          <path id="Trazado_195926" data-name="Trazado 195926" d="M539.431,612.384a23.376,23.376,0,0,1,0,46.752H390.9a23.376,23.376,0,1,1,0-46.752Zm0-1.085H390.9a24.461,24.461,0,1,0,0,48.922H539.431a24.461,24.461,0,0,0,0-48.922" fill="#faa141"/>
        </g>
      </g>
      <text id="Fases_Dinámicas" data-name="Fases Dinámicas" transform="translate(396.82 642.422)" fill="#12263f" font-size="18" font-family="Roboto-Black, Roboto" font-weight="800"><tspan x="0" y="0" letter-spacing="-0.016em">F</tspan><tspan y="0">ases Dinámicas</tspan></text>
      <text id="Fases_Mecánicas" data-name="Fases Mecánicas" transform="translate(395.398 140.204)" fill="#12263f" font-size="18" font-family="Roboto-Black, Roboto" font-weight="800"><tspan x="0" y="0" letter-spacing="-0.016em">F</tspan><tspan y="0">ases Mecánicas</tspan></text>
      <g id="Grupo_145724" data-name="Grupo 145724">
        <g id="Grupo_145723" data-name="Grupo 145723" clip-path="url(#clip-path)">
          <text id="Elementos" transform="translate(666.68 13.688)" fill="#12263f" font-size="16" font-family="Roboto-Bold, Roboto" font-weight="700"><tspan x="0" y="0">Elemen</tspan><tspan y="0" letter-spacing="-0.016em">t</tspan><tspan y="0">os</tspan></text>
        </g>
      </g>
      <text id="Estructura" transform="translate(666.68 37.688)" fill="#12263f" font-size="16" font-family="Roboto-Regular, Roboto"><tspan x="0" y="0">Estructu</tspan><tspan y="0" letter-spacing="-0.018em">r</tspan><tspan y="0">a</tspan></text>
      <text id="Sistematización" transform="translate(666.68 61.688)" fill="#12263f" font-size="16" font-family="Roboto-Regular, Roboto"><tspan x="0" y="0">Sistematización</tspan></text>
      <text id="Agrupación_y_asignación_de_" data-name="Agrupación y asignación de " transform="translate(666.68 85.688)" fill="#12263f" font-size="16" font-family="Roboto-Regular, Roboto"><tspan x="0" y="0">Agrupación y asignación de </tspan></text>
      <text id="actividades_o_responsabilidades" data-name="actividades o responsabilidades" transform="translate(666.68 109.688)" fill="#12263f" font-size="16" font-family="Roboto-Regular, Roboto"><tspan x="0" y="0">actividades o </tspan><tspan y="0" letter-spacing="-0.01em">r</tspan><tspan y="0">esponsabilidades</tspan></text>
      <text id="Jerarquía" transform="translate(666.68 133.688)" fill="#12263f" font-size="16" font-family="Roboto-Regular, Roboto"><tspan x="0" y="0">Je</tspan><tspan y="0" letter-spacing="-0.019em">r</tspan><tspan y="0">a</tspan><tspan y="0" letter-spacing="-0.009em">r</tspan><tspan y="0">quía</tspan></text>
      <text id="Simplificación_de_funciones" data-name="Simplificación de funciones" transform="translate(666.68 157.688)" fill="#12263f" font-size="16" font-family="Roboto-Regular, Roboto"><tspan x="0" y="0">Simplificación de funciones</tspan></text>
      <text id="Fase_Analítica" data-name="Fase Analítica" transform="translate(666.68 218.36)" fill="#12263f" font-size="16" font-family="Roboto-Bold, Roboto" font-weight="700"><tspan x="0" y="0" letter-spacing="-0.016em">F</tspan><tspan y="0">ase </tspan><tspan y="0" letter-spacing="-0.023em">A</tspan><tspan y="0">nalítica</tspan></text>
      <text id="División_de_trabajo" data-name="División de trabajo" transform="translate(666.68 242.36)" fill="#12263f" font-size="16" font-family="Roboto-Regular, Roboto"><tspan x="0" y="0">División de t</tspan><tspan y="0" letter-spacing="-0.022em">r</tspan><tspan y="0">abajo</tspan></text>
      <text id="Unidad_administrativa" data-name="Unidad administrativa" transform="translate(666.68 266.36)" fill="#12263f" font-size="16" font-family="Roboto-Regular, Roboto"><tspan x="0" y="0">Unidad administ</tspan><tspan y="0" letter-spacing="-0.021em">r</tspan><tspan y="0">ati</tspan><tspan y="0" letter-spacing="-0.007em">v</tspan><tspan y="0">a</tspan></text>
      <text id="Fase_Sintética" data-name="Fase Sintética" transform="translate(666.68 345.88)" fill="#12263f" font-size="16" font-family="Roboto-Bold, Roboto" font-weight="700"><tspan x="0" y="0" letter-spacing="-0.016em">F</tspan><tspan y="0">ase Sintética</tspan></text>
      <text id="Estructuración" transform="translate(666.68 369.88)" fill="#12263f" font-size="16" font-family="Roboto-Regular, Roboto"><tspan x="0" y="0">Estructu</tspan><tspan y="0" letter-spacing="-0.018em">r</tspan><tspan y="0">ación</tspan></text>
      <text id="Subordinación" transform="translate(666.68 393.88)" fill="#12263f" font-size="16" font-family="Roboto-Regular, Roboto"><tspan x="0" y="0">Subo</tspan><tspan y="0" letter-spacing="-0.008em">r</tspan><tspan y="0">dinación</tspan></text>
      <text id="Conformado_por:" data-name="Conformado por:" transform="translate(96.839 140.792)" fill="#12263f" font-size="16" font-family="Roboto-Bold, Roboto" font-weight="700"><tspan x="0" y="0">Conformado por:</tspan></text>
      <text id="Objetivos" transform="translate(96.839 164.792)" fill="#12263f" font-size="16" font-family="Roboto-Regular, Roboto"><tspan x="0" y="0">Objeti</tspan><tspan y="0" letter-spacing="-0.008em">v</tspan><tspan y="0">os</tspan></text>
      <text id="Políticas_" data-name="Políticas " transform="translate(96.839 188.792)" fill="#12263f" font-size="16" font-family="Roboto-Regular, Roboto"><tspan x="0" y="0" letter-spacing="-0.006em">P</tspan><tspan y="0">olíticas </tspan></text>
      <text id="Planes" transform="translate(96.839 212.792)" fill="#12263f" font-size="16" font-family="Roboto-Regular, Roboto"><tspan x="0" y="0">Planes</tspan></text>
      <text id="Programas" transform="translate(96.839 236.792)" fill="#12263f" font-size="16" font-family="Roboto-Regular, Roboto"><tspan x="0" y="0">P</tspan><tspan y="0" letter-spacing="-0.009em">r</tspan><tspan y="0">og</tspan><tspan y="0" letter-spacing="-0.019em">r</tspan><tspan y="0">amas</tspan></text>
      <text id="Presupuestos" transform="translate(96.839 260.792)" fill="#12263f" font-size="16" font-family="Roboto-Regular, Roboto"><tspan x="0" y="0">P</tspan><tspan y="0" letter-spacing="-0.009em">r</tspan><tspan y="0">esupues</tspan><tspan y="0" letter-spacing="-0.01em">t</tspan><tspan y="0">os</tspan></text>
      <text id="Principios" transform="translate(96.839 329.56)" fill="#12263f" font-size="16" font-family="Roboto-Bold, Roboto" font-weight="700"><tspan x="0" y="0">Principios</tspan></text>
      <text id="Precisión" transform="translate(96.839 353.56)" fill="#12263f" font-size="16" font-family="Roboto-Regular, Roboto"><tspan x="0" y="0">P</tspan><tspan y="0" letter-spacing="-0.009em">r</tspan><tspan y="0">ecisión</tspan></text>
      <text id="Flexibilidad" transform="translate(96.839 377.56)" fill="#12263f" font-size="16" font-family="Roboto-Regular, Roboto"><tspan x="0" y="0">Flexibilidad</tspan></text>
      <text id="Unidad" transform="translate(96.839 401.56)" fill="#12263f" font-size="16" font-family="Roboto-Regular, Roboto"><tspan x="0" y="0">Unidad</tspan></text>
      <text id="Factibilidad" transform="translate(96.839 425.56)" fill="#12263f" font-size="16" font-family="Roboto-Regular, Roboto"><tspan x="0" y="0" letter-spacing="-0.016em">F</tspan><tspan y="0">actibilidad</tspan></text>
      <text id="Funciones" transform="translate(93.671 481.4)" fill="#12263f" font-size="16" font-family="Roboto-Bold, Roboto" font-weight="700"><tspan x="0" y="0" letter-spacing="-0.01em">F</tspan><tspan y="0">unciones</tspan></text>
      <text id="Evaluación_de_resultados" data-name="Evaluación de resultados" transform="translate(93.671 505.4)" fill="#12263f" font-size="16" font-family="Roboto-Regular, Roboto"><tspan x="0" y="0" letter-spacing="-0.012em">E</tspan><tspan y="0" letter-spacing="-0.007em">v</tspan><tspan y="0">aluación de </tspan><tspan y="0" letter-spacing="-0.01em">r</tspan><tspan y="0">esultados</tspan></text>
      <text id="Comparación_de_" data-name="Comparación de " transform="translate(93.671 529.4)" fill="#12263f" font-size="16" font-family="Roboto-Regular, Roboto"><tspan x="0" y="0">Compa</tspan><tspan y="0" letter-spacing="-0.018em">r</tspan><tspan y="0">ación de </tspan></text>
      <text id="resultados_frente_a_lo_" data-name="resultados frente a lo " transform="translate(93.671 553.4)" fill="#12263f" font-size="16" font-family="Roboto-Regular, Roboto"><tspan x="0" y="0" letter-spacing="-0.009em">r</tspan><tspan y="0">esultados f</tspan><tspan y="0" letter-spacing="-0.01em">r</tspan><tspan y="0">ente a lo </tspan></text>
      <text id="planeado" transform="translate(93.671 577.4)" fill="#12263f" font-size="16" font-family="Roboto-Regular, Roboto"><tspan x="0" y="0">planeado</tspan></text>
      <text id="Determinación_de_las_" data-name="Determinación de las " transform="translate(93.671 601.4)" fill="#12263f" font-size="16" font-family="Roboto-Regular, Roboto"><tspan x="0" y="0">Determinación de las </tspan></text>
      <text id="causas" transform="translate(93.671 625.4)" fill="#12263f" font-size="16" font-family="Roboto-Regular, Roboto"><tspan x="0" y="0">causas</tspan></text>
      <text id="Corrección_de_fallas" data-name="Corrección de fallas" transform="translate(93.671 649.4)" fill="#12263f" font-size="16" font-family="Roboto-Regular, Roboto"><tspan x="0" y="0">Cor</tspan><tspan y="0" letter-spacing="-0.008em">r</tspan><tspan y="0">ección de fallas</tspan></text>
      <g id="Grupo_145726" data-name="Grupo 145726">
        <g id="Grupo_145725" data-name="Grupo 145725" clip-path="url(#clip-path-3)">
          <path id="Trazado_195927" data-name="Trazado 195927" d="M660.372,34.544l-2.138,1.1.409-2.335-1.73-1.652,2.39-.341,1.069-2.123,1.069,2.123,2.39.341-1.73,1.652.409,2.335Z" transform="translate(0 -0.566)" fill="#206897"/>
          <path id="Trazado_195928" data-name="Trazado 195928" d="M660.372,58.5l-2.138,1.1.409-2.335-1.73-1.652,2.39-.341,1.069-2.123,1.069,2.123,2.39.341-1.73,1.652.409,2.335Z" transform="translate(0 -1.03)" fill="#206897"/>
          <path id="Trazado_195929" data-name="Trazado 195929" d="M660.372,81.518l-2.138,1.1.409-2.335-1.73-1.652,2.39-.341,1.069-2.123,1.069,2.123,2.39.341-1.73,1.652.409,2.335Z" transform="translate(0 -1.477)" fill="#206897"/>
          <path id="Trazado_195930" data-name="Trazado 195930" d="M660.372,130.854l-2.138,1.1.409-2.335-1.73-1.652,2.39-.341,1.069-2.123,1.069,2.123,2.39.341-1.73,1.652.409,2.335Z" transform="translate(0 -2.433)" fill="#206897"/>
          <path id="Trazado_195931" data-name="Trazado 195931" d="M660.372,153.906l-2.138,1.1.409-2.335-1.73-1.652,2.39-.341,1.069-2.123,1.069,2.123,2.39.341-1.73,1.652.409,2.335Z" transform="translate(0 -2.88)" fill="#206897"/>
          <path id="Trazado_195932" data-name="Trazado 195932" d="M660.372,238.241l-2.138,1.1.409-2.335-1.73-1.652,2.39-.341,1.069-2.123,1.069,2.123,2.39.341-1.73,1.652.409,2.335Z" transform="translate(0 -4.515)" fill="#206897"/>
          <path id="Trazado_195933" data-name="Trazado 195933" d="M660.372,262.26l-2.138,1.1.409-2.335-1.73-1.652,2.39-.341,1.069-2.123,1.069,2.123,2.39.341-1.73,1.652.409,2.335Z" transform="translate(0 -4.98)" fill="#206897"/>
          <path id="Trazado_195934" data-name="Trazado 195934" d="M660.372,366.455l-2.138,1.1.409-2.335-1.73-1.652,2.39-.341,1.069-2.123,1.069,2.123,2.39.341-1.73,1.652.409,2.335Z" transform="translate(0 -7)" fill="#206897"/>
          <path id="Trazado_195935" data-name="Trazado 195935" d="M660.372,389.922l-2.138,1.1.409-2.335-1.73-1.652,2.39-.341,1.069-2.123,1.069,2.123,2.39.341-1.73,1.652.409,2.335Z" transform="translate(0 -7.455)" fill="#206897"/>
          <path id="Trazado_195936" data-name="Trazado 195936" d="M88.069,501.259l-2.138,1.1.409-2.335-1.73-1.652,2.39-.341,1.069-2.123,1.069,2.123,2.39.341-1.73,1.652.409,2.335Z" transform="translate(0 -9.613)" fill="#07a5b6"/>
          <path id="Trazado_195937" data-name="Trazado 195937" d="M88.069,524.884l-2.138,1.1.409-2.335L84.61,522l2.39-.341,1.069-2.123,1.069,2.123,2.39.341-1.73,1.652.409,2.335Z" transform="translate(0 -10.071)" fill="#07a5b6"/>
          <path id="Trazado_195938" data-name="Trazado 195938" d="M88.069,599.148l-2.138,1.1.409-2.335-1.73-1.652,2.39-.341,1.069-2.123,1.069,2.123,2.39.341-1.73,1.652.409,2.335Z" transform="translate(0 -11.511)" fill="#07a5b6"/>
          <path id="Trazado_195939" data-name="Trazado 195939" d="M88.069,644.662l-2.138,1.1.409-2.335-1.73-1.652,2.39-.341,1.069-2.123,1.069,2.123,2.39.341L89.8,643.43l.409,2.335Z" transform="translate(0 -12.393)" fill="#07a5b6"/>
          <path id="Trazado_195940" data-name="Trazado 195940" d="M91.528,161.029l-2.138,1.1L89.8,159.8l-1.73-1.652,2.39-.341,1.069-2.123L92.6,157.8l2.39.341-1.73,1.652.409,2.335Z" transform="translate(0 -3.018)" fill="#f9860b"/>
          <path id="Trazado_195941" data-name="Trazado 195941" d="M91.528,184.981l-2.138,1.1.409-2.335-1.73-1.652,2.39-.341,1.069-2.123,1.069,2.123,2.39.341-1.73,1.652.409,2.335Z" transform="translate(0 -3.482)" fill="#f9860b"/>
          <path id="Trazado_195942" data-name="Trazado 195942" d="M91.528,208.494l-2.138,1.1.409-2.335-1.73-1.652,2.39-.341,1.069-2.123,1.069,2.123,2.39.341-1.73,1.652.409,2.335Z" transform="translate(0 -3.938)" fill="#f9860b"/>
          <path id="Trazado_195943" data-name="Trazado 195943" d="M91.528,232.627l-2.138,1.1.409-2.335-1.73-1.652,2.39-.341,1.069-2.123L92.6,229.4l2.39.341-1.73,1.652.409,2.335Z" transform="translate(0 -4.406)" fill="#f9860b"/>
          <path id="Trazado_195944" data-name="Trazado 195944" d="M91.528,256.96l-2.138,1.1.409-2.335-1.73-1.652,2.39-.341,1.069-2.123,1.069,2.123,2.39.341-1.73,1.652.409,2.335Z" transform="translate(0 -4.878)" fill="#f9860b"/>
          <path id="Trazado_195945" data-name="Trazado 195945" d="M91.528,350.873l-2.138,1.1.409-2.335-1.73-1.652,2.39-.341,1.069-2.123,1.069,2.123,2.39.341-1.73,1.652.409,2.335Z" transform="translate(0 -6.698)" fill="#f9860b"/>
          <path id="Trazado_195946" data-name="Trazado 195946" d="M91.528,373.552l-2.138,1.1.409-2.335-1.73-1.652,2.39-.341,1.069-2.123,1.069,2.123,2.39.341-1.73,1.652.409,2.335Z" transform="translate(0 -7.138)" fill="#f9860b"/>
          <path id="Trazado_195947" data-name="Trazado 195947" d="M91.528,396.044l-2.138,1.1.409-2.335-1.73-1.652,2.39-.341,1.069-2.123,1.069,2.123,2.39.341-1.73,1.652.409,2.335Z" transform="translate(0 -7.574)" fill="#f9860b"/>
          <path id="Trazado_195948" data-name="Trazado 195948" d="M91.528,422.566l-2.138,1.1.409-2.335-1.73-1.652,2.39-.341,1.069-2.123L92.6,419.34l2.39.341-1.73,1.652.409,2.335Z" transform="translate(0 -8.088)" fill="#f9860b"/>
          <path id="Trazado_195949" data-name="Trazado 195949" d="M459.5,223.527c-86.067,0-155.838,68.418-155.838,152.817H459.5Z" transform="translate(0 -4.333)" fill="#fdd7ae"/>
          <path id="Trazado_195950" data-name="Trazado 195950" d="M303.661,390.7c0,84.4,69.771,152.817,155.838,152.817V390.7Z" transform="translate(0 -7.574)" fill="#b5cddc"/>
          <path id="Trazado_195951" data-name="Trazado 195951" d="M470.828,223.527V376.344H626.666c0-84.4-69.771-152.817-155.838-152.817" transform="translate(0 -4.333)" fill="#b5cddc"/>
          <path id="Trazado_195952" data-name="Trazado 195952" d="M470.828,543.512c86.067,0,155.838-68.418,155.838-152.817H470.828Z" transform="translate(0 -7.574)" fill="#fbaed1"/>
          <path id="Trazado_195953" data-name="Trazado 195953" d="M624.341,352.087a2.254,2.254,0,0,1-2.229-1.841c-12.834-72.164-76.458-124.541-151.283-124.541a2.222,2.222,0,1,1,0-4.444,160.051,160.051,0,0,1,102.263,36.794,154.547,154.547,0,0,1,53.484,91.429,2.226,2.226,0,0,1-1.843,2.57,2.329,2.329,0,0,1-.392.033" transform="translate(0 -4.289)" fill="#528aae"/>
          <path id="Trazado_195954" data-name="Trazado 195954" d="M639.411,338.111l-15.99,8.593-17.408-5.321,20.654,37.182Z" transform="translate(0 -6.554)" fill="#528aae"/>
          <path id="Trazado_195955" data-name="Trazado 195955" d="M504.453,542.668a2.823,2.823,0,0,1-2.764-2.181,2.779,2.779,0,0,1,2.158-3.31c69.525-15,119.987-76.623,119.987-146.538a2.833,2.833,0,0,1,5.665,0,152.438,152.438,0,0,1-9.435,52.976,154.236,154.236,0,0,1-26.092,45.152A159.723,159.723,0,0,1,505.064,542.6a2.9,2.9,0,0,1-.611.066" transform="translate(0 -7.519)" fill="#f64193"/>
          <path id="Trazado_195956" data-name="Trazado 195956" d="M522.779,560.358l-11.451-19.325,6.235-21.5L470.828,546.01Z" transform="translate(0 -10.071)" fill="#f64193"/>
          <path id="Trazado_195957" data-name="Trazado 195957" d="M459.5,546.886a160.993,160.993,0,0,1-54.022-9.252,158.9,158.9,0,0,1-46.047-25.586,155.733,155.733,0,0,1-54.9-87.184,2.778,2.778,0,0,1,2.158-3.31,2.834,2.834,0,0,1,3.375,2.116c15.291,68.176,78.138,117.66,149.435,117.66a2.778,2.778,0,1,1,0,5.555" transform="translate(0 -8.171)" fill="#3eb9c6"/>
          <path id="Trazado_195958" data-name="Trazado 195958" d="M289.028,441.638l19.707-11.229,21.923,6.114-27-45.829Z" transform="translate(0 -7.574)" fill="#3eb9c6"/>
          <path id="Trazado_195959" data-name="Trazado 195959" d="M303.661,379.137a2.805,2.805,0,0,1-2.832-2.777,152.459,152.459,0,0,1,9.434-52.976,154.261,154.261,0,0,1,26.093-45.152A159.717,159.717,0,0,1,425.263,224.4a2.832,2.832,0,0,1,3.375,2.115,2.778,2.778,0,0,1-2.158,3.31c-69.525,15-119.987,76.623-119.987,146.538a2.805,2.805,0,0,1-2.832,2.777" transform="translate(0 -4.349)" fill="#faa141"/>
          <path id="Trazado_195960" data-name="Trazado 195960" d="M407.548,208.894,419,228.219l-6.235,21.5L459.5,223.243Z" transform="translate(0 -4.049)" fill="#faa141"/>
        </g>
      </g>
      <text id="Dirección" transform="translate(483.869 420.101)" fill="#12263f" font-size="18" font-family="Roboto-Bold, Roboto" font-weight="700"><tspan x="0" y="0">Di</tspan><tspan y="0" letter-spacing="-0.009em">r</tspan><tspan y="0">ección</tspan></text>
      <g id="Grupo_145728" data-name="Grupo 145728">
        <g id="Grupo_145727" data-name="Grupo 145727" clip-path="url(#clip-path)">
          <path id="Trazado_195961" data-name="Trazado 195961" d="M390.69,305.583h6.164V290.507H390.69v-6h19.491v6h-6.164v15.076h6.164v6H390.69Z" fill="#f9860b"/>
          <path id="Trazado_195962" data-name="Trazado 195962" d="M502.58,305.583h6.164V290.507H502.58v-6h19.491v6h-6.164v15.076h6.164v6H502.58Z" fill="#206897"/>
          <path id="Trazado_195963" data-name="Trazado 195963" d="M527.569,305.583h6.164V290.507h-6.164v-6H547.06v6H540.9v15.076h6.164v6H527.569Z" fill="#206897"/>
          <path id="Trazado_195964" data-name="Trazado 195964" d="M496.049,478.2h6.164V463.122h-6.164v-6H515.54v6h-6.164V478.2h6.164v6H496.049Z" fill="#f40b74"/>
          <path id="Trazado_195965" data-name="Trazado 195965" d="M521.038,478.2H527.2V463.122h-6.164v-6h19.491v6h-6.164V478.2h6.164v6H521.038Z" fill="#f40b74"/>
          <path id="Trazado_195966" data-name="Trazado 195966" d="M546.027,478.2h6.164V463.122h-6.164v-6h19.491v6h-6.164V478.2h6.164v6H546.027Z" fill="#f40b74"/>
          <path id="Trazado_195967" data-name="Trazado 195967" d="M383.906,478.2h6.164V463.122h-6.164v-6H403.4v6h-6.164V478.2H403.4v6H383.906Z" fill="#07a5b6"/>
          <path id="Trazado_195968" data-name="Trazado 195968" d="M406.313,457.125h7.58l2.832,11.828c.749,2.874,1.249,5.664,2,8.579h.166c.75-2.915,1.292-5.705,2-8.579l2.749-11.828h7.33l-8,27.071h-8.663Z" fill="#07a5b6"/>
        </g>
      </g>
      <text id="_" data-name="¿" transform="translate(293.956 337.178) rotate(-74.368)" fill="#12263f" font-size="16" font-family="Roboto-Black, Roboto" font-weight="800"><tspan x="0" y="0">¿</tspan></text>
      <text id="Q" transform="translate(296.07 329.458) rotate(-71.171)" fill="#12263f" font-size="16" font-family="Roboto-Black, Roboto" font-weight="800"><tspan x="0" y="0">Q</tspan></text>
      <text id="u" transform="translate(299.599 319.183) rotate(-67.842)" fill="#12263f" font-size="16" font-family="Roboto-Black, Roboto" font-weight="800"><tspan x="0" y="0">u</tspan></text>
      <text id="é" transform="translate(302.953 310.952) rotate(-64.896)" fill="#12263f" font-size="16" font-family="Roboto-Black, Roboto" font-weight="800"><tspan x="0" y="0">é</tspan></text>
      <text id="_2" data-name=" " transform="translate(306.642 303.175) rotate(-62.791)" fill="#12263f" font-size="16" font-family="Roboto-Black, Roboto" font-weight="800"><tspan x="0" y="0"> </tspan></text>
      <text id="y" transform="translate(308.382 299.702) rotate(-60.761)" fill="#12263f" font-size="16" font-family="Roboto-Black, Roboto" font-weight="800"><tspan x="0" y="0">y</tspan></text>
      <text id="_3" data-name=" " transform="matrix(0.519, -0.855, 0.855, 0.519, 312.423, 292.557)" fill="#12263f" font-size="16" font-family="Roboto-Black, Roboto" font-weight="800"><tspan x="0" y="0"> </tspan></text>
      <text id="c" transform="matrix(0.549, -0.836, 0.836, 0.549, 314.405, 289.219)" fill="#12263f" font-size="16" font-family="Roboto-Black, Roboto" font-weight="800"><tspan x="0" y="0">c</tspan></text>
      <text id="ó" transform="translate(318.883 282.381) rotate(-53.852)" fill="#12263f" font-size="16" font-family="Roboto-Black, Roboto" font-weight="800"><tspan x="0" y="0">ó</tspan></text>
      <text id="m" transform="matrix(0.641, -0.767, 0.767, 0.641, 324.002, 275.23)" fill="#12263f" font-size="16" font-family="Roboto-Black, Roboto" font-weight="800"><tspan x="0" y="0">m</tspan></text>
      <text id="o" transform="matrix(0.69, -0.724, 0.724, 0.69, 332.782, 264.837)" fill="#12263f" font-size="16" font-family="Roboto-Black, Roboto" font-weight="800"><tspan x="0" y="0">o</tspan></text>
      <text id="_4" data-name=" " transform="translate(338.932 258.447) rotate(-44.253)" fill="#12263f" font-size="16" font-family="Roboto-Black, Roboto" font-weight="800"><tspan x="0" y="0"> </tspan></text>
      <text id="h" transform="matrix(0.742, -0.671, 0.671, 0.742, 341.677, 255.705)" fill="#12263f" font-size="16" font-family="Roboto-Black, Roboto" font-weight="800"><tspan x="0" y="0">h</tspan></text>
      <text id="a" transform="translate(348.295 249.727) rotate(-39.232)" fill="#12263f" font-size="16" font-family="Roboto-Black, Roboto" font-weight="800"><tspan x="0" y="0">a</tspan></text>
      <text id="c-2" data-name="c" transform="matrix(0.804, -0.594, 0.594, 0.804, 354.77, 244.438)" fill="#12263f" font-size="16" font-family="Roboto-Black, Roboto" font-weight="800"><tspan x="0" y="0">c</tspan></text>
      <text id="e" transform="matrix(0.832, -0.554, 0.554, 0.832, 361.33, 239.579)" fill="#12263f" font-size="16" font-family="Roboto-Black, Roboto" font-weight="800"><tspan x="0" y="0">e</tspan></text>
      <text id="r" transform="translate(368.507 234.829) rotate(-31.229)" fill="#12263f" font-size="16" font-family="Roboto-Black, Roboto" font-weight="800"><tspan x="0" y="0">r</tspan></text>
      <text id="_5" data-name="?" transform="translate(373.582 231.724) rotate(-28.881)" fill="#12263f" font-size="16" font-family="Roboto-Black, Roboto" font-weight="800"><tspan x="0" y="0">?</tspan></text>
      <text id="_6" data-name="¿" transform="translate(533.869 220.584) rotate(23.047)" fill="#12263f" font-size="16" font-family="Roboto-Black, Roboto" font-weight="800"><tspan x="0" y="0">¿</tspan></text>
      <text id="Q-2" data-name="Q" transform="matrix(0.897, 0.442, -0.442, 0.897, 541.237, 223.669)" fill="#12263f" font-size="16" font-family="Roboto-Black, Roboto" font-weight="800"><tspan x="0" y="0">Q</tspan></text>
      <text id="u-2" data-name="u" transform="translate(550.996 228.506) rotate(29.553)" fill="#12263f" font-size="16" font-family="Roboto-Black, Roboto" font-weight="800"><tspan x="0" y="0">u</tspan></text>
      <text id="i" transform="translate(558.729 232.94) rotate(31.769)" fill="#12263f" font-size="16" font-family="Roboto-Black, Roboto" font-weight="800"><tspan x="0" y="0">i</tspan></text>
      <text id="é-2" data-name="é" transform="matrix(0.83, 0.558, -0.558, 0.83, 562.413, 235.171)" fill="#12263f" font-size="16" font-family="Roboto-Black, Roboto" font-weight="800"><tspan x="0" y="0">é</tspan></text>
      <text id="n" transform="matrix(0.8, 0.6, -0.6, 0.8, 569.531, 239.951)" fill="#12263f" font-size="16" font-family="Roboto-Black, Roboto" font-weight="800"><tspan x="0" y="0">n</tspan></text>
      <text id="_7" data-name=" " transform="matrix(0.777, 0.629, -0.629, 0.777, 576.623, 245.323)" fill="#12263f" font-size="16" font-family="Roboto-Black, Roboto" font-weight="800"><tspan x="0" y="0"> </tspan></text>
      <text id="y-2" data-name="y" transform="matrix(0.755, 0.656, -0.656, 0.755, 579.682, 247.747)" fill="#12263f" font-size="16" font-family="Roboto-Black, Roboto" font-weight="800"><tspan x="0" y="0">y</tspan></text>
      <text id="_8" data-name=" " transform="translate(585.824 253.136) rotate(43.015)" fill="#12263f" font-size="16" font-family="Roboto-Black, Roboto" font-weight="800"><tspan x="0" y="0"> </tspan></text>
      <text id="c-3" data-name="c" transform="translate(588.694 255.759) rotate(45.032)" fill="#12263f" font-size="16" font-family="Roboto-Black, Roboto" font-weight="800"><tspan x="0" y="0">c</tspan></text>
      <text id="o-2" data-name="o" transform="translate(594.482 261.537) rotate(47.872)" fill="#12263f" font-size="16" font-family="Roboto-Black, Roboto" font-weight="800"><tspan x="0" y="0">o</tspan></text>
      <text id="n-2" data-name="n" transform="matrix(0.632, 0.775, -0.775, 0.632, 600.423, 268.1)" fill="#12263f" font-size="16" font-family="Roboto-Black, Roboto" font-weight="800"><tspan x="0" y="0">n</tspan></text>
      <text id="_9" data-name=" " transform="matrix(0.602, 0.798, -0.798, 0.602, 606.029, 275.052)" fill="#12263f" font-size="16" font-family="Roboto-Black, Roboto" font-weight="800"><tspan x="0" y="0"> </tspan></text>
      <text id="q-3" data-name="q" transform="translate(608.405 278.121) rotate(55.108)" fill="#12263f" font-size="16" font-family="Roboto-Black, Roboto" font-weight="800"><tspan x="0" y="0">q</tspan></text>
      <text id="u-3" data-name="u" transform="translate(613.455 285.355) rotate(58.068)" fill="#12263f" font-size="16" font-family="Roboto-Black, Roboto" font-weight="800"><tspan x="0" y="0">u</tspan></text>
      <text id="é-3" data-name="é" transform="translate(618.154 292.896) rotate(60.999)" fill="#12263f" font-size="16" font-family="Roboto-Black, Roboto" font-weight="800"><tspan x="0" y="0">é</tspan></text>
      <text id="_10" data-name="?" transform="matrix(0.442, 0.897, -0.897, 0.442, 622.312, 300.406)" fill="#12263f" font-size="16" font-family="Roboto-Black, Roboto" font-weight="800"><tspan x="0" y="0">?</tspan></text>
      <text id="_11" data-name="¿" transform="translate(392.768 550.417) rotate(-155.945)" fill="#12263f" font-size="16" font-family="Roboto-Black, Roboto" font-weight="800"><tspan x="0" y="0">¿</tspan></text>
      <text id="C-4" data-name="C" transform="translate(385.348 547.142) rotate(-152.857)" fill="#12263f" font-size="16" font-family="Roboto-Black, Roboto" font-weight="800"><tspan x="0" y="0">C</tspan></text>
      <text id="ó-2" data-name="ó" transform="translate(376.043 542.347) rotate(-149.635)" fill="#12263f" font-size="16" font-family="Roboto-Black, Roboto" font-weight="800"><tspan x="0" y="0">ó</tspan></text>
      <text id="m-2" data-name="m" transform="matrix(-0.828, -0.561, 0.561, -0.828, 368.282, 537.892)" fill="#12263f" font-size="16" font-family="Roboto-Black, Roboto" font-weight="800"><tspan x="0" y="0">m</tspan></text>
      <text id="o-3" data-name="o" transform="matrix(-0.789, -0.614, 0.614, -0.789, 356.921, 530.101)" fill="#12263f" font-size="16" font-family="Roboto-Black, Roboto" font-weight="800"><tspan x="0" y="0">o</tspan></text>
      <text id="_12" data-name=" " transform="translate(349.877 524.563) rotate(-139.998)" fill="#12263f" font-size="16" font-family="Roboto-Black, Roboto" font-weight="800"><tspan x="0" y="0"> </tspan></text>
      <text id="s" transform="matrix(-0.743, -0.669, 0.669, -0.743, 346.818, 522.044)" fill="#12263f" font-size="16" font-family="Roboto-Black, Roboto" font-weight="800"><tspan x="0" y="0">s</tspan></text>
      <text id="e-2" data-name="e" transform="matrix(-0.71, -0.704, 0.704, -0.71, 340.737, 516.58)" fill="#12263f" font-size="16" font-family="Roboto-Black, Roboto" font-weight="800"><tspan x="0" y="0">e</tspan></text>
      <text id="_13" data-name=" " transform="matrix(-0.684, -0.73, 0.73, -0.684, 334.601, 510.43)" fill="#12263f" font-size="16" font-family="Roboto-Black, Roboto" font-weight="800"><tspan x="0" y="0"> </tspan></text>
      <text id="r-2" data-name="r" transform="translate(331.884 507.554) rotate(-131.499)" fill="#12263f" font-size="16" font-family="Roboto-Black, Roboto" font-weight="800"><tspan x="0" y="0">r</tspan></text>
      <text id="e-3" data-name="e" transform="matrix(-0.631, -0.776, 0.776, -0.631, 327.943, 503.146)" fill="#12263f" font-size="16" font-family="Roboto-Black, Roboto" font-weight="800"><tspan x="0" y="0">e</tspan></text>
      <text id="a-2" data-name="a" transform="matrix(-0.592, -0.806, 0.806, -0.592, 322.465, 496.406)" fill="#12263f" font-size="16" font-family="Roboto-Black, Roboto" font-weight="800"><tspan x="0" y="0">a</tspan></text>
      <text id="l" transform="translate(317.492 489.57) rotate(-124.172)" fill="#12263f" font-size="16" font-family="Roboto-Black, Roboto" font-weight="800"><tspan x="0" y="0">l</tspan></text>
      <text id="i-2" data-name="i" transform="translate(315.024 485.934) rotate(-122.718)" fill="#12263f" font-size="16" font-family="Roboto-Black, Roboto" font-weight="800"><tspan x="0" y="0">i</tspan></text>
      <text id="z" transform="matrix(-0.51, -0.86, 0.86, -0.51, 312.63, 482.272)" fill="#12263f" font-size="16" font-family="Roboto-Black, Roboto" font-weight="800"><tspan x="0" y="0">z</tspan></text>
      <text id="ó-3" data-name="ó" transform="translate(308.497 475.318) rotate(-117.828)" fill="#12263f" font-size="16" font-family="Roboto-Black, Roboto" font-weight="800"><tspan x="0" y="0">ó</tspan></text>
      <text id="_14" data-name="?" transform="translate(304.317 467.379) rotate(-114.985)" fill="#12263f" font-size="16" font-family="Roboto-Black, Roboto" font-weight="800"><tspan x="0" y="0">?</tspan></text>
      <text id="_15" data-name="¿" transform="translate(480.698 570.282) rotate(-4.385)" fill="#12263f" font-size="16" font-family="Roboto-Black, Roboto" font-weight="800"><tspan x="0" y="0">¿</tspan></text>
      <text id="S-2" data-name="S" transform="translate(489.738 569.589) rotate(-7.56)" fill="#12263f" font-size="16" font-family="Roboto-Black, Roboto" font-weight="800"><tspan x="0" y="0">S</tspan></text>
      <text id="e-4" data-name="e" transform="matrix(0.982, -0.188, 0.188, 0.982, 500.579, 568.104)" fill="#12263f" font-size="16" font-family="Roboto-Black, Roboto" font-weight="800"><tspan x="0" y="0">e</tspan></text>
      <text id="_16" data-name=" " transform="translate(509.725 566.293) rotate(-13.077)" fill="#12263f" font-size="16" font-family="Roboto-Black, Roboto" font-weight="800"><tspan x="0" y="0"> </tspan></text>
      <text id="e-5" data-name="e" transform="translate(514.244 565.278) rotate(-15.321)" fill="#12263f" font-size="16" font-family="Roboto-Black, Roboto" font-weight="800"><tspan x="0" y="0">e</tspan></text>
      <text id="s-3" data-name="s" transform="matrix(0.949, -0.314, 0.314, 0.949, 523.461, 562.722)" fill="#12263f" font-size="16" font-family="Roboto-Black, Roboto" font-weight="800"><tspan x="0" y="0">s</tspan></text>
      <text id="t" transform="translate(531.855 559.901) rotate(-20.717)" fill="#12263f" font-size="16" font-family="Roboto-Black, Roboto" font-weight="800"><tspan x="0" y="0">t</tspan></text>
      <text id="á" transform="translate(537.641 557.731) rotate(-23.179)" fill="#12263f" font-size="16" font-family="Roboto-Black, Roboto" font-weight="800"><tspan x="0" y="0">á</tspan></text>
      <text id="_17" data-name=" " transform="matrix(0.904, -0.429, 0.429, 0.904, 546.004, 554.09)" fill="#12263f" font-size="16" font-family="Roboto-Black, Roboto" font-weight="800"><tspan x="0" y="0"> </tspan></text>
      <text id="r-3" data-name="r" transform="translate(550.055 552.177) rotate(-27.143)" fill="#12263f" font-size="16" font-family="Roboto-Black, Roboto" font-weight="800"><tspan x="0" y="0">r</tspan></text>
      <text id="e-6" data-name="e" transform="translate(555.963 549.168) rotate(-29.683)" fill="#12263f" font-size="16" font-family="Roboto-Black, Roboto" font-weight="800"><tspan x="0" y="0">e</tspan></text>
      <text id="a-3" data-name="a" transform="matrix(0.842, -0.54, 0.54, 0.842, 564.261, 544.407)" fill="#12263f" font-size="16" font-family="Roboto-Black, Roboto" font-weight="800"><tspan x="0" y="0">a</tspan></text>
      <text id="l-2" data-name="l" transform="translate(571.905 539.44) rotate(-34.945)" fill="#12263f" font-size="16" font-family="Roboto-Black, Roboto" font-weight="800"><tspan x="0" y="0">l</tspan></text>
      <text id="i-3" data-name="i" transform="translate(575.875 536.658) rotate(-36.486)" fill="#12263f" font-size="16" font-family="Roboto-Black, Roboto" font-weight="800"><tspan x="0" y="0">i</tspan></text>
      <text id="z-2" data-name="z" transform="matrix(0.781, -0.625, 0.625, 0.781, 579.926, 533.693)" fill="#12263f" font-size="16" font-family="Roboto-Black, Roboto" font-weight="800"><tspan x="0" y="0">z</tspan></text>
      <text id="a-4" data-name="a" transform="matrix(0.748, -0.664, 0.664, 0.748, 586.975, 528.026)" fill="#12263f" font-size="16" font-family="Roboto-Black, Roboto" font-weight="800"><tspan x="0" y="0">a</tspan></text>
      <text id="n-3" data-name="n" transform="matrix(0.711, -0.703, 0.703, 0.711, 593.973, 521.792)" fill="#12263f" font-size="16" font-family="Roboto-Black, Roboto" font-weight="800"><tspan x="0" y="0">n</tspan></text>
      <text id="d" transform="matrix(0.672, -0.741, 0.741, 0.672, 600.989, 514.827)" fill="#12263f" font-size="16" font-family="Roboto-Black, Roboto" font-weight="800"><tspan x="0" y="0">d</tspan></text>
      <text id="o-4" data-name="o" transform="matrix(0.631, -0.776, 0.776, 0.631, 607.616, 507.489)" fill="#12263f" font-size="16" font-family="Roboto-Black, Roboto" font-weight="800"><tspan x="0" y="0">o</tspan></text>
      <text id="_18" data-name=" " transform="matrix(0.599, -0.8, 0.8, 0.599, 613.635, 499.984)" fill="#12263f" font-size="16" font-family="Roboto-Black, Roboto" font-weight="800"><tspan x="0" y="0"> </tspan></text>
      <text id="l-3" data-name="l" transform="translate(616.283 496.444) rotate(-54.636)" fill="#12263f" font-size="16" font-family="Roboto-Black, Roboto" font-weight="800"><tspan x="0" y="0">l</tspan></text>
      <text id="o-5" data-name="o" transform="translate(619.231 492.348) rotate(-56.969)" fill="#12263f" font-size="16" font-family="Roboto-Black, Roboto" font-weight="800"><tspan x="0" y="0">o</tspan></text>
      <text id="_19" data-name=" " transform="translate(624.419 484.255) rotate(-59.235)" fill="#12263f" font-size="16" font-family="Roboto-Black, Roboto" font-weight="800"><tspan x="0" y="0"> </tspan></text>
      <text id="p" transform="translate(626.83 480.278) rotate(-61.52)" fill="#12263f" font-size="16" font-family="Roboto-Black, Roboto" font-weight="800"><tspan x="0" y="0">p</tspan></text>
      <text id="l-4" data-name="l" transform="translate(631.38 471.761) rotate(-63.87)" fill="#12263f" font-size="16" font-family="Roboto-Black, Roboto" font-weight="800"><tspan x="0" y="0">l</tspan></text>
      <text id="a-5" data-name="a" transform="translate(633.631 467.238) rotate(-66.142)" fill="#12263f" font-size="16" font-family="Roboto-Black, Roboto" font-weight="800"><tspan x="0" y="0">a</tspan></text>
      <text id="n-4" data-name="n" transform="translate(637.403 458.669) rotate(-69.228)" fill="#12263f" font-size="16" font-family="Roboto-Black, Roboto" font-weight="800"><tspan x="0" y="0">n</tspan></text>
      <text id="e-7" data-name="e" transform="translate(640.889 449.398) rotate(-72.357)" fill="#12263f" font-size="16" font-family="Roboto-Black, Roboto" font-weight="800"><tspan x="0" y="0">e</tspan></text>
      <text id="a-6" data-name="a" transform="matrix(0.252, -0.968, 0.968, 0.252, 643.765, 440.272)" fill="#12263f" font-size="16" font-family="Roboto-Black, Roboto" font-weight="800"><tspan x="0" y="0">a</tspan></text>
      <text id="d-2" data-name="d" transform="translate(646.112 431.194) rotate(-78.48)" fill="#12263f" font-size="16" font-family="Roboto-Black, Roboto" font-weight="800"><tspan x="0" y="0">d</tspan></text>
      <text id="o-6" data-name="o" transform="matrix(0.145, -0.989, 0.989, 0.145, 648.064, 421.498)" fill="#12263f" font-size="16" font-family="Roboto-Black, Roboto" font-weight="800"><tspan x="0" y="0">o</tspan></text>
      <text id="_20" data-name="?" transform="translate(649.459 411.777) rotate(-84.631)" fill="#12263f" font-size="16" font-family="Roboto-Black, Roboto" font-weight="800"><tspan x="0" y="0">?</tspan></text>
      <text id="Organización" transform="translate(485.568 365.99)" fill="#12263f" font-size="18" font-family="Roboto-Bold, Roboto" font-weight="700"><tspan x="0" y="0">O</tspan><tspan y="0" letter-spacing="-0.008em">r</tspan><tspan y="0">ganización</tspan></text>
      <text id="Control" transform="translate(381.888 419.917)" fill="#12263f" font-size="18" font-family="Roboto-Bold, Roboto" font-weight="700"><tspan x="0" y="0">Cont</tspan><tspan y="0" letter-spacing="-0.016em">r</tspan><tspan y="0">ol</tspan></text>
      <text id="Planeación" transform="translate(354.15 365.81)" fill="#12263f" font-size="18" font-family="Roboto-Bold, Roboto" font-weight="700"><tspan x="0" y="0">Planeación</tspan></text>
      <g id="Grupo_145730" data-name="Grupo 145730">
        <g id="Grupo_145729" data-name="Grupo 145729" clip-path="url(#clip-path)">
          <line id="Línea_1023" data-name="Línea 1023" x1="278.653" transform="translate(1 289.555)" fill="none" stroke="#727997" stroke-linecap="round" stroke-linejoin="round" stroke-width="2" stroke-dasharray="5.288 5.288"/>
        </g>
      </g>
      <text id="Funciones-2" data-name="Funciones" transform="translate(666.68 481.921)" fill="#12263f" font-size="16" font-family="Roboto-Bold, Roboto" font-weight="700"><tspan x="0" y="0" letter-spacing="-0.01em">F</tspan><tspan y="0">unciones</tspan></text>
      <text id="Toma_de_decisiones" data-name="Toma de decisiones" transform="translate(666.68 505.921)" fill="#12263f" font-size="16" font-family="Roboto-Regular, Roboto"><tspan x="0" y="0" letter-spacing="-0.048em">T</tspan><tspan y="0">oma de decisiones</tspan></text>
      <text id="Mando" transform="translate(666.68 529.921)" fill="#12263f" font-size="16" font-family="Roboto-Regular, Roboto"><tspan x="0" y="0">Mando</tspan></text>
      <text id="Comunicación" transform="translate(666.68 553.921)" fill="#12263f" font-size="16" font-family="Roboto-Regular, Roboto"><tspan x="0" y="0">Comunicación</tspan></text>
      <text id="Supervisión" transform="translate(666.68 577.921)" fill="#12263f" font-size="16" font-family="Roboto-Regular, Roboto"><tspan x="0" y="0">Supe</tspan><tspan y="0" letter-spacing="0.009em">r</tspan><tspan y="0">visión</tspan></text>
      <text id="Delegación" transform="translate(666.68 601.921)" fill="#12263f" font-size="16" font-family="Roboto-Regular, Roboto"><tspan x="0" y="0">Delegación</tspan></text>
      <g id="Grupo_145732" data-name="Grupo 145732">
        <g id="Grupo_145731" data-name="Grupo 145731" clip-path="url(#clip-path)">
          <path id="Trazado_195969" data-name="Trazado 195969" d="M660.372,503.1l-2.138,1.124.409-2.381-1.73-1.685,2.39-.348,1.069-2.165,1.069,2.165,2.39.348-1.73,1.685.409,2.381Z" fill="#f40b74"/>
          <path id="Trazado_195970" data-name="Trazado 195970" d="M660.372,524.538l-2.138,1.124.409-2.381-1.73-1.685,2.39-.348,1.069-2.165,1.069,2.165,2.39.348-1.73,1.685.409,2.381Z" fill="#f40b74"/>
          <path id="Trazado_195971" data-name="Trazado 195971" d="M660.372,548.7l-2.138,1.124.409-2.381-1.73-1.685,2.39-.348,1.069-2.165,1.069,2.165,2.39.348-1.73,1.685.409,2.381Z" fill="#f40b74"/>
          <path id="Trazado_195972" data-name="Trazado 195972" d="M660.372,572.859l-2.138,1.124.409-2.381-1.73-1.685,2.39-.348,1.069-2.165,1.069,2.165,2.39.348L662.1,571.6l.409,2.381Z" fill="#f40b74"/>
          <path id="Trazado_195973" data-name="Trazado 195973" d="M660.372,598.305l-2.138,1.124.409-2.381-1.73-1.685,2.39-.348,1.069-2.165,1.069,2.165,2.39.348-1.73,1.685.409,2.381Z" fill="#f40b74"/>
          <line id="Línea_1024" data-name="Línea 1024" x1="278.653" transform="translate(657.903 294.167)" fill="none" stroke="#727997" stroke-linecap="round" stroke-linejoin="round" stroke-width="2" stroke-dasharray="5.288 5.288"/>
          <line id="Línea_1025" data-name="Línea 1025" x1="278.653" transform="translate(657.903 181.053)" fill="none" stroke="#727997" stroke-linecap="round" stroke-linejoin="round" stroke-width="2" stroke-dasharray="5.288 5.288"/>
        </g>
      </g>
    </g>
  </g>
</svg>
