<svg xmlns="http://www.w3.org/2000/svg" xmlns:xlink="http://www.w3.org/1999/xlink" width="615.044" height="582.528" viewBox="0 0 615.044 582.528">
  <defs>
    <clipPath id="clip-path">
      <rect id="Rectángulo_294717" data-name="Rectángulo 294717" width="86" height="86" fill="#206897"/>
    </clipPath>
  </defs>
  <g id="Grupo_146006" data-name="Grupo 146006" transform="translate(-493.978 -4187)">
    <g id="Grupo_145945" data-name="Grupo 145945">
      <path id="Trazado_191264" data-name="Trazado 191264" d="M3071.373,1898.194l-224.848,163.362,224.848,70.63,1.314-.408V1897.239Z" transform="translate(-2272.687 2357.381)" fill="#3eb9c6"/>
      <path id="Trazado_191265" data-name="Trazado 191265" d="M3157.976,1897.239v234.539l226.162-70.222Z" transform="translate(-2357.976 2357.381)" fill="#528aae"/>
      <path id="Trazado_191266" data-name="Trazado 191266" d="M3156.166,2194.152l141.09,195.24,86.387-265.87Z" transform="translate(-2357.48 2295.415)" fill="#3eb9c6"/>
      <path id="Trazado_191267" data-name="Trazado 191267" d="M2965.488,2416.027H3245.04l-141.09-195.24Z" transform="translate(-2305.265 2268.779)" fill="#ace1e7"/>
      <path id="Trazado_191268" data-name="Trazado 191268" d="M2846.524,2123.522l86.386,265.87h0l138.462-195.24Z" transform="translate(-2272.687 2295.415)" fill="#528aae"/>
    </g>
    <path id="Trazado_196435" data-name="Trazado 196435" d="M66.145,0A66.145,66.145,0,1,1,0,66.145,66.145,66.145,0,0,1,66.145,0Z" transform="translate(732.541 4423.422)" fill="#fff"/>
    <g id="Trazado_196436" data-name="Trazado 196436" transform="translate(730 4187)" fill="#fff">
      <path d="M 70.5 135.5 C 61.58411026000977 135.5 52.93760681152344 133.7673187255859 44.80065155029297 130.3500823974609 C 40.89008712768555 128.7077789306641 37.1181526184082 126.674934387207 33.58960723876953 124.3079986572266 C 30.09402084350586 121.9631958007812 26.80693435668945 119.2703247070312 23.81960868835449 116.30419921875 C 20.83284759521484 113.3386077880859 18.12145614624023 110.0757369995117 15.76076126098633 106.6062164306641 C 13.37860870361328 103.1051940917969 11.33284759521484 99.36299896240234 9.68026065826416 95.48356628417969 C 6.242891311645508 87.41434478759766 4.5 78.8404541015625 4.5 70 C 4.5 61.15954208374023 6.242891311645508 52.58565139770508 9.68026065826416 44.51643371582031 C 11.33284759521484 40.63700103759766 13.37860870361328 36.89480590820312 15.76076126098633 33.39378356933594 C 18.12145614624023 29.92426109313965 20.83284759521484 26.66139221191406 23.81960868835449 23.69580459594727 C 26.80693435668945 20.72967338562012 30.09402084350586 18.03680419921875 33.58960723876953 15.69200038909912 C 37.1181526184082 13.32506561279297 40.89008712768555 11.29221725463867 44.80065155029297 9.64991283416748 C 52.93760681152344 6.232674121856689 61.58411026000977 4.5 70.5 4.5 C 79.4158935546875 4.5 88.06239318847656 6.232674121856689 96.19934844970703 9.64991283416748 C 100.1099166870117 11.29221725463867 103.8818511962891 13.32506561279297 107.4103927612305 15.69200038909912 C 110.9059753417969 18.03680419921875 114.1930618286133 20.72967338562012 117.1803894042969 23.69580459594727 C 120.1671524047852 26.66139221191406 122.8785400390625 29.92426109313965 125.2392425537109 33.39378356933594 C 127.6213912963867 36.89480590820312 129.6671447753906 40.63700103759766 131.3197326660156 44.51643371582031 C 134.7571105957031 52.58565139770508 136.5 61.15954208374023 136.5 70 C 136.5 78.8404541015625 134.7571105957031 87.41434478759766 131.3197326660156 95.48356628417969 C 129.6671447753906 99.36299896240234 127.6213912963867 103.1051940917969 125.2392425537109 106.6062164306641 C 122.8785400390625 110.0757369995117 120.1671524047852 113.3386077880859 117.1803894042969 116.30419921875 C 114.1930618286133 119.2703247070312 110.9059753417969 121.9631958007812 107.4103927612305 124.3079986572266 C 103.8818511962891 126.674934387207 100.1099166870117 128.7077789306641 96.19934844970703 130.3500823974609 C 88.06239318847656 133.7673187255859 79.4158935546875 135.5 70.5 135.5 Z" stroke="none"/>
      <path d="M 70.5 9 C 36.58879089355469 9 9 36.36447143554688 9 70 C 9 103.6355285644531 36.58879089355469 131 70.5 131 C 104.4112091064453 131 132 103.6355285644531 132 70 C 132 36.36447143554688 104.4112091064453 9 70.5 9 M 70.5 0 C 109.4360809326172 0 141 31.34008026123047 141 70 C 141 108.6599197387695 109.4360809326172 140 70.5 140 C 31.56391906738281 140 0 108.6599197387695 0 70 C 0 31.34008026123047 31.56391906738281 0 70.5 0 Z" stroke="none" fill="#206897"/>
    </g>
    <g id="Trazado_196434" data-name="Trazado 196434" transform="translate(718.162 4305.18)" fill="#fdd7ae">
      <path d="M 139.009765625 37.90890884399414 L 18.66536331176758 37.90890884399414 C 16.0767822265625 37.90890884399414 13.56536293029785 37.40180969238281 11.20086288452148 36.40171051025391 C 8.917282104492188 35.43584823608398 6.866542339324951 34.05323028564453 5.105562686920166 32.29225158691406 C 3.344602584838867 30.53129005432129 1.961982607841492 28.48052978515625 0.9961025714874268 26.19694900512695 C -0.003977438900619745 23.83244895935059 -0.5110774636268616 21.32102966308594 -0.5110774636268616 18.73245048522949 L -0.5110774636268616 18.66536903381348 C -0.5110774636268616 16.07678985595703 -0.003977438900619745 13.56536960601807 0.9961025714874268 11.2008695602417 C 1.961982607841492 8.917289733886719 3.344602584838867 6.866549968719482 5.105562686920166 5.105569839477539 C 6.866542339324951 3.34460973739624 8.917282104492188 1.961989760398865 11.20086288452148 0.9961097836494446 C 13.56536293029785 -0.003970240708440542 16.0767822265625 -0.5110702514648438 18.66536331176758 -0.5110702514648438 L 139.009765625 -0.5110702514648438 C 141.5983428955078 -0.5110702514648438 144.1097564697266 -0.003970240708440542 146.4742584228516 0.9961097836494446 C 148.7578430175781 1.961989760398865 150.8085784912109 3.34460973739624 152.5695648193359 5.105569839477539 C 154.3305206298828 6.866549968719482 155.7131500244141 8.917289733886719 156.6790161132812 11.2008695602417 C 157.6791076660156 13.56536960601807 158.1862030029297 16.07678985595703 158.1862030029297 18.66536903381348 L 158.1862030029297 18.73245048522949 C 158.1862030029297 21.32102966308594 157.6791076660156 23.83244895935059 156.6790161132812 26.19694900512695 C 155.7131500244141 28.48052978515625 154.3305206298828 30.53129005432129 152.5695648193359 32.29225158691406 C 150.8085784912109 34.05323028564453 148.7578430175781 35.43584823608398 146.4742584228516 36.40171051025391 C 144.1097564697266 37.40180969238281 141.5983428955078 37.90890884399414 139.009765625 37.90890884399414 Z" stroke="none"/>
      <path d="M 18.66535949707031 -1.1444091796875e-05 C 8.356765747070312 -1.1444091796875e-05 0 8.356769561767578 0 18.66536903381348 L 0 18.73245048522949 C 0 29.04104995727539 8.356765747070312 37.39780807495117 18.66535949707031 37.39780807495117 L 139.009765625 37.39780807495117 C 149.318359375 37.39780807495117 157.6751251220703 29.04104995727539 157.6751251220703 18.73245048522949 L 157.6751251220703 18.66536903381348 C 157.6751251220703 8.356769561767578 149.318359375 -1.1444091796875e-05 139.009765625 -1.1444091796875e-05 L 18.66535949707031 -1.1444091796875e-05 M 18.66535949707031 -1.022171020507812 L 139.009765625 -1.022171020507812 C 141.6670989990234 -1.022171020507812 144.2455291748047 -0.5014915466308594 146.67333984375 0.525390625 C 149.0178375244141 1.51702880859375 151.1231994628906 2.936450958251953 152.9309387207031 4.744190216064453 C 154.7386779785156 6.551929473876953 156.1580810546875 8.657289505004883 157.1497192382812 11.00178909301758 C 158.1766052246094 13.42960929870605 158.6972808837891 16.00802993774414 158.6972808837891 18.66536903381348 L 158.6972808837891 18.73245048522949 C 158.6972808837891 21.38978958129883 158.1766052246094 23.96821022033691 157.1497192382812 26.39603042602539 C 156.1580810546875 28.74053001403809 154.7386779785156 30.84589004516602 152.9309387207031 32.65362930297852 C 151.1231994628906 34.46136856079102 149.0178375244141 35.88076782226562 146.67333984375 36.87240982055664 C 144.2455291748047 37.89928817749023 141.6670989990234 38.41997146606445 139.009765625 38.41997146606445 L 18.66535949707031 38.41997146606445 C 16.00802612304688 38.41997146606445 13.42959594726562 37.89928817749023 11.00178527832031 36.87240982055664 C 8.65728759765625 35.88076782226562 6.551925659179688 34.46136856079102 4.744186401367188 32.65362930297852 C 2.936447143554688 30.84589004516602 1.517044067382812 28.74053001403809 0.5254058837890625 26.39603042602539 C -0.5014801025390625 23.96821022033691 -1.02215576171875 21.38978958129883 -1.02215576171875 18.73245048522949 L -1.02215576171875 18.66536903381348 C -1.02215576171875 16.00802993774414 -0.5014801025390625 13.42960929870605 0.5254058837890625 11.00178909301758 C 1.517044067382812 8.657289505004883 2.936447143554688 6.551929473876953 4.744186401367188 4.744190216064453 C 6.551925659179688 2.936450958251953 8.65728759765625 1.51702880859375 11.00178527832031 0.525390625 C 13.42959594726562 -0.5014915466308594 16.00802612304688 -1.022171020507812 18.66535949707031 -1.022171020507812 Z" stroke="none" fill="#faa141"/>
    </g>
    <path id="Trazado_196437" data-name="Trazado 196437" d="M-37.555-4.008V0H-39.9V-11.375h4.438a5.134,5.134,0,0,1,2.254.469,3.454,3.454,0,0,1,1.5,1.332,3.714,3.714,0,0,1,.523,1.965,3.266,3.266,0,0,1-1.145,2.637,4.767,4.767,0,0,1-3.168.965Zm0-1.9h2.094a2.059,2.059,0,0,0,1.418-.437,1.591,1.591,0,0,0,.488-1.25,1.876,1.876,0,0,0-.492-1.352,1.839,1.839,0,0,0-1.359-.531h-2.148Zm12.578-.43a6.134,6.134,0,0,0-.812-.062,1.654,1.654,0,0,0-1.68.867V0h-2.258V-8.453h2.133l.063,1.008a2.092,2.092,0,0,1,1.883-1.164,2.366,2.366,0,0,1,.7.1Zm.453,2.031a5.013,5.013,0,0,1,.484-2.242A3.546,3.546,0,0,1-22.645-8.07a4.069,4.069,0,0,1,2.113-.539,3.849,3.849,0,0,1,2.793,1.047,4.2,4.2,0,0,1,1.207,2.844l.016.578A4.418,4.418,0,0,1-17.6-1.02,3.775,3.775,0,0,1-20.516.156a3.793,3.793,0,0,1-2.918-1.172A4.5,4.5,0,0,1-24.523-4.2Zm2.258.16A3.16,3.16,0,0,0-21.812-2.3a1.5,1.5,0,0,0,1.3.638,1.5,1.5,0,0,0,1.281-.63,3.457,3.457,0,0,0,.461-2.015,3.128,3.128,0,0,0-.461-1.831,1.5,1.5,0,0,0-1.3-.649,1.474,1.474,0,0,0-1.281.646A3.516,3.516,0,0,0-22.266-4.144Zm6.789-.145a5.094,5.094,0,0,1,.887-3.148,2.877,2.877,0,0,1,2.426-1.172,2.589,2.589,0,0,1,2.039.922V-12h2.266V0H-9.9l-.109-.9A2.657,2.657,0,0,1-12.18.156,2.869,2.869,0,0,1-14.574-1.02,5.258,5.258,0,0,1-15.477-4.289Zm2.258.168A3.337,3.337,0,0,0-12.8-2.3a1.349,1.349,0,0,0,1.2.634,1.511,1.511,0,0,0,1.477-.884V-5.889a1.489,1.489,0,0,0-1.461-.884Q-13.219-6.773-13.219-4.121ZM-1.047-.859A2.831,2.831,0,0,1-3.359.156,2.67,2.67,0,0,1-5.434-.625a3.335,3.335,0,0,1-.73-2.289V-8.453h2.258v5.467q0,1.322,1.2,1.322a1.63,1.63,0,0,0,1.578-.8V-8.453H1.141V0H-.984Zm7.406-.8a1.481,1.481,0,0,0,1.016-.344,1.2,1.2,0,0,0,.406-.914H9.9A2.9,2.9,0,0,1,9.43-1.348,3.093,3.093,0,0,1,8.168-.238,3.949,3.949,0,0,1,6.4.156,3.67,3.67,0,0,1,3.539-1,4.56,4.56,0,0,1,2.492-4.18v-.148A4.508,4.508,0,0,1,3.531-7.445,3.627,3.627,0,0,1,6.383-8.609a3.555,3.555,0,0,1,2.543.9A3.2,3.2,0,0,1,9.9-5.3H7.781a1.551,1.551,0,0,0-.406-1.072,1.354,1.354,0,0,0-1.031-.412,1.36,1.36,0,0,0-1.191.575,3.333,3.333,0,0,0-.4,1.866v.235a3.375,3.375,0,0,0,.4,1.878A1.377,1.377,0,0,0,6.359-1.664Zm8.344,0a1.481,1.481,0,0,0,1.016-.344,1.2,1.2,0,0,0,.406-.914h2.117a2.9,2.9,0,0,1-.469,1.574A3.093,3.093,0,0,1,16.512-.238a3.949,3.949,0,0,1-1.77.395A3.67,3.67,0,0,1,11.883-1,4.56,4.56,0,0,1,10.836-4.18v-.148a4.508,4.508,0,0,1,1.039-3.117,3.627,3.627,0,0,1,2.852-1.164,3.555,3.555,0,0,1,2.543.9,3.2,3.2,0,0,1,.973,2.4H16.125a1.551,1.551,0,0,0-.406-1.072,1.354,1.354,0,0,0-1.031-.412,1.36,1.36,0,0,0-1.191.575,3.333,3.333,0,0,0-.4,1.866v.235a3.375,3.375,0,0,0,.4,1.878A1.377,1.377,0,0,0,14.7-1.664ZM21.914,0H19.648V-8.453h2.266Zm-2.4-10.641a1.112,1.112,0,0,1,.34-.836,1.277,1.277,0,0,1,.926-.328,1.28,1.28,0,0,1,.922.328,1.105,1.105,0,0,1,.344.836A1.108,1.108,0,0,1,21.7-9.8a1.283,1.283,0,0,1-.918.328,1.283,1.283,0,0,1-.918-.328A1.108,1.108,0,0,1,19.516-10.641ZM23.422-4.3a5.013,5.013,0,0,1,.484-2.242A3.546,3.546,0,0,1,25.3-8.07a4.069,4.069,0,0,1,2.113-.539,3.849,3.849,0,0,1,2.793,1.047,4.2,4.2,0,0,1,1.207,2.844l.016.578A4.418,4.418,0,0,1,30.344-1.02,3.775,3.775,0,0,1,27.43.156a3.793,3.793,0,0,1-2.918-1.172A4.5,4.5,0,0,1,23.422-4.2Zm2.258.16A3.16,3.16,0,0,0,26.133-2.3a1.5,1.5,0,0,0,1.3.638,1.5,1.5,0,0,0,1.281-.63,3.457,3.457,0,0,0,.461-2.015,3.128,3.128,0,0,0-.461-1.831,1.5,1.5,0,0,0-1.3-.649,1.474,1.474,0,0,0-1.281.646A3.516,3.516,0,0,0,25.68-4.144ZM27.859-12H30.32L28.156-9.578H26.32ZM34.9-8.453l.07.977A2.951,2.951,0,0,1,37.4-8.609a2.453,2.453,0,0,1,2,.789,3.682,3.682,0,0,1,.672,2.359V0H37.813V-5.406A1.465,1.465,0,0,0,37.5-6.449a1.4,1.4,0,0,0-1.039-.324,1.553,1.553,0,0,0-1.43.813V0H32.773V-8.453Z" transform="translate(798.966 4330.495)"/>
    <g id="Grupo_144829" data-name="Grupo 144829" transform="translate(4421.392 11710.908)">
      <path id="Trazado_193970" data-name="Trazado 193970" d="M562.605,259.056a1.445,1.445,0,1,1-1.445,1.445,1.445,1.445,0,0,1,1.445-1.445" transform="translate(-4190.226 -7707.155)" fill="#206897"/>
      <path id="Trazado_193971" data-name="Trazado 193971" d="M562.605,290.268a1.445,1.445,0,1,1-1.445,1.445,1.445,1.445,0,0,1,1.445-1.445" transform="translate(-4190.226 -7732.586)" fill="#206897"/>
      <path id="Trazado_193972" data-name="Trazado 193972" d="M562.605,321.479a1.445,1.445,0,1,1-1.445,1.445,1.445,1.445,0,0,1,1.445-1.445" transform="translate(-4190.226 -7758.016)" fill="#206897"/>
      <path id="Trazado_193973" data-name="Trazado 193973" d="M562.605,352.69a1.445,1.445,0,1,1-1.445,1.445,1.445,1.445,0,0,1,1.445-1.445" transform="translate(-4190.226 -7783.447)" fill="#206897"/>
      <path id="Trazado_193974" data-name="Trazado 193974" d="M725.887,260.5a1.445,1.445,0,0,0-1.445-1.445h-5.781a1.445,1.445,0,0,0-1.445,1.445v5.781a1.445,1.445,0,0,0,1.445,1.445h5.781a1.445,1.445,0,0,0,1.445-1.445ZM723,264.837h-2.891v-2.89H723Z" transform="translate(-4317.378 -7707.155)" fill="#206897"/>
      <path id="Trazado_193975" data-name="Trazado 193975" d="M724.442,321.479h-5.781a1.445,1.445,0,0,0-1.445,1.445V328.7a1.445,1.445,0,0,0,1.445,1.445h5.781a1.445,1.445,0,0,0,1.445-1.445v-5.781a1.445,1.445,0,0,0-1.445-1.445M723,327.26h-2.891v-2.89H723Z" transform="translate(-4317.378 -7758.016)" fill="#206897"/>
      <path id="Trazado_193976" data-name="Trazado 193976" d="M663.465,260.5a1.445,1.445,0,0,0-1.445-1.445h-5.781a1.445,1.445,0,0,0-1.445,1.445v5.781a1.445,1.445,0,0,0,1.445,1.445h5.781a1.445,1.445,0,0,0,1.445-1.445Zm-2.89,4.336h-2.89v-2.89h2.89Z" transform="translate(-4266.517 -7707.155)" fill="#206897"/>
      <path id="Trazado_193977" data-name="Trazado 193977" d="M662.02,321.479h-5.781a1.445,1.445,0,0,0-1.445,1.445V328.7a1.445,1.445,0,0,0,1.445,1.445h5.781a1.445,1.445,0,0,0,1.445-1.445v-5.781a1.445,1.445,0,0,0-1.445-1.445m-1.445,5.781h-2.89v-2.89h2.89Z" transform="translate(-4266.517 -7758.016)" fill="#206897"/>
      <path id="Trazado_193978" data-name="Trazado 193978" d="M601.042,260.5a1.445,1.445,0,0,0-1.445-1.445h-5.781a1.445,1.445,0,0,0-1.445,1.445v5.781a1.445,1.445,0,0,0,1.445,1.445H599.6a1.445,1.445,0,0,0,1.445-1.445Zm-2.89,4.336h-2.891v-2.89h2.891Z" transform="translate(-4215.656 -7707.155)" fill="#206897"/>
      <path id="Trazado_193979" data-name="Trazado 193979" d="M599.6,321.479h-5.781a1.445,1.445,0,0,0-1.445,1.445V328.7a1.445,1.445,0,0,0,1.445,1.445H599.6a1.445,1.445,0,0,0,1.445-1.445v-5.781a1.445,1.445,0,0,0-1.445-1.445m-1.445,5.781h-2.891v-2.89h2.891Z" transform="translate(-4215.656 -7758.016)" fill="#206897"/>
      <path id="Trazado_193980" data-name="Trazado 193980" d="M781.083,305.873a1.445,1.445,0,1,1-1.445,1.445,1.445,1.445,0,0,1,1.445-1.445" transform="translate(-4368.238 -7745.301)" fill="#206897"/>
      <path id="Trazado_193981" data-name="Trazado 193981" d="M469.157,42.492l-5.425-4.069L461.057,9.984a1.445,1.445,0,0,0-1.439-1.31h-1.445V7.229a7.226,7.226,0,0,0-13.12-4.179,5.777,5.777,0,0,0-6.366,2.782,5.791,5.791,0,0,0-4.139,1.052,7.229,7.229,0,1,0-1.774,13.05,5.777,5.777,0,0,0,10.458-.264,10.182,10.182,0,0,0,3.38.566,9.934,9.934,0,0,0,4.925-1.269c0,.022.006.045.01.067-.161,1.431-1.545,16.241-1.663,17.675l-3.851-2.888a1.445,1.445,0,0,0-2.312,1.156v5.781l-9.249-6.937a1.445,1.445,0,0,0-2.312,1.156v5.781l-2.89-2.168V28.329a4.34,4.34,0,0,0-4.336-4.335H412.505a4.34,4.34,0,0,0-4.335,4.335v2.458a7.238,7.238,0,0,0-5.781,7.081v15.9h-5.2a1.445,1.445,0,0,0-1.445,1.445V72.551A1.445,1.445,0,0,0,397.186,74h71.1a1.445,1.445,0,0,0,1.445-1.445V64.6a1.445,1.445,0,1,0-2.89,0v6.5H423.489V37.867l9.249,6.937a1.445,1.445,0,0,0,2.312-1.156V37.867L444.3,44.8a1.445,1.445,0,0,0,2.312-1.156V37.867l9.249,6.937a1.445,1.445,0,0,0,2.312-1.156V37.867l8.671,6.5V51.6a1.445,1.445,0,0,0,2.89,0V43.648a1.445,1.445,0,0,0-.578-1.156m-63.877-4.625a4.336,4.336,0,1,1,8.671,0v15.9h-8.671Zm8.671,33.239h-8.671V62.435h8.671Zm6.648,0h-3.757V60.99a1.445,1.445,0,0,0-1.445-1.445H403.834a1.445,1.445,0,0,0-1.445,1.445V71.106h-3.758V56.654H420.6Zm5.781-34.684-3.468-2.6a1.446,1.446,0,0,0-2.312,1.156V53.764h-3.757v-15.9a7.238,7.238,0,0,0-5.781-7.081V28.329a1.447,1.447,0,0,1,1.445-1.445h12.429a1.447,1.447,0,0,1,1.445,1.445Zm33.011-13.3h-5.324l.272-2.89h4.781ZM458.3,11.565l.544,5.781H454.61l.544-5.781Zm-6.341,3.067a6.064,6.064,0,0,1-5.35,2.714,7.141,7.141,0,0,1-2.922-.605,5.789,5.789,0,0,0-5.749-5.176,1.445,1.445,0,1,0,0,2.89,2.892,2.892,0,0,1,2.885,3.061c0,.007,0,.014,0,.02a2.89,2.89,0,0,1-5.774-.191,1.445,1.445,0,0,0-2.866-.257,4.335,4.335,0,1,1,1.47-7.266,1.445,1.445,0,0,0,2.083-.128,2.9,2.9,0,0,1,3.27-.819,1.446,1.446,0,0,0,1.925-.964,2.891,2.891,0,0,1,5.68.762,1.445,1.445,0,1,0,2.89,0,5.754,5.754,0,0,0-1.859-4.249,4.334,4.334,0,0,1,7.64,2.8V8.674h-1.445a1.445,1.445,0,0,0-1.439,1.31ZM457.6,33.82a1.445,1.445,0,0,0-2.312,1.156v5.781L452.6,38.743l1.2-12.726h5.868l.946,10.064Z" transform="translate(-4055.444 -7496.082)" fill="#206897"/>
    </g>
    <g id="Grupo_145940" data-name="Grupo 145940">
      <g id="Elipse_6047" data-name="Elipse 6047" transform="translate(956 4350)" fill="#fff" stroke="#206897" stroke-width="9">
        <ellipse cx="70.5" cy="70" rx="70.5" ry="70" stroke="none"/>
        <ellipse cx="70.5" cy="70" rx="66" ry="65.5" fill="none"/>
      </g>
      <g id="Grupo_144830" data-name="Grupo 144830" transform="translate(4644.707 11779.28)">
        <path id="Trazado_193982" data-name="Trazado 193982" d="M459.671,535.84l-8.494-3.536v-2.276a6.108,6.108,0,0,0,5.393-6.058v-7.014h.477a2.381,2.381,0,0,0,2.378-2.378v-2.784a2.381,2.381,0,0,0-1.927-2.334,9.267,9.267,0,0,0-7.816-7.846,2.34,2.34,0,0,0-2.248-2.358h-2.748a2.341,2.341,0,0,0-2.248,2.358,9.267,9.267,0,0,0-7.816,7.846,2.381,2.381,0,0,0-1.927,2.334v2.784a2.381,2.381,0,0,0,2.378,2.378h.477v7.014a6.108,6.108,0,0,0,5.393,6.058V532.3l-5.026,2.092-.748-2.983a8.84,8.84,0,0,0-5.082-5.9l-1.005-.418a1.348,1.348,0,0,0-1.037,2.49l1.005.419a5.985,5.985,0,0,1,1.515.915,14.105,14.105,0,0,0-2.686,8.281v2.156H415.824v-8.144l4.489-6.846,2.358.982a1.349,1.349,0,1,0,1.037-2.49l-2.56-1.066v-4.094a8.069,8.069,0,0,0,7.617-8.047v-1.421a6.9,6.9,0,0,0,3.286-11.873,2.79,2.79,0,0,0,.747-1.9v-3.005a2.8,2.8,0,0,0-2.662-2.8,12.582,12.582,0,0,0-11.1-11.092v-.645a2.622,2.622,0,0,0-2.619-2.619h-3.88a2.622,2.622,0,0,0-2.619,2.619v.645a12.576,12.576,0,0,0-11.1,11.092,2.8,2.8,0,0,0-2.662,2.8v3.005a2.789,2.789,0,0,0,.747,1.9,6.9,6.9,0,0,0,3.285,11.873v1.421a8.069,8.069,0,0,0,7.617,8.047v4.094l-8.939,3.722a8.82,8.82,0,0,0-5.082,5.9l-.748,2.985-5.026-2.092v-2.276a6.108,6.108,0,0,0,5.393-6.058v-7.014a2.525,2.525,0,0,0,2.855-2.378v-2.784a2.381,2.381,0,0,0-1.927-2.334,9.268,9.268,0,0,0-7.816-7.845V501.5a2.251,2.251,0,0,0-2.249-2.248h-2.747a2.251,2.251,0,0,0-2.249,2.248v.113a9.232,9.232,0,0,0-3.159,1.064,1.349,1.349,0,1,0,1.313,2.356,6.516,6.516,0,0,1,1.846-.684v5.063H374.2q.037-.175.083-.348a1.349,1.349,0,0,0-2.606-.7,9.225,9.225,0,0,0-.219,1.089,2.382,2.382,0,0,0-1.928,2.334v2.784a2.52,2.52,0,0,0,2.855,2.378v7.014a6.108,6.108,0,0,0,5.393,6.058V532.3l-8.494,3.535a1.349,1.349,0,0,0-.83,1.245v21.628a1.348,1.348,0,0,0,2.7,0v-5.435h10.4v5.435a1.348,1.348,0,0,0,2.7,0v-5.435H388.3l-1.279,5.107a1.349,1.349,0,0,0,.98,1.636,1.363,1.363,0,0,0,.329.041,1.349,1.349,0,0,0,1.307-1.021l6.759-26.975a5.887,5.887,0,0,1,.283-.846,11.406,11.406,0,0,1,1.693,5.977v21.517a1.348,1.348,0,0,0,2.7,0v-8.231h12.055v8.231a1.348,1.348,0,0,0,2.7,0v-8.231h12.054v8.231a1.348,1.348,0,0,0,2.7,0V537.2a11.406,11.406,0,0,1,1.693-5.977,5.932,5.932,0,0,1,.284.848l6.758,26.974a1.349,1.349,0,0,0,2.616-.656l-1.279-5.106h4.063v5.435a1.348,1.348,0,0,0,2.7,0v-5.435h10.4v5.434a1.348,1.348,0,0,0,2.7,0V537.085a1.348,1.348,0,0,0-.83-1.245m-69.2,8.77H384.24v-3.59l3.061-6.089,5.071,2.111Zm-5.163-12.755h-4.841V530.07h4.841Zm-.839,2.7-1.582,3.146-1.582-3.146Zm7.114-25.137h-5.074v-5.064a6.57,6.57,0,0,1,5.074,5.064m-9.621-7.463h1.851v7.463h-1.851Zm-9.744,10.16h21.338v2.147H372.223Zm2.855,11.858v-7.014h6.465V518.8a1.348,1.348,0,1,0,2.7,0v-1.846h6.465v7.014a3.407,3.407,0,0,1-3.4,3.4h-8.821a3.408,3.408,0,0,1-3.4-3.4m3.4,10.961,3.061,6.089v3.59h-10.4v-6.626Zm-7.335,12.376h10.4v3.275h-10.4Zm13.093,3.275v-3.275h5.56l-.82,3.275Zm30.235-22.236-2.826-4.31H417.3Zm3.974-7.008H410.5v-3.632h7.949Zm10.314-15.9v-7.961a4.2,4.2,0,0,1,0,7.961M423.639,482.2l-1.309.882a1.349,1.349,0,1,0,1.507,2.237l1.732-1.167a9.756,9.756,0,0,1,1.848,4.5h-8.382v-8.368a9.756,9.756,0,0,1,4.6,1.918m-11.027-5.2h3.726v11.652h-3.726Zm-9.23,7.153,1.732,1.166a1.348,1.348,0,1,0,1.507-2.237l-1.307-.88a9.777,9.777,0,0,1,4.6-1.918v8.367h-8.382a9.749,9.749,0,0,1,1.848-4.5m-4.424,10.413a.106.106,0,0,1-.106-.106v-3.005a.106.106,0,0,1,.106-.106h31.034a.106.106,0,0,1,.106.106v3.005a.106.106,0,0,1-.106.106Zm-1.625,6.9a4.21,4.21,0,0,1,2.854-3.981v7.961a4.21,4.21,0,0,1-2.854-3.981m5.551,8.187v-12.39h23.182v12.39a5.368,5.368,0,0,1-5.363,5.362H408.247a5.368,5.368,0,0,1-5.362-5.362m-4.5,19.268A5.987,5.987,0,0,1,399.9,528l8.737-3.638,4.489,6.846v8.144H401.073V537.2a14.1,14.1,0,0,0-2.686-8.281m2.687,13.134h12.054v5.737H401.073Zm26.805,5.737H415.824v-5.737h12.054ZM446.06,537.7l-1.582-3.146h3.163Zm2.42-5.843h-4.841V530.07h4.841Zm6.275-22.439h-5.074v-5.064a6.571,6.571,0,0,1,5.074,5.064m-9.621-7.463h1.851v7.463h-1.851Zm-2.7,2.4v5.063h-5.074a6.572,6.572,0,0,1,5.074-5.063m-7.047,7.76h21.338v2.147H435.391Zm2.855,11.858v-7.014h6.465V518.8a1.348,1.348,0,1,0,2.7,0v-1.846h6.465v7.014a3.407,3.407,0,0,1-3.4,3.4h-8.821a3.407,3.407,0,0,1-3.4-3.4m3.4,10.961,3.061,6.089v3.59h-6.235l-1.9-7.568Zm-1.678,15.651-.821-3.275h5.56v3.275Zm7.436,0v-3.275h2.1a1.348,1.348,0,1,0,0-2.7h-2.1v-3.59l3.061-6.089,7.335,3.053v6.626h-2.016a1.348,1.348,0,0,0,0,2.7H457.8v3.275h-10.4Z" transform="translate(-4033.208 -7882.53)" fill="#206897"/>
        <path id="Trazado_193983" data-name="Trazado 193983" d="M772.159,732.534a3.716,3.716,0,0,0,3.355-2.136,1.348,1.348,0,0,0-2.444-1.141,1.006,1.006,0,0,1-1.823,0A1.348,1.348,0,0,0,768.8,730.4,3.716,3.716,0,0,0,772.159,732.534Z" transform="translate(-4359.307 -8089.634)" fill="#206897"/>
        <path id="Trazado_193984" data-name="Trazado 193984" d="M611.019,613.416a1.348,1.348,0,0,0,1.348-1.348v-4.339a1.348,1.348,0,0,0-2.7,0v4.339a1.348,1.348,0,0,0,1.348,1.348" transform="translate(-4229.751 -7990.15)" fill="#206897"/>
        <path id="Trazado_193985" data-name="Trazado 193985" d="M597.762,657.1A4.691,4.691,0,0,0,602,654.4a1.348,1.348,0,0,0-2.444-1.141,1.977,1.977,0,0,1-3.582,0,1.348,1.348,0,0,0-2.444,1.141,4.691,4.691,0,0,0,4.235,2.7" transform="translate(-4216.495 -8027.712)" fill="#206897"/>
        <path id="Trazado_193986" data-name="Trazado 193986" d="M431.106,732.534a3.716,3.716,0,0,0,3.355-2.136,1.348,1.348,0,0,0-2.444-1.141,1.006,1.006,0,0,1-1.823,0,1.348,1.348,0,0,0-2.444,1.141,3.716,3.716,0,0,0,3.355,2.136" transform="translate(-4081.422 -8089.634)" fill="#206897"/>
      </g>
    </g>
    <g id="Grupo_145941" data-name="Grupo 145941">
      <g id="Elipse_6046" data-name="Elipse 6046" transform="translate(868 4615)" fill="#fff" stroke="#206897" stroke-width="9">
        <ellipse cx="70.5" cy="70" rx="70.5" ry="70" stroke="none"/>
        <ellipse cx="70.5" cy="70" rx="66" ry="65.5" fill="none"/>
      </g>
      <g id="Grupo_144822" data-name="Grupo 144822" transform="translate(901.927 4639)">
        <path id="Trazado_193948" data-name="Trazado 193948" d="M1562.549,816.22a1.242,1.242,0,0,0,1.709.407l6.733-4.142a1.242,1.242,0,1,0-1.3-2.115l-6.733,4.142a1.242,1.242,0,0,0-.408,1.709" transform="translate(-1495.574 -795.903)" fill="#206897"/>
        <path id="Trazado_193949" data-name="Trazado 193949" d="M1609.223,895.184l-9.871-.959a1.242,1.242,0,1,0-.24,2.472l9.87.959c.041,0,.082.006.122.006a1.242,1.242,0,0,0,.119-2.478" transform="translate(-1525.551 -866.614)" fill="#206897"/>
        <path id="Trazado_193950" data-name="Trazado 193950" d="M1527.533,731.743a1.238,1.238,0,0,0,1.608-.707l3.595-9.243a1.242,1.242,0,0,0-2.315-.9l-3.6,9.243a1.242,1.242,0,0,0,.708,1.608" transform="translate(-1465.597 -720.101)" fill="#206897"/>
        <path id="Trazado_193951" data-name="Trazado 193951" d="M1194.243,743.1a2.884,2.884,0,0,0-3.964-.939l-1.486.917a2.88,2.88,0,0,0-.939,3.964l.854,1.384-19.531,24.18-4.125,2.545a1.242,1.242,0,0,0,1.3,2.114l3.248-2,6.33,10.26a5.074,5.074,0,0,0-2.656.556l-.044.023c-.111.059-.222.12-.33.187l-3.714,2.3a6.667,6.667,0,0,0-2.193,2.245l-.917,1.382-.674,1.015-.017-.006-.031-.014c-.052-.023-.1-.049-.154-.077l-.032-.017a1.889,1.889,0,0,1-.16-.107l-.032-.025a1.743,1.743,0,0,1-.136-.117l-.016-.015a1.916,1.916,0,0,1-.132-.145l-.026-.034a1.856,1.856,0,0,1-.117-.165l-5.368-8.7a1.806,1.806,0,0,1,.588-2.485l1.607-.991a1.242,1.242,0,1,0-1.3-2.114l-1.607.991a4.292,4.292,0,0,0-1.879,4.81l-1.195.737a3.411,3.411,0,0,0-1.11,4.689l3.032,4.913a3.384,3.384,0,0,0,2.114,1.526,3.432,3.432,0,0,0,.792.093,3.381,3.381,0,0,0,1.782-.509l1.2-.738a4.287,4.287,0,0,0,.817.585l-3.449,5.195-.813.555a1.5,1.5,0,0,0-1.645.189l-2.14,1.8a1.51,1.51,0,0,0-1.665.026c-.024.017-.048.034-.071.052l-12.048,9.511a2.9,2.9,0,0,0-1.11,2.291V818.8a2.922,2.922,0,0,0,2.918,2.918h19.709a2.9,2.9,0,0,0,2.275-1.091l1.634-2.033a1.5,1.5,0,0,0,.364-1.153l2.2-1.851a1.49,1.49,0,0,0,.456-.672l5.069,1.039a1.218,1.218,0,0,0,.227.025c.148,0,.3,0,.443,0a6.606,6.606,0,0,0,3.649-.88l5.106-3.041c.085.005.171.008.256.008a4.028,4.028,0,0,0,2.108-.6l4.1-2.508a4.052,4.052,0,0,0-.28-7.074,18.673,18.673,0,0,1-3.135-8.881,4.085,4.085,0,0,1-2.831-4.967,4.159,4.159,0,0,0-.542-.7l24.612-5.357.855,1.384a2.883,2.883,0,0,0,3.964.939l1.486-.917a2.881,2.881,0,0,0,.939-3.965ZM1160.7,793.355a.924.924,0,0,1-1.271-.3l-3.031-4.914a.925.925,0,0,1,.3-1.271l1.054-.65,4,6.484Zm3.342,25.721a.431.431,0,0,1-.338.162H1144a.434.434,0,0,1-.434-.434v-3.869a.432.432,0,0,1,.165-.341l11.3-8.921,10.185,11.948Zm2.526-3.692-8.934-10.481,1.323-1.113,8.867,10.538Zm12.175-2.4a4.525,4.525,0,0,1-2.656.524l-6.364-1.3a1.237,1.237,0,0,0-.45-.01l-7.812-9.282.708-.483h0l.035-.026c.027-.02.053-.04.078-.062l.036-.034c.025-.023.048-.047.071-.072l.027-.03c.028-.034.054-.068.078-.1l.007-.009.006-.008.006-.01,6.569-9.894c.014-.021.028-.043.041-.065a4.06,4.06,0,0,1,1.371-1.411l3.714-2.3c.069-.043.138-.081.209-.116.032-.016.064-.03.1-.045s.074-.034.112-.048.087-.034.131-.048l.069-.023c.054-.017.109-.033.164-.047h0a2.633,2.633,0,0,1,.606-.074h.013c.06,0,.118,0,.177.006l.057.005c.052,0,.1.01.156.018l.092.017a2.406,2.406,0,0,1,.234.056l.089.025c.04.014.078.029.116.044s.061.023.091.036.077.034.114.053l.083.043c.038.02.075.041.112.064l.074.048c.037.025.074.049.109.076s.043.034.063.05c.037.029.073.058.108.09a2.387,2.387,0,0,1,.44.527l.091.149,1.324,2.161,1.662,2.712.422.69a1.086,1.086,0,0,1,.1.2,1.159,1.159,0,0,1,.035.673,1.276,1.276,0,0,1-.584.793l-.747.457h0a1.275,1.275,0,0,1-.159.081l-.035.015a1.271,1.271,0,0,1-.163.054l-.02,0a1.289,1.289,0,0,1-.155.027l-.03,0a1.431,1.431,0,0,1-.166,0l-.031,0a1.313,1.313,0,0,1-.167-.021h0a1.242,1.242,0,0,1-.172-.05l-.015-.005a1.175,1.175,0,0,1-.322-.186h0a1.213,1.213,0,0,1-.134-.128l-.01-.012a1.08,1.08,0,0,1-.105-.143l-1.238-2.024a3.284,3.284,0,0,0-2.061-1.489,3.4,3.4,0,0,0-2.593.426,1.244,1.244,0,0,0-.576.888c-.014.106-.031.21-.05.313-.014.075-.03.149-.047.223-.005.025-.01.05-.016.074q-.033.14-.072.276a.1.1,0,0,1,0,.011,5.259,5.259,0,0,1-.586,1.32,0,0,0,0,0,0,0,5.833,5.833,0,0,1-1.972,1.889,1.242,1.242,0,1,0,1.291,2.123,9.1,9.1,0,0,0,1.61-1.236l5.187,8.18a5.147,5.147,0,0,0,4.316,2.342c.09,0,.181,0,.272-.01.035.065.072.129.11.193a4.085,4.085,0,0,0,.5.659Zm1.054-9.132v0c.021.058.043.115.067.173,0,.006.005.014.008.021.021.052.045.1.068.154.006.011.01.023.016.035.023.048.048.1.072.142.008.014.014.028.022.042.033.061.068.121.1.18.062.1.13.2.2.295l.077.1c.046.058.093.115.142.17.034.039.068.079.1.116s.056.055.083.082a4.09,4.09,0,0,0,.315.284l.034.027a4.03,4.03,0,0,0,.686.44,4.085,4.085,0,0,0-.439,1.352,2.638,2.638,0,0,1-2.051-1.192l-5.71-9.006a7.991,7.991,0,0,0,.607-1.752.928.928,0,0,1,.266.023.822.822,0,0,1,.516.369l1.238,2.024.006.008c.061.1.126.195.2.287.052.068.107.131.163.195.019.022.037.046.057.068,0,.011.006.022.008.033q.029.129.066.256c.008.025.015.049.022.074.03.1.063.191.1.284,0,.01.008.019.012.028.034.086.072.169.113.252.012.024.023.048.036.071.047.091.095.18.148.268a3.186,3.186,0,0,1,2.645,4.094m.793-14.783.417-.255a1.614,1.614,0,1,1,1.684,2.755l-.415.253-1.228-2Zm9.257,14.92a1.572,1.572,0,0,1,.45,2.869l-4.1,2.508a1.56,1.56,0,0,1-1.089.206c-.021,0-.043-.01-.066-.013l-.033-.006a1.562,1.562,0,0,1-1.17-1.216.077.077,0,0,0,0-.014,1.582,1.582,0,0,1,.417-1.394l.029-.029.056-.051c.019-.017.038-.034.059-.049l.045-.036c.037-.027.074-.053.113-.078l0,0,.815-.5a4.307,4.307,0,0,0,.422-.223l3.138-1.919a1.563,1.563,0,0,1,.917-.054m-2.858-5.445a1.614,1.614,0,0,1,1.537,2.834l-.739.452a4.116,4.116,0,0,0-.425.226l-3.122,1.908a1.619,1.619,0,0,1-1.685-.317h0c-.035-.032-.068-.065-.1-.1l-.025-.03c-.023-.027-.047-.054-.069-.083s-.059-.083-.086-.126-.052-.091-.074-.137c-.007-.015-.013-.03-.02-.045-.014-.032-.028-.064-.041-.1-.006-.017-.012-.034-.017-.052s-.02-.063-.029-.095-.009-.036-.013-.053-.014-.064-.02-.1l-.008-.051c0-.034-.008-.067-.01-.1,0-.016,0-.032,0-.048,0-.035,0-.07,0-.1,0-.016,0-.03,0-.045,0-.036.006-.071.01-.105,0-.015,0-.03.005-.045,0-.031.011-.062.018-.093a1.61,1.61,0,0,1,.517-.882c.011-.01.021-.021.032-.031s.03-.027.047-.04c.039-.022.078-.042.116-.065l4.03-2.464q.087-.053.171-.111m-1.93-4.956a1.614,1.614,0,0,1,.61,2.845c-.041.023-.082.046-.123.071l-3.112,1.9.031-.025c.06-.047.119-.095.175-.146.035-.031.068-.064.1-.1.051-.049.1-.1.149-.151.033-.035.064-.072.1-.108.045-.053.089-.106.13-.161.029-.038.058-.077.086-.117.039-.056.077-.114.114-.173.025-.041.051-.081.074-.122.036-.062.068-.126.1-.19.02-.041.042-.08.06-.122.032-.072.061-.145.089-.22.013-.036.029-.071.041-.107.038-.112.072-.225.1-.341s.047-.222.063-.333c.005-.036.008-.071.012-.107.009-.076.016-.152.021-.228,0-.041,0-.083,0-.124,0-.071,0-.142,0-.212,0-.042,0-.084-.007-.126-.005-.071-.013-.142-.023-.213-.005-.039-.01-.079-.016-.118-.014-.08-.031-.159-.05-.238-.006-.028-.012-.058-.019-.086-.029-.107-.061-.212-.1-.316-.008-.02-.017-.04-.025-.061-.027-.07-.054-.141-.085-.209l.286-.175a1.6,1.6,0,0,1,1.221-.192M1214.6,781.04a.4.4,0,0,1-.178.246l-1.486.917a.4.4,0,0,1-.546-.129l-15.645-25.356a1.242,1.242,0,1,0-2.113,1.3l13.408,21.73-28.865,6.284-7.645-12.391,18.562-22.98,1.5,2.431a1.242,1.242,0,1,0,2.114-1.3l-3.737-6.057a.4.4,0,0,1,.129-.546l1.486-.917a.4.4,0,0,1,.546.129l22.421,36.339a.394.394,0,0,1,.049.3" transform="translate(-1141.08 -738.3)" fill="#206897"/>
      </g>
    </g>
    <g id="Grupo_145944" data-name="Grupo 145944">
      <g id="Elipse_6045" data-name="Elipse 6045" transform="translate(590 4615)" fill="#fff" stroke="#206897" stroke-width="9">
        <ellipse cx="70.5" cy="70" rx="70.5" ry="70" stroke="none"/>
        <ellipse cx="70.5" cy="70" rx="66" ry="65.5" fill="none"/>
      </g>
      <g id="Grupo_144835" data-name="Grupo 144835" transform="translate(4359 11940.311)">
        <path id="Trazado_193992" data-name="Trazado 193992" d="M294.212,1366.052a1.327,1.327,0,1,0-.719,1.735,1.341,1.341,0,0,0,.719-1.735" transform="translate(-3970.641 -8608.454)" fill="#206897"/>
        <path id="Trazado_193993" data-name="Trazado 193993" d="M67.489,1146.984a1.329,1.329,0,0,0-1.145-.237l-11.168,2.874h-16.9a1.328,1.328,0,0,0-1.328,1.328v1.794h-.68c-2.311,0-3.294-1.416-4.432-3.056-.269-.388-1.862-2.443-1.862-2.443a8.982,8.982,0,0,0-7.07-3.413H15.377l-1.077-6.981h8.333l-.411,3.013a1.345,1.345,0,0,0,1.316,1.508H39.744a1.34,1.34,0,0,0,1.059-2.13l-5.366-7.092,3.109-7.528a1.328,1.328,0,0,0-1.228-1.835H27.235l.411-3.013a1.344,1.344,0,0,0-1.316-1.508H11.362a4.181,4.181,0,0,0-3.97-2.808,4.247,4.247,0,0,0-4.156,4.863l4.616,29.237H5.262a4.512,4.512,0,0,0-3.526,7.33,4.512,4.512,0,0,0,.941,7.68,4.51,4.51,0,0,0,1.428,6.016,4.512,4.512,0,0,0,3.685,7.12h4.746l.269,2.143a4.067,4.067,0,1,0,8.068-1.037l-.148-1.106h3.1a9.035,9.035,0,0,0,5.877-2.175l1.042-.893a6.377,6.377,0,0,1,4.148-1.535h2.054v2.041a1.328,1.328,0,0,0,1.328,1.328h17.08l11.331-.106A1.328,1.328,0,0,0,68,1175.034v-27A1.329,1.329,0,0,0,67.489,1146.984Zm-32.156-21.542-2.641,6.395a1.328,1.328,0,0,0,.168,1.308l4.213,5.569H25.059l1.813-13.272h8.461ZM24.4,1123.916c0,.006,0,.012,0,.018L23,1134.193H13.89l-2.047-13.272H24.808ZM5.861,1119.9a1.566,1.566,0,0,1,1.532-1.792c1.023,0,1.45.8,1.584,1.68l4.6,29.764H10.542Zm12.379,59.253a1.41,1.41,0,1,1-2.8.357l-.228-1.813h2.832Zm16.655-8.715a9.034,9.034,0,0,0-5.877,2.175l-1.042.893a6.377,6.377,0,0,1-4.148,1.535H7.79a1.858,1.858,0,0,1,0-3.716,1.328,1.328,0,0,0,0-2.656H6.59a1.858,1.858,0,0,1,0-3.716,1.328,1.328,0,0,0,0-2.656H4.514a1.858,1.858,0,1,1,0-3.716h.747a1.328,1.328,0,0,0,0-2.656,1.858,1.858,0,0,1,0-3.716H21.214a1.328,1.328,0,1,0,0-2.656H16.26l-.473-3.07H22.9a6.34,6.34,0,0,1,4.99,2.409s1.5,1.936,1.759,2.305c1.23,1.772,2.914,4.2,6.614,4.2h.68v15.044H34.894Zm30.453,3.275-8.674.081v-4.915a1.328,1.328,0,0,0-2.657,0v4.928H39.6v-21.535H54.016v4.922a1.328,1.328,0,0,0,2.657,0v-5.22l8.674-2.232Z" transform="translate(-3733 -8404.938)" fill="#206897"/>
      </g>
    </g>
    <g id="Grupo_145943" data-name="Grupo 145943">
      <g id="Elipse_6044" data-name="Elipse 6044" transform="translate(503 4349)" fill="#fff" stroke="#206897" stroke-width="9">
        <ellipse cx="70.5" cy="70" rx="70.5" ry="70" stroke="none"/>
        <ellipse cx="70.5" cy="70" rx="66" ry="65.5" fill="none"/>
      </g>
      <g id="Grupo_144834" data-name="Grupo 144834" transform="translate(4191 11621.107)">
        <path id="Trazado_193994" data-name="Trazado 193994" d="M486.882,1415.751a1.236,1.236,0,0,0-1.237,1.237v14.23a2.437,2.437,0,0,1-2.434,2.434H447.595v-3.635a3.163,3.163,0,0,0-.322-1.366,10.989,10.989,0,0,0,3.666-2.056h2.493a3.6,3.6,0,0,0,0-7.2h-1.177v-2.38c0-.028,0-.056,0-.084h1.178a3.6,3.6,0,0,0,0-7.2h-3.062a3.594,3.594,0,0,0-2.78,1.316c0-.043,0-.087,0-.13v-4.961a3.593,3.593,0,0,0,2.776,1.311h3.062a3.6,3.6,0,0,0,0-7.2h-1.176v-4.827h1.176a3.6,3.6,0,1,0,0-7.2H450.37a3.611,3.611,0,0,0-2.578,1.091,37.679,37.679,0,0,0-13.176-2.067c-1.547,0-3.1.071-4.6.211v-23.276a2.437,2.437,0,0,1,2.434-2.434h10.006a1.237,1.237,0,0,0,0-2.473H432.448a4.913,4.913,0,0,0-4.907,4.907v23.577c-5.9.893-10.563,2.947-10.563,6.085v5.735c-3.841,1.484-4.661,3.318-4.661,4.611v6.9c0,2.043,1.976,3.626,4.983,4.729a3.16,3.16,0,0,0-.322,1.366v6.9a3.119,3.119,0,0,0,.316,1.364c-4.07,1.482-4.977,3.357-4.977,4.731v6.9c0,4.114,7.755,6.07,14.4,6.494l.08,0a1.237,1.237,0,0,0,.078-2.471c-8.432-.538-12.08-2.926-12.08-4.026v-3.363c3.246,2.016,9.23,3.055,15.166,3.055s11.92-1.04,15.166-3.055v3.363c0,1.233-4.263,3.645-12.757,4.064a1.236,1.236,0,0,0,.06,2.471h.062c7.52-.371,15.108-2.536,15.108-6.534v-.8h35.616a4.913,4.913,0,0,0,4.907-4.907v-14.23a1.237,1.237,0,0,0-1.236-1.237m-41.051,10.785a37.621,37.621,0,0,1-11.214,1.508c-9.813,0-15.166-2.724-15.166-4.123v-3.363c3.246,2.016,9.231,3.055,15.166,3.055s11.92-1.039,15.166-3.055v3.363c0,.492-.832,1.6-3.952,2.615m-26.085-10.146a43.721,43.721,0,0,0,10.21,1.127c6.121,0,12.293-1.1,15.461-3.246,3.443,1.043,4.366,2.243,4.366,2.745s-.832,1.6-3.952,2.615a37.619,37.619,0,0,1-11.214,1.509c-9.813,0-15.166-2.724-15.166-4.123a1.063,1.063,0,0,1,.3-.626m-.3-19.178c3.246,2.016,9.231,3.055,15.166,3.055s11.92-1.039,15.166-3.055v3.363c0,.386-.515,1.152-2.253,1.957l-.013.006a15.587,15.587,0,0,1-1.686.652,37.624,37.624,0,0,1-11.214,1.509c-9.813,0-15.166-2.724-15.166-4.123Zm33.982,24.658a1.126,1.126,0,0,1,0,2.251h-1.183c0-.066.006-.133.006-.2v-2.051h1.177Zm-3.062-9.662h3.062a1.125,1.125,0,0,1,0,2.251h-2.359a7.841,7.841,0,0,0-1.814-1.3,1.126,1.126,0,0,1,1.111-.952m4.187-8.536a1.127,1.127,0,0,1-1.125,1.125h-3.062a1.125,1.125,0,0,1-.922-.482,6.729,6.729,0,0,0,2.123-1.769h1.86a1.126,1.126,0,0,1,1.125,1.125m-4.187-13.149h3.062a1.125,1.125,0,0,1,0,2.251h-1.311a4.533,4.533,0,0,0-1.756-2.25h0m-26.968.533a37.62,37.62,0,0,1,11.215-1.509c9.813,0,15.166,2.724,15.166,4.123,0,.491-.832,1.595-3.952,2.614a37.622,37.622,0,0,1-11.214,1.509c-9.813,0-15.166-2.724-15.166-4.123,0-.492.832-1.6,3.952-2.615m-6.1,10.892c1.661,3.435,9.532,5.223,17.319,5.223a48.934,48.934,0,0,0,5.966-.359,39.079,39.079,0,0,1-10.627,1.327c-9.813,0-15.166-2.724-15.166-4.123,0-.511.784-1.312,2.508-2.068m-2.508,8.973v-3.363c3.246,2.016,9.23,3.055,15.166,3.055,5.6,0,11.812-.97,15.166-3.051v3.359c0,.492-.832,1.6-3.952,2.615a37.623,37.623,0,0,1-11.215,1.509c-9.813,0-15.166-2.724-15.166-4.123m26.381,21.71a37.627,37.627,0,0,1-11.215,1.509c-9.813,0-15.166-2.724-15.166-4.123,0-.693,1.369-1.835,4.367-2.745,3.168,2.141,9.34,3.246,15.461,3.246a43.739,43.739,0,0,0,10.21-1.127,1.067,1.067,0,0,1,.3.626c0,.491-.833,1.6-3.952,2.615" transform="translate(-4068.949 -8603.457)" fill="#206897"/>
        <path id="Trazado_193995" data-name="Trazado 193995" d="M635.141,1359.1H600.019a1.237,1.237,0,1,0,0,2.473h35.122a2.437,2.437,0,0,1,2.434,2.434v47.343a1.236,1.236,0,1,0,2.473,0v-47.343a4.913,4.913,0,0,0-4.907-4.907" transform="translate(-4220.879 -8603.457)" fill="#206897"/>
        <path id="Trazado_193996" data-name="Trazado 193996" d="M579.292,1408.209a1.236,1.236,0,0,0-1.237-1.236H534.189a1.236,1.236,0,0,0-1.237,1.236v12.154a1.236,1.236,0,0,0,1.237,1.236h43.867a1.236,1.236,0,0,0,1.237-1.236v-12.154Zm-2.473,10.918H535.425v-9.681h41.394v9.681Z" transform="translate(-4167.242 -8642.461)" fill="#206897"/>
        <path id="Trazado_193997" data-name="Trazado 193997" d="M669.022,1515.4h-3.062a3.6,3.6,0,0,0,0,7.2h3.062a3.6,3.6,0,0,0,0-7.2m0,4.724h-3.062a1.125,1.125,0,0,1,0-2.251h3.062a1.125,1.125,0,0,1,0,2.251" transform="translate(-4272.684 -8730.805)" fill="#206897"/>
        <path id="Trazado_193998" data-name="Trazado 193998" d="M733.035,1515.4h-3.062a3.6,3.6,0,0,0,0,7.2h3.062a3.6,3.6,0,0,0,0-7.2m0,4.724h-3.062a1.125,1.125,0,0,1,0-2.251h3.062a1.125,1.125,0,0,1,0,2.251" transform="translate(-4324.84 -8730.805)" fill="#206897"/>
        <path id="Trazado_193999" data-name="Trazado 193999" d="M669.022,1580.316h-3.062a3.6,3.6,0,1,0,0,7.2h3.062a3.6,3.6,0,1,0,0-7.2m0,4.724h-3.062a1.125,1.125,0,0,1,0-2.251h3.062a1.125,1.125,0,0,1,0,2.251" transform="translate(-4272.684 -8783.699)" fill="#206897"/>
        <path id="Trazado_194000" data-name="Trazado 194000" d="M733.035,1580.316h-3.062a3.6,3.6,0,1,0,0,7.2h3.062a3.6,3.6,0,1,0,0-7.2m0,4.724h-3.062a1.125,1.125,0,1,1,0-2.251h3.062a1.125,1.125,0,0,1,0,2.251" transform="translate(-4324.84 -8783.699)" fill="#206897"/>
        <path id="Trazado_194001" data-name="Trazado 194001" d="M669.022,1632.482h-3.062a3.6,3.6,0,0,0,0,7.2h3.062a3.6,3.6,0,0,0,0-7.2m0,4.724h-3.062a1.126,1.126,0,0,1,0-2.251h3.062a1.126,1.126,0,0,1,0,2.251" transform="translate(-4272.684 -8826.203)" fill="#206897"/>
        <path id="Trazado_194002" data-name="Trazado 194002" d="M733.035,1632.482h-3.062a3.6,3.6,0,1,0,0,7.2h3.062a3.6,3.6,0,1,0,0-7.2m0,4.724h-3.062a1.126,1.126,0,0,1,0-2.251h3.062a1.126,1.126,0,0,1,0,2.251" transform="translate(-4324.84 -8826.203)" fill="#206897"/>
        <path id="Trazado_194003" data-name="Trazado 194003" d="M669.022,1684.647h-3.062a3.6,3.6,0,0,0,0,7.2h3.062a3.6,3.6,0,0,0,0-7.2m0,4.724h-3.062a1.126,1.126,0,0,1,0-2.251h3.062a1.126,1.126,0,0,1,0,2.251" transform="translate(-4272.684 -8868.707)" fill="#206897"/>
        <path id="Trazado_194004" data-name="Trazado 194004" d="M733.035,1684.647h-3.062a3.6,3.6,0,0,0,0,7.2h3.062a3.6,3.6,0,0,0,0-7.2m0,4.724h-3.062a1.126,1.126,0,0,1,0-2.251h3.062a1.126,1.126,0,0,1,0,2.251" transform="translate(-4324.84 -8868.707)" fill="#206897"/>
        <path id="Trazado_194005" data-name="Trazado 194005" d="M444.882,1493.388h4.181a1.237,1.237,0,1,0,0-2.473h-4.181a1.237,1.237,0,1,0,0,2.473" transform="translate(-4094.476 -8710.856)" fill="#206897"/>
        <path id="Trazado_194006" data-name="Trazado 194006" d="M444.882,1472.7h4.181a1.237,1.237,0,1,0,0-2.473h-4.181a1.237,1.237,0,1,0,0,2.473" transform="translate(-4094.476 -8694)" fill="#206897"/>
        <path id="Trazado_194007" data-name="Trazado 194007" d="M467.411,1449.747h.016a1.23,1.23,0,0,0,1.228-1.237,1.241,1.241,0,1,0-1.245,1.237" transform="translate(-4112.832 -8675.299)" fill="#206897"/>
      </g>
    </g>
    <g id="Grupo_145942" data-name="Grupo 145942">
      <g id="Elipse_6048" data-name="Elipse 6048" transform="translate(730 4421)" fill="#fff" stroke="#206897" stroke-width="9">
        <ellipse cx="70.5" cy="70" rx="70.5" ry="70" stroke="none"/>
        <ellipse cx="70.5" cy="70" rx="66" ry="65.5" fill="none"/>
      </g>
      <g id="Grupo_144837" data-name="Grupo 144837" transform="translate(756.708 4446)">
        <g id="Grupo_144836" data-name="Grupo 144836" transform="translate(0.292)" clip-path="url(#clip-path)">
          <path id="Trazado_194008" data-name="Trazado 194008" d="M83.52,55.231H71.483a11,11,0,0,0-6.495-10.25l-.03-.012L50.118,39.306l0-2.666a11.669,11.669,0,0,0,4.729-9.379V27.2h.805a5.105,5.105,0,0,0,1.971-9.815V9.374a4.562,4.562,0,0,0-4.813-4.555.689.689,0,0,1-.763-.512C51.478,1.409,49.656,0,46.475,0H43.909a1.263,1.263,0,1,0,0,2.527h2.566c2.445,0,2.856,1.072,3.09,2.266A3.216,3.216,0,0,0,53,7.339a2.038,2.038,0,0,1,2.093,2.035V17.8c0,1.436-3.263.668-3.263-1.807a1.46,1.46,0,0,0-2.746-.69,6.087,6.087,0,0,1-5.375,3.225H31.146a1.84,1.84,0,0,1-1.834-1.834V8.62a6.1,6.1,0,0,1,6.093-6.093h2.608a1.263,1.263,0,0,0,0-2.527H35.405a8.629,8.629,0,0,0-8.619,8.62v8.073a4.335,4.335,0,0,0,.279,1.532A5.1,5.1,0,0,0,30.38,27.2h.805v.057a11.581,11.581,0,0,0,4.72,9.367v2.634L21.282,44.972l-.021.009a10.994,10.994,0,0,0-6.495,10.25H2.728A2.731,2.731,0,0,0,0,57.959v4.5a2.731,2.731,0,0,0,2.728,2.728H3.6V83.52a2.731,2.731,0,0,0,2.728,2.728H79.92a2.731,2.731,0,0,0,2.728-2.728V77.4a1.263,1.263,0,0,0-2.527,0V83.52a.2.2,0,0,1-.2.2H6.328a.2.2,0,0,1-.2-.2V65.186H80.121v6.32a1.263,1.263,0,1,0,2.527,0v-6.32h.873a2.731,2.731,0,0,0,2.728-2.728v-4.5A2.731,2.731,0,0,0,83.52,55.231Zm-14.565,0H52.733l1.789-11.54,9.518,3.632A8.534,8.534,0,0,1,68.956,55.231Zm-21.4,0L46.7,50.378l.864-1.885a2.319,2.319,0,0,0,1.892-.5l2.115-1.778-1.4,9.02H47.558Zm-11.486,0L34.7,46.4l1.937,1.594a2.316,2.316,0,0,0,1.886.5l.864,1.885-.855,4.853H36.072Zm8.092-10.516c.082.145.127.2,1.4,2.085l-.983,2.145H41.513L40.53,46.8c1.178-1.745,1.317-1.94,1.4-2.085Zm4.741-3.177c.168.08.145.065,2.951,1.135l-3.847,3.234-1.548-2.293ZM38.082,45.909l-3.943-3.246,2.952-1.153,2.539,2.106-1.548,2.293m3.68,5.563H44.33l.662,3.758H41.1Zm13.887-26.8h-.805V21.018A3.293,3.293,0,0,0,56.9,19.841a2.579,2.579,0,0,1-1.247,4.836m-25.27,0A2.575,2.575,0,0,1,28.6,20.235a4.382,4.382,0,0,0,2.582.819v3.623h-.805Zm3.332,2.583V21.053h10a8.626,8.626,0,0,0,6.211-2.643,5.1,5.1,0,0,0,2.4,2.208V27.26a9.3,9.3,0,0,1-18.606,0m9.454,11.679a11.733,11.733,0,0,0,4.425-.873v1.272L44.71,41.787a2.34,2.34,0,0,0-.379.4H41.762a2.35,2.35,0,0,0-.379-.4l-2.951-2.448v-1.3A12.6,12.6,0,0,0,43.165,38.939ZM17.577,52.83a8.564,8.564,0,0,1,4.635-5.508l9.5-3.711,1.8,11.62H17.292A8.726,8.726,0,0,1,17.577,52.83Zm66.145,9.628a.2.2,0,0,1-.2.2H2.728a.2.2,0,0,1-.2-.2v-4.5a.2.2,0,0,1,.2-.2H83.52a.2.2,0,0,1,.2.2Z" transform="translate(-0.285)" fill="#206897"/>
          <path id="Trazado_194009" data-name="Trazado 194009" d="M155.411,404.971a4.088,4.088,0,0,1,2.566.9,1.263,1.263,0,0,0,1.572-1.978,6.59,6.59,0,0,0-4.138-1.446,6.661,6.661,0,0,0,0,13.321,6.59,6.59,0,0,0,4.138-1.446,1.263,1.263,0,0,0-1.572-1.978,4.088,4.088,0,0,1-2.566.9,4.134,4.134,0,0,1,0-8.268Z" transform="translate(-123.979 -334.651)" fill="#206897"/>
          <path id="Trazado_194010" data-name="Trazado 194010" d="M233.477,404.971a1.263,1.263,0,1,0,0-2.527h-5.453a1.263,1.263,0,0,0-1.263,1.263V414.5a1.263,1.263,0,0,0,1.263,1.263h5.453a1.263,1.263,0,0,0,0-2.527h-4.19v-2.87h4.19a1.263,1.263,0,0,0,0-2.527h-4.19v-2.87Z" transform="translate(-188.848 -334.651)" fill="#206897"/>
          <path id="Trazado_194011" data-name="Trazado 194011" d="M284.17,409.1a6.661,6.661,0,1,0,6.661-6.66,6.668,6.668,0,0,0-6.661,6.66m10.794,0a4.134,4.134,0,1,1-4.134-4.134,4.138,4.138,0,0,1,4.134,4.134" transform="translate(-236.586 -334.651)" fill="#206897"/>
        </g>
      </g>
    </g>
    <g id="Trazado_196438" data-name="Trazado 196438" transform="translate(935.229 4472)" fill="#fdd7ae">
      <path d="M 154.10595703125 37.90890884399414 L 18.66537475585938 37.90890884399414 C 16.0767879486084 37.90890884399414 13.56537532806396 37.40180206298828 11.2008752822876 36.40171432495117 C 8.917288780212402 35.43584442138672 6.866549491882324 34.05321502685547 5.105571269989014 32.29225921630859 C 3.344614744186401 30.53127861022949 1.961984395980835 28.48053932189941 0.9961147904396057 26.19695281982422 C -0.003972170408815145 23.83245277404785 -0.5110808610916138 21.32104110717773 -0.5110808610916138 18.73245239257812 L -0.5110808610916138 18.66536712646484 C -0.5110808610916138 16.07677841186523 -0.003972170408815145 13.56536674499512 0.9961147904396057 11.20086669921875 C 1.961984395980835 8.917279243469238 3.344614744186401 6.866540431976318 5.105571269989014 5.10556173324585 C 6.866549491882324 3.344605445861816 8.917288780212402 1.96197497844696 11.2008752822876 0.996105432510376 C 13.56537532806396 -0.003981544636189938 16.0767879486084 -0.5110902190208435 18.66537475585938 -0.5110902190208435 L 154.10595703125 -0.5110902190208435 C 156.6945495605469 -0.5110902190208435 159.2059631347656 -0.003981544636189938 161.5704345703125 0.996105432510376 C 163.8540344238281 1.96197497844696 165.90478515625 3.344605445861816 167.6657409667969 5.10556173324585 C 169.4266967773438 6.866540431976318 170.809326171875 8.917279243469238 171.7752075195312 11.20086669921875 C 172.7752838134766 13.56536674499512 173.2823944091797 16.07677841186523 173.2823944091797 18.66536712646484 L 173.2823944091797 18.73245239257812 C 173.2823944091797 21.32104110717773 172.7752838134766 23.83245277404785 171.7752075195312 26.19695281982422 C 170.809326171875 28.48053932189941 169.4266967773438 30.53127861022949 167.6657409667969 32.29225921630859 C 165.90478515625 34.05321502685547 163.8540344238281 35.43584442138672 161.5704345703125 36.40171432495117 C 159.2059631347656 37.40180206298828 156.6945495605469 37.90890884399414 154.10595703125 37.90890884399414 Z" stroke="none"/>
      <path d="M 18.66535949707031 0 C 8.356765747070312 0 0 8.356773376464844 0 18.66536521911621 L 0 18.73245429992676 C 0 29.04104614257812 8.356765747070312 37.39781951904297 18.66535949707031 37.39781951904297 L 154.10595703125 37.39781951904297 C 164.41455078125 37.39781951904297 172.7713165283203 29.04104614257812 172.7713165283203 18.73245429992676 L 172.7713165283203 18.66536521911621 C 172.7713165283203 8.356773376464844 164.41455078125 0 154.10595703125 0 L 18.66535949707031 0 M 18.66535949707031 -1.022159576416016 L 154.10595703125 -1.022159576416016 C 156.7632904052734 -1.022159576416016 159.3417053222656 -0.5014762878417969 161.7695465087891 0.5254096984863281 C 164.1140441894531 1.517047882080078 166.2193908691406 2.936454772949219 168.0271301269531 4.744182586669922 C 169.8348693847656 6.551933288574219 171.2542724609375 8.65727424621582 172.2459106445312 11.00177383422852 C 173.2727966308594 13.42961502075195 173.7934722900391 16.00802421569824 173.7934722900391 18.66536521911621 L 173.7934722900391 18.73245429992676 C 173.7934722900391 21.38979530334473 173.2727966308594 23.96820449829102 172.2459106445312 26.39604568481445 C 171.2542724609375 28.74054718017578 169.8348693847656 30.84588623046875 168.0271301269531 32.65363693237305 C 166.2193908691406 34.46136474609375 164.1140441894531 35.88077163696289 161.7695465087891 36.87240982055664 C 159.3417053222656 37.89929580688477 156.7632904052734 38.41997909545898 154.10595703125 38.41997909545898 L 18.66535949707031 38.41997909545898 C 16.00802612304688 38.41997909545898 13.42961120605469 37.89929580688477 11.00177001953125 36.87240982055664 C 8.657272338867188 35.88077163696289 6.551925659179688 34.46136474609375 4.744186401367188 32.65363693237305 C 2.936447143554688 30.84588623046875 1.517044067382812 28.74054718017578 0.5254058837890625 26.39604568481445 C -0.5014801025390625 23.96820449829102 -1.02215576171875 21.38979530334473 -1.02215576171875 18.73245429992676 L -1.02215576171875 18.66536521911621 C -1.02215576171875 16.00802421569824 -0.5014801025390625 13.42961502075195 0.5254058837890625 11.00177383422852 C 1.517044067382812 8.65727424621582 2.936447143554688 6.551933288574219 4.744186401367188 4.744182586669922 C 6.551925659179688 2.936454772949219 8.657272338867188 1.517047882080078 11.00177001953125 0.5254096984863281 C 13.42961120605469 -0.5014762878417969 16.00802612304688 -1.022159576416016 18.66535949707031 -1.022159576416016 Z" stroke="none" fill="#faa141"/>
    </g>
    <path id="Trazado_196439" data-name="Trazado 196439" d="M-63.8-4.164h-1.867V0h-2.344V-11.375h4.227a4.778,4.778,0,0,1,3.109.9,3.1,3.1,0,0,1,1.094,2.539A3.5,3.5,0,0,1-60.082-6a3.437,3.437,0,0,1-1.527,1.238l2.461,4.648V0h-2.516Zm-1.867-1.9h1.891a1.936,1.936,0,0,0,1.367-.449,1.606,1.606,0,0,0,.484-1.238,1.719,1.719,0,0,0-.457-1.266,1.9,1.9,0,0,0-1.4-.461h-1.883ZM-54.055.156A4.15,4.15,0,0,1-57.082-.984,4.054,4.054,0,0,1-58.25-4.023v-.219a5.106,5.106,0,0,1,.492-2.277,3.612,3.612,0,0,1,1.395-1.547A3.914,3.914,0,0,1-54.3-8.609a3.508,3.508,0,0,1,2.73,1.094,4.444,4.444,0,0,1,1,3.1v.922h-5.383a2.1,2.1,0,0,0,.66,1.328,2,2,0,0,0,1.395.5,2.437,2.437,0,0,0,2.039-.945l1.109,1.242A3.389,3.389,0,0,1-52.133-.246,4.511,4.511,0,0,1-54.055.156Zm-.258-6.945a1.411,1.411,0,0,0-1.09.455,2.357,2.357,0,0,0-.535,1.3H-52.8v-.181A1.681,1.681,0,0,0-53.2-6.377,1.456,1.456,0,0,0-54.312-6.789Zm8.531,5.125a1.481,1.481,0,0,0,1.016-.344,1.2,1.2,0,0,0,.406-.914h2.117a2.9,2.9,0,0,1-.469,1.574A3.093,3.093,0,0,1-43.973-.238a3.949,3.949,0,0,1-1.77.395A3.67,3.67,0,0,1-48.6-1,4.56,4.56,0,0,1-49.648-4.18v-.148a4.508,4.508,0,0,1,1.039-3.117,3.627,3.627,0,0,1,2.852-1.164,3.555,3.555,0,0,1,2.543.9,3.2,3.2,0,0,1,.973,2.4h-2.117a1.551,1.551,0,0,0-.406-1.072A1.354,1.354,0,0,0-45.8-6.789a1.36,1.36,0,0,0-1.191.575,3.333,3.333,0,0,0-.4,1.866v.235a3.375,3.375,0,0,0,.4,1.878A1.377,1.377,0,0,0-45.781-1.664Zm9.891.8A2.831,2.831,0,0,1-38.2.156a2.67,2.67,0,0,1-2.074-.781,3.335,3.335,0,0,1-.73-2.289V-8.453h2.258v5.467q0,1.322,1.2,1.322a1.63,1.63,0,0,0,1.578-.8V-8.453H-33.7V0h-2.125Zm8.641-5.477a6.134,6.134,0,0,0-.812-.062,1.654,1.654,0,0,0-1.68.867V0H-32V-8.453h2.133l.063,1.008a2.092,2.092,0,0,1,1.883-1.164,2.366,2.366,0,0,1,.7.1Zm5.664,4A.727.727,0,0,0-22-2.988a4.659,4.659,0,0,0-1.316-.426q-3.016-.633-3.016-2.562a2.323,2.323,0,0,1,.934-1.879,3.766,3.766,0,0,1,2.441-.754,4.053,4.053,0,0,1,2.574.758,2.388,2.388,0,0,1,.965,1.969h-2.258a1.092,1.092,0,0,0-.312-.8A1.322,1.322,0,0,0-22.961-7a1.351,1.351,0,0,0-.883.258.814.814,0,0,0-.312.656.7.7,0,0,0,.355.605,3.657,3.657,0,0,0,1.2.4A9.8,9.8,0,0,1-21.18-4.7,2.336,2.336,0,0,1-19.391-2.43a2.2,2.2,0,0,1-.992,1.871,4.28,4.28,0,0,1-2.562.715,4.47,4.47,0,0,1-1.887-.379,3.166,3.166,0,0,1-1.293-1.039,2.414,2.414,0,0,1-.469-1.426h2.141a1.179,1.179,0,0,0,.445.922,1.766,1.766,0,0,0,1.109.32,1.635,1.635,0,0,0,.98-.246A.766.766,0,0,0-21.586-2.336Zm3.3-1.969A5.013,5.013,0,0,1-17.8-6.547,3.546,3.546,0,0,1-16.41-8.07,4.069,4.069,0,0,1-14.3-8.609,3.849,3.849,0,0,1-11.5-7.562,4.2,4.2,0,0,1-10.3-4.719l.016.578A4.418,4.418,0,0,1-11.367-1.02,3.775,3.775,0,0,1-14.281.156,3.793,3.793,0,0,1-17.2-1.016,4.5,4.5,0,0,1-18.289-4.2Zm2.258.16A3.16,3.16,0,0,0-15.578-2.3a1.5,1.5,0,0,0,1.3.638A1.5,1.5,0,0,0-13-2.294a3.457,3.457,0,0,0,.461-2.015A3.128,3.128,0,0,0-13-6.14a1.5,1.5,0,0,0-1.3-.649,1.474,1.474,0,0,0-1.281.646A3.516,3.516,0,0,0-16.031-4.144ZM-4.312-2.336a.727.727,0,0,0-.41-.652,4.659,4.659,0,0,0-1.316-.426q-3.016-.633-3.016-2.562a2.323,2.323,0,0,1,.934-1.879A3.766,3.766,0,0,1-5.68-8.609a4.053,4.053,0,0,1,2.574.758,2.388,2.388,0,0,1,.965,1.969H-4.4a1.092,1.092,0,0,0-.312-.8A1.322,1.322,0,0,0-5.687-7a1.351,1.351,0,0,0-.883.258.814.814,0,0,0-.312.656.7.7,0,0,0,.355.605,3.657,3.657,0,0,0,1.2.4A9.8,9.8,0,0,1-3.906-4.7,2.336,2.336,0,0,1-2.117-2.43,2.2,2.2,0,0,1-3.109-.559,4.28,4.28,0,0,1-5.672.156,4.47,4.47,0,0,1-7.559-.223,3.166,3.166,0,0,1-8.852-1.262,2.414,2.414,0,0,1-9.32-2.687H-7.18a1.179,1.179,0,0,0,.445.922,1.766,1.766,0,0,0,1.109.32,1.635,1.635,0,0,0,.98-.246A.766.766,0,0,0-4.312-2.336Zm9.836-5.2A2.818,2.818,0,0,1,7.781-8.609q2.75,0,2.789,3.2V0H8.313V-5.352A1.57,1.57,0,0,0,8-6.426a1.34,1.34,0,0,0-1.039-.348,1.537,1.537,0,0,0-1.437.766V0H3.266V-12H5.523ZM17.336-.859A2.831,2.831,0,0,1,15.023.156a2.67,2.67,0,0,1-2.074-.781,3.335,3.335,0,0,1-.73-2.289V-8.453h2.258v5.467q0,1.322,1.2,1.322a1.63,1.63,0,0,0,1.578-.8V-8.453h2.266V0H17.4Zm6.008-7.594.07.945a2.971,2.971,0,0,1,2.43-1.1A2.255,2.255,0,0,1,28.086-7.32a2.9,2.9,0,0,1,2.539-1.289,2.521,2.521,0,0,1,2.047.8,3.681,3.681,0,0,1,.672,2.41V0H31.078V-5.391A1.61,1.61,0,0,0,30.8-6.441a1.246,1.246,0,0,0-.992-.332A1.409,1.409,0,0,0,28.4-5.8L28.406,0H26.148V-5.383a1.59,1.59,0,0,0-.289-1.062,1.259,1.259,0,0,0-.984-.328,1.463,1.463,0,0,0-1.391.8V0H21.227V-8.453ZM39.977,0a2.507,2.507,0,0,1-.227-.758,2.732,2.732,0,0,1-2.133.914,3,3,0,0,1-2.059-.719,2.312,2.312,0,0,1-.816-1.812,2.389,2.389,0,0,1,1-2.062,4.915,4.915,0,0,1,2.879-.727h1.039v-.484a1.393,1.393,0,0,0-.3-.937,1.183,1.183,0,0,0-.949-.352,1.345,1.345,0,0,0-.895.273.929.929,0,0,0-.324.75H34.93a2.268,2.268,0,0,1,.453-1.359,3,3,0,0,1,1.281-.98,4.669,4.669,0,0,1,1.859-.355A3.689,3.689,0,0,1,41-7.824a2.747,2.747,0,0,1,.918,2.207v3.664a4.041,4.041,0,0,0,.336,1.82V0ZM38.109-1.57a1.945,1.945,0,0,0,.922-.223,1.462,1.462,0,0,0,.625-.6V-3.844h-.844q-1.7,0-1.8,1.172L37-2.539a.9.9,0,0,0,.3.7A1.153,1.153,0,0,0,38.109-1.57Zm7.625-6.883.07.977a2.951,2.951,0,0,1,2.43-1.133,2.453,2.453,0,0,1,2,.789,3.682,3.682,0,0,1,.672,2.359V0H48.648V-5.406a1.465,1.465,0,0,0-.312-1.043A1.4,1.4,0,0,0,47.3-6.773a1.553,1.553,0,0,0-1.43.813V0H43.609V-8.453ZM52.266-4.3a5.013,5.013,0,0,1,.484-2.242A3.546,3.546,0,0,1,54.145-8.07a4.069,4.069,0,0,1,2.113-.539,3.849,3.849,0,0,1,2.793,1.047,4.2,4.2,0,0,1,1.207,2.844l.016.578A4.418,4.418,0,0,1,59.188-1.02,3.775,3.775,0,0,1,56.273.156a3.793,3.793,0,0,1-2.918-1.172A4.5,4.5,0,0,1,52.266-4.2Zm2.258.16A3.16,3.16,0,0,0,54.977-2.3a1.5,1.5,0,0,0,1.3.638,1.5,1.5,0,0,0,1.281-.63,3.457,3.457,0,0,0,.461-2.015,3.128,3.128,0,0,0-.461-1.831,1.5,1.5,0,0,0-1.3-.649,1.474,1.474,0,0,0-1.281.646A3.516,3.516,0,0,0,54.523-4.144ZM66.242-2.336a.727.727,0,0,0-.41-.652,4.659,4.659,0,0,0-1.316-.426Q61.5-4.047,61.5-5.977a2.323,2.323,0,0,1,.934-1.879,3.766,3.766,0,0,1,2.441-.754,4.053,4.053,0,0,1,2.574.758,2.388,2.388,0,0,1,.965,1.969H66.156a1.092,1.092,0,0,0-.312-.8A1.322,1.322,0,0,0,64.867-7a1.351,1.351,0,0,0-.883.258.814.814,0,0,0-.312.656.7.7,0,0,0,.355.605,3.657,3.657,0,0,0,1.2.4,9.8,9.8,0,0,1,1.422.379A2.336,2.336,0,0,1,68.438-2.43a2.2,2.2,0,0,1-.992,1.871,4.28,4.28,0,0,1-2.562.715A4.47,4.47,0,0,1,63-.223,3.166,3.166,0,0,1,61.7-1.262a2.414,2.414,0,0,1-.469-1.426h2.141a1.179,1.179,0,0,0,.445.922,1.766,1.766,0,0,0,1.109.32,1.635,1.635,0,0,0,.98-.246A.766.766,0,0,0,66.242-2.336Z" transform="translate(1026.165 4495.201)"/>
    <g id="Trazado_196442" data-name="Trazado 196442" transform="translate(840.397 4731.108)" fill="#fdd7ae">
      <path d="M 174.8867340087891 37.90888595581055 L 18.66535568237305 37.90888595581055 C 16.07678413391113 37.90888595581055 13.56535625457764 37.40179061889648 11.20085620880127 36.40169525146484 C 8.917284965515137 35.43583679199219 6.866522789001465 34.05321884155273 5.105570793151855 32.29224395751953 C 3.344594478607178 30.53129005432129 1.961975336074829 28.48052787780762 0.9961181879043579 26.19695663452148 C -0.003977056592702866 23.83245658874512 -0.5110722780227661 21.32102966308594 -0.5110722780227661 18.73245811462402 L -0.5110722780227661 18.66536140441895 C -0.5110722780227661 16.07678985595703 -0.003977056592702866 13.56536197662354 0.9961181879043579 11.20086193084717 C 1.961975336074829 8.917290687561035 3.344594478607178 6.866528987884521 5.105570793151855 5.105576515197754 C 6.866522789001465 3.344600200653076 8.917284965515137 1.961981177330017 11.20085620880127 0.9961240291595459 C 13.56535625457764 -0.003971192985773087 16.07678413391113 -0.5110664367675781 18.66535568237305 -0.5110664367675781 L 174.8867340087891 -0.5110664367675781 C 177.4753112792969 -0.5110664367675781 179.9867401123047 -0.003971192985773087 182.3512420654297 0.9961240291595459 C 184.6348114013672 1.961981177330017 186.6855773925781 3.344600200653076 188.4465179443359 5.105576515197754 C 190.2075042724609 6.866528987884521 191.5901184082031 8.917290687561035 192.5559692382812 11.20086193084717 C 193.5560760498047 13.56536197662354 194.0631713867188 16.07678985595703 194.0631713867188 18.66536140441895 L 194.0631713867188 18.73245811462402 C 194.0631713867188 21.32102966308594 193.5560760498047 23.83245658874512 192.5559692382812 26.19695663452148 C 191.5901184082031 28.48052787780762 190.2075042724609 30.53129005432129 188.4465179443359 32.29224395751953 C 186.6855773925781 34.05321884155273 184.6348114013672 35.43583679199219 182.3512420654297 36.40169525146484 C 179.9867401123047 37.40179061889648 177.4753112792969 37.90888595581055 174.8867340087891 37.90888595581055 Z" stroke="none"/>
      <path d="M 18.66534423828125 1.1444091796875e-05 C 8.356765747070312 1.1444091796875e-05 0 8.356760025024414 0 18.66535949707031 L 0 18.73246002197266 C 0 29.04105949401855 8.356765747070312 37.39780807495117 18.66534423828125 37.39780807495117 L 174.88671875 37.39780807495117 C 185.1953277587891 37.39780807495117 193.5520935058594 29.04105949401855 193.5520935058594 18.73246002197266 L 193.5520935058594 18.66535949707031 C 193.5520935058594 8.356760025024414 185.1953277587891 1.1444091796875e-05 174.88671875 1.1444091796875e-05 L 18.66534423828125 1.1444091796875e-05 M 18.66534423828125 -1.022140502929688 L 174.88671875 -1.022140502929688 C 177.5440673828125 -1.022140502929688 180.1224670410156 -0.50146484375 182.5503234863281 0.5254096984863281 C 184.8948211669922 1.517059326171875 187.0001678466797 2.936458587646484 188.8078918457031 4.744186401367188 C 190.6156463623047 6.551910400390625 192.0350494384766 8.657285690307617 193.0267028808594 11.00178527832031 C 194.0535736083984 13.42960929870605 194.5742492675781 16.00800895690918 194.5742492675781 18.66535949707031 L 194.5742492675781 18.73246002197266 C 194.5742492675781 21.38981056213379 194.0535736083984 23.96821022033691 193.0267028808594 26.39603424072266 C 192.0350494384766 28.74053573608398 190.6156463623047 30.84590911865234 188.8078918457031 32.65363311767578 C 187.0001678466797 34.46136093139648 184.8948211669922 35.88076019287109 182.5503234863281 36.87240982055664 C 180.1224670410156 37.89928436279297 177.5440673828125 38.41996002197266 174.88671875 38.41996002197266 L 18.66534423828125 38.41996002197266 C 16.00799560546875 38.41996002197266 13.42959594726562 37.89928436279297 11.00177001953125 36.87240982055664 C 8.657272338867188 35.88076019287109 6.551925659179688 34.46136093139648 4.744171142578125 32.65363311767578 C 2.936447143554688 30.84590911865234 1.517044067382812 28.74053573608398 0.525390625 26.39603424072266 C -0.5014801025390625 23.96821022033691 -1.02215576171875 21.38981056213379 -1.02215576171875 18.73246002197266 L -1.02215576171875 18.66535949707031 C -1.02215576171875 16.00800895690918 -0.5014801025390625 13.42960929870605 0.525390625 11.00178527832031 C 1.517044067382812 8.657285690307617 2.936447143554688 6.551910400390625 4.744171142578125 4.744186401367188 C 6.551925659179688 2.936458587646484 8.657272338867188 1.517059326171875 11.00177001953125 0.5254096984863281 C 13.42959594726562 -0.50146484375 16.00799560546875 -1.022140502929688 18.66534423828125 -1.022140502929688 Z" stroke="none" fill="#faa141"/>
    </g>
    <path id="Trazado_196444" data-name="Trazado 196444" d="M-63.98-11.375l1.4,8.227,4.242-8.227h3.047L-57.27,0h-2.3L-59-3.242-57.895-8.3-62.254,0h-1.57l-1.523-8.594-.734,5.6L-66.605,0h-2.289l1.977-11.375ZM-50.473,0a2.281,2.281,0,0,1-.086-.766,2.863,2.863,0,0,1-2.156.922,2.594,2.594,0,0,1-1.84-.723,2.186,2.186,0,0,1-.684-1.746,2.527,2.527,0,0,1,1.16-2.121,5.266,5.266,0,0,1,2.965-.738l1.031.016.109-.508a1.764,1.764,0,0,0,.023-.492.846.846,0,0,0-.277-.574.955.955,0,0,0-.629-.215,1.345,1.345,0,0,0-.875.254,1.231,1.231,0,0,0-.461.777l-2.211.008a2.457,2.457,0,0,1,1.113-1.965,4.312,4.312,0,0,1,2.613-.738,3.117,3.117,0,0,1,2.25.855,2.5,2.5,0,0,1,.68,2.121l-.648,4.047-.039.5a2.412,2.412,0,0,0,.133.938L-48.309,0Zm-1.7-1.555A2.017,2.017,0,0,0-50.5-2.383l.273-1.461L-51-3.852a2.139,2.139,0,0,0-1.758.742A1.292,1.292,0,0,0-53-2.477a.75.75,0,0,0,.176.668A.891.891,0,0,0-52.168-1.555Zm10.992-4.781a4.548,4.548,0,0,0-.742-.078,2.136,2.136,0,0,0-1.867.883L-44.762,0h-2.2L-45.5-8.453l2.07-.008-.2,1.031a2.325,2.325,0,0,1,1.969-1.2,3.214,3.214,0,0,1,.766.109Zm3.609,2.969-1.023.891L-39.02,0h-2.2l2.078-12h2.211l-1.141,6.516.43-.461,2.508-2.508h2.828L-36-4.82-33.652,0h-2.414ZM-28.84.156A3.677,3.677,0,0,1-30.8-.387a3.292,3.292,0,0,1-1.277-1.469,4.093,4.093,0,0,1-.328-2.059l.023-.312a5.465,5.465,0,0,1,.719-2.266,4.341,4.341,0,0,1,1.547-1.59,3.827,3.827,0,0,1,2.094-.527,2.924,2.924,0,0,1,2.473,1.2,4.117,4.117,0,0,1,.637,2.962l-.125.962h-5.18a1.814,1.814,0,0,0,.4,1.313,1.521,1.521,0,0,0,1.172.508A2.7,2.7,0,0,0-26.543-2.6l1.008,1.25A3.135,3.135,0,0,1-26.91-.23,4.5,4.5,0,0,1-28.84.156Zm.7-6.945a1.565,1.565,0,0,0-1.082.383,3.363,3.363,0,0,0-.848,1.383h3.031l.047-.2a2.071,2.071,0,0,0,.008-.594,1.134,1.134,0,0,0-.383-.707A1.2,1.2,0,0,0-28.137-6.789Zm8.219-3.742-.367,2.078h1.406L-19.168-6.8h-1.406l-.719,4.234a1.077,1.077,0,0,0,.063.609q.109.211.531.227.125.008.672-.039l-.156,1.727a3.706,3.706,0,0,1-1.266.18,1.985,1.985,0,0,1-1.617-.68,2.456,2.456,0,0,1-.437-1.8l.727-4.461h-1.2l.289-1.656h1.2l.359-2.078ZM-16.738,0h-2.219l1.469-8.453h2.219Zm-.492-10.6a1.1,1.1,0,0,1,.344-.867,1.209,1.209,0,0,1,.867-.344,1.215,1.215,0,0,1,.867.3,1.1,1.1,0,0,1,.383.828,1.132,1.132,0,0,1-.324.844,1.215,1.215,0,0,1-.887.375,1.235,1.235,0,0,1-.863-.3A1.091,1.091,0,0,1-17.23-10.6Zm5.844,2.141-.187,1A3.042,3.042,0,0,1-9.113-8.609a2.028,2.028,0,0,1,1.766.875,3.526,3.526,0,0,1,.414,2.359L-7.824,0h-2.2l.906-5.4a2.528,2.528,0,0,0,.016-.555.9.9,0,0,0-1-.82,1.9,1.9,0,0,0-1.555.8L-12.715,0h-2.2l1.469-8.453Zm5.711,4.227A5.849,5.849,0,0,1-4.4-7.418a3.242,3.242,0,0,1,2.629-1.2,2.37,2.37,0,0,1,2.016.977l.289-.82,2.023.008L1.176-.289A3.983,3.983,0,0,1-.262,2.383a4.471,4.471,0,0,1-3,.953,4.168,4.168,0,0,1-1.672-.379,3.575,3.575,0,0,1-1.312-1L-5.152.617a2.349,2.349,0,0,0,1.844.961A2.166,2.166,0,0,0-1.84,1.129,2.4,2.4,0,0,0-1.012-.227l.125-.508a2.749,2.749,0,0,1-2.07.891A2.428,2.428,0,0,1-4.918-.762a3.947,3.947,0,0,1-.8-2.348A7.89,7.89,0,0,1-5.676-4.234Zm2.164.927A2.02,2.02,0,0,0-3.2-2.13a1.08,1.08,0,0,0,.895.466A1.972,1.972,0,0,0-.715-2.431l.656-3.583A1.3,1.3,0,0,0-1.3-6.781,1.728,1.728,0,0,0-2.73-6.1a3.561,3.561,0,0,0-.734,1.87A8.214,8.214,0,0,0-3.512-3.307Zm14.3.112,1.563-5.258H14.77l-3.4,9.766-.187.445a2.577,2.577,0,0,1-2.5,1.656,3.552,3.552,0,0,1-1-.148V1.555l.344.008a1.857,1.857,0,0,0,.957-.2,1.283,1.283,0,0,0,.5-.648l.266-.7L6.785-8.453h2.43ZM24-2.82l2.578-8.555h2.609L25.223,0H22.777L18.832-11.375h2.6ZM34,.156A4.15,4.15,0,0,1,30.969-.984,4.054,4.054,0,0,1,29.8-4.023v-.219a5.106,5.106,0,0,1,.492-2.277,3.612,3.612,0,0,1,1.395-1.547,3.914,3.914,0,0,1,2.059-.543,3.508,3.508,0,0,1,2.73,1.094,4.444,4.444,0,0,1,1,3.1v.922H32.09a2.1,2.1,0,0,0,.66,1.328,2,2,0,0,0,1.395.5,2.437,2.437,0,0,0,2.039-.945l1.109,1.242A3.389,3.389,0,0,1,35.918-.246,4.511,4.511,0,0,1,34,.156Zm-.258-6.945a1.411,1.411,0,0,0-1.09.455,2.357,2.357,0,0,0-.535,1.3h3.141v-.181a1.681,1.681,0,0,0-.406-1.165A1.456,1.456,0,0,0,33.738-6.789Zm7.094-1.664.07.977a2.951,2.951,0,0,1,2.43-1.133,2.453,2.453,0,0,1,2,.789A3.682,3.682,0,0,1,46-5.461V0H43.746V-5.406a1.465,1.465,0,0,0-.312-1.043,1.4,1.4,0,0,0-1.039-.324,1.553,1.553,0,0,0-1.43.813V0H38.707V-8.453Zm9.586-2.078v2.078h1.445V-6.8H50.418v4.219a1.007,1.007,0,0,0,.18.672.9.9,0,0,0,.688.2,3.6,3.6,0,0,0,.664-.055V-.047a4.648,4.648,0,0,1-1.367.2,2.156,2.156,0,0,1-2.422-2.4V-6.8H46.926V-8.453H48.16v-2.078ZM58.02,0a2.507,2.507,0,0,1-.227-.758A2.732,2.732,0,0,1,55.66.156,3,3,0,0,1,53.6-.562a2.312,2.312,0,0,1-.816-1.812,2.389,2.389,0,0,1,1-2.062,4.915,4.915,0,0,1,2.879-.727H57.7v-.484a1.393,1.393,0,0,0-.3-.937,1.183,1.183,0,0,0-.949-.352,1.345,1.345,0,0,0-.895.273.929.929,0,0,0-.324.75H52.973a2.268,2.268,0,0,1,.453-1.359,3,3,0,0,1,1.281-.98,4.669,4.669,0,0,1,1.859-.355,3.689,3.689,0,0,1,2.48.785,2.747,2.747,0,0,1,.918,2.207v3.664A4.041,4.041,0,0,0,60.3-.133V0ZM56.152-1.57a1.945,1.945,0,0,0,.922-.223,1.462,1.462,0,0,0,.625-.6V-3.844h-.844q-1.7,0-1.8,1.172l-.008.133a.9.9,0,0,0,.3.7A1.153,1.153,0,0,0,56.152-1.57Zm10.125-.766a.727.727,0,0,0-.41-.652,4.659,4.659,0,0,0-1.316-.426q-3.016-.633-3.016-2.562a2.323,2.323,0,0,1,.934-1.879,3.766,3.766,0,0,1,2.441-.754,4.053,4.053,0,0,1,2.574.758,2.388,2.388,0,0,1,.965,1.969H66.191a1.092,1.092,0,0,0-.312-.8A1.322,1.322,0,0,0,64.9-7a1.351,1.351,0,0,0-.883.258.814.814,0,0,0-.312.656.7.7,0,0,0,.355.605,3.657,3.657,0,0,0,1.2.4,9.8,9.8,0,0,1,1.422.379A2.336,2.336,0,0,1,68.473-2.43,2.2,2.2,0,0,1,67.48-.559a4.28,4.28,0,0,1-2.562.715,4.47,4.47,0,0,1-1.887-.379,3.166,3.166,0,0,1-1.293-1.039,2.414,2.414,0,0,1-.469-1.426H63.41a1.179,1.179,0,0,0,.445.922,1.766,1.766,0,0,0,1.109.32,1.635,1.635,0,0,0,.98-.246A.766.766,0,0,0,66.277-2.336Z" transform="translate(938.052 4755.641)"/>
    <g id="Trazado_196440" data-name="Trazado 196440" transform="translate(495 4469.122)" fill="#fdd7ae">
      <path d="M 139.009765625 37.90890884399414 L 18.66536331176758 37.90890884399414 C 16.0767822265625 37.90890884399414 13.56536293029785 37.40180969238281 11.20086288452148 36.40171051025391 C 8.917282104492188 35.43584823608398 6.866542339324951 34.05323028564453 5.105562686920166 32.29225158691406 C 3.344602584838867 30.53129005432129 1.961982607841492 28.48052978515625 0.9961025714874268 26.19694900512695 C -0.003977438900619745 23.83244895935059 -0.5110774636268616 21.32102966308594 -0.5110774636268616 18.73245048522949 L -0.5110774636268616 18.66536903381348 C -0.5110774636268616 16.07678985595703 -0.003977438900619745 13.56536960601807 0.9961025714874268 11.2008695602417 C 1.961982607841492 8.917289733886719 3.344602584838867 6.866549968719482 5.105562686920166 5.105569839477539 C 6.866542339324951 3.34460973739624 8.917282104492188 1.961989760398865 11.20086288452148 0.9961097836494446 C 13.56536293029785 -0.003970240708440542 16.0767822265625 -0.5110702514648438 18.66536331176758 -0.5110702514648438 L 139.009765625 -0.5110702514648438 C 141.5983428955078 -0.5110702514648438 144.1097564697266 -0.003970240708440542 146.4742584228516 0.9961097836494446 C 148.7578430175781 1.961989760398865 150.8085784912109 3.34460973739624 152.5695648193359 5.105569839477539 C 154.3305206298828 6.866549968719482 155.7131500244141 8.917289733886719 156.6790161132812 11.2008695602417 C 157.6791076660156 13.56536960601807 158.1862030029297 16.07678985595703 158.1862030029297 18.66536903381348 L 158.1862030029297 18.73245048522949 C 158.1862030029297 21.32102966308594 157.6791076660156 23.83244895935059 156.6790161132812 26.19694900512695 C 155.7131500244141 28.48052978515625 154.3305206298828 30.53129005432129 152.5695648193359 32.29225158691406 C 150.8085784912109 34.05323028564453 148.7578430175781 35.43584823608398 146.4742584228516 36.40171051025391 C 144.1097564697266 37.40180969238281 141.5983428955078 37.90890884399414 139.009765625 37.90890884399414 Z" stroke="none"/>
      <path d="M 18.66535949707031 -1.1444091796875e-05 C 8.356765747070312 -1.1444091796875e-05 0 8.356769561767578 0 18.66536903381348 L 0 18.73245048522949 C 0 29.04104995727539 8.356765747070312 37.39780807495117 18.66535949707031 37.39780807495117 L 139.009765625 37.39780807495117 C 149.318359375 37.39780807495117 157.6751251220703 29.04104995727539 157.6751251220703 18.73245048522949 L 157.6751251220703 18.66536903381348 C 157.6751251220703 8.356769561767578 149.318359375 -1.1444091796875e-05 139.009765625 -1.1444091796875e-05 L 18.66535949707031 -1.1444091796875e-05 M 18.66535949707031 -1.022171020507812 L 139.009765625 -1.022171020507812 C 141.6670989990234 -1.022171020507812 144.2455291748047 -0.5014915466308594 146.67333984375 0.525390625 C 149.0178375244141 1.51702880859375 151.1231994628906 2.936450958251953 152.9309387207031 4.744190216064453 C 154.7386779785156 6.551929473876953 156.1580810546875 8.657289505004883 157.1497192382812 11.00178909301758 C 158.1766052246094 13.42960929870605 158.6972808837891 16.00802993774414 158.6972808837891 18.66536903381348 L 158.6972808837891 18.73245048522949 C 158.6972808837891 21.38978958129883 158.1766052246094 23.96821022033691 157.1497192382812 26.39603042602539 C 156.1580810546875 28.74053001403809 154.7386779785156 30.84589004516602 152.9309387207031 32.65362930297852 C 151.1231994628906 34.46136856079102 149.0178375244141 35.88076782226562 146.67333984375 36.87240982055664 C 144.2455291748047 37.89928817749023 141.6670989990234 38.41997146606445 139.009765625 38.41997146606445 L 18.66535949707031 38.41997146606445 C 16.00802612304688 38.41997146606445 13.42959594726562 37.89928817749023 11.00178527832031 36.87240982055664 C 8.65728759765625 35.88076782226562 6.551925659179688 34.46136856079102 4.744186401367188 32.65362930297852 C 2.936447143554688 30.84589004516602 1.517044067382812 28.74053001403809 0.5254058837890625 26.39603042602539 C -0.5014801025390625 23.96821022033691 -1.02215576171875 21.38978958129883 -1.02215576171875 18.73245048522949 L -1.02215576171875 18.66536903381348 C -1.02215576171875 16.00802993774414 -0.5014801025390625 13.42960929870605 0.5254058837890625 11.00178909301758 C 1.517044067382812 8.657289505004883 2.936447143554688 6.551929473876953 4.744186401367188 4.744190216064453 C 6.551925659179688 2.936450958251953 8.65728759765625 1.51702880859375 11.00178527832031 0.525390625 C 13.42959594726562 -0.5014915466308594 16.00802612304688 -1.022171020507812 18.66535949707031 -1.022171020507812 Z" stroke="none" fill="#faa141"/>
    </g>
    <path id="Trazado_196441" data-name="Trazado 196441" d="M-24.367-4.648h-4.5V0h-2.344V-11.375H-23.8v1.9h-5.062v2.938h4.5ZM-20.211,0h-2.266V-8.453h2.266Zm-2.4-10.641a1.112,1.112,0,0,1,.34-.836,1.277,1.277,0,0,1,.926-.328,1.28,1.28,0,0,1,.922.328,1.105,1.105,0,0,1,.344.836,1.108,1.108,0,0,1-.348.844,1.283,1.283,0,0,1-.918.328,1.283,1.283,0,0,1-.918-.328A1.108,1.108,0,0,1-22.609-10.641Zm6.336,2.188.07.977a2.951,2.951,0,0,1,2.43-1.133,2.453,2.453,0,0,1,2,.789A3.682,3.682,0,0,1-11.1-5.461V0h-2.258V-5.406a1.465,1.465,0,0,0-.312-1.043,1.4,1.4,0,0,0-1.039-.324,1.553,1.553,0,0,0-1.43.813V0H-18.4V-8.453ZM-4.492,0a2.507,2.507,0,0,1-.227-.758A2.732,2.732,0,0,1-6.852.156,3,3,0,0,1-8.91-.562a2.312,2.312,0,0,1-.816-1.812,2.389,2.389,0,0,1,1-2.062,4.915,4.915,0,0,1,2.879-.727h1.039v-.484a1.393,1.393,0,0,0-.3-.937,1.183,1.183,0,0,0-.949-.352,1.345,1.345,0,0,0-.895.273.929.929,0,0,0-.324.75H-9.539a2.268,2.268,0,0,1,.453-1.359A3,3,0,0,1-7.8-8.254a4.669,4.669,0,0,1,1.859-.355,3.689,3.689,0,0,1,2.48.785,2.747,2.747,0,0,1,.918,2.207v3.664a4.041,4.041,0,0,0,.336,1.82V0ZM-6.359-1.57a1.945,1.945,0,0,0,.922-.223,1.462,1.462,0,0,0,.625-.6V-3.844h-.844q-1.7,0-1.8,1.172l-.008.133a.9.9,0,0,0,.3.7A1.153,1.153,0,0,0-6.359-1.57ZM1.266-8.453l.07.977a2.951,2.951,0,0,1,2.43-1.133,2.453,2.453,0,0,1,2,.789,3.682,3.682,0,0,1,.672,2.359V0H4.18V-5.406a1.465,1.465,0,0,0-.312-1.043,1.4,1.4,0,0,0-1.039-.324,1.553,1.553,0,0,0-1.43.813V0H-.859V-8.453ZM10.742-1.82h4.133V0H7.859V-1.375l3.977-5.258H7.977v-1.82H14.75v1.33ZM21.188,0a2.507,2.507,0,0,1-.227-.758,2.732,2.732,0,0,1-2.133.914A3,3,0,0,1,16.77-.562a2.312,2.312,0,0,1-.816-1.812,2.389,2.389,0,0,1,1-2.062,4.915,4.915,0,0,1,2.879-.727h1.039v-.484a1.393,1.393,0,0,0-.3-.937,1.183,1.183,0,0,0-.949-.352,1.345,1.345,0,0,0-.895.273.929.929,0,0,0-.324.75H16.141a2.268,2.268,0,0,1,.453-1.359,3,3,0,0,1,1.281-.98,4.669,4.669,0,0,1,1.859-.355,3.689,3.689,0,0,1,2.48.785,2.747,2.747,0,0,1,.918,2.207v3.664a4.041,4.041,0,0,0,.336,1.82V0ZM19.32-1.57a1.945,1.945,0,0,0,.922-.223,1.462,1.462,0,0,0,.625-.6V-3.844h-.844q-1.7,0-1.8,1.172l-.008.133a.9.9,0,0,0,.3.7A1.153,1.153,0,0,0,19.32-1.57Zm10.125-.766a.727.727,0,0,0-.41-.652,4.659,4.659,0,0,0-1.316-.426Q24.7-4.047,24.7-5.977a2.323,2.323,0,0,1,.934-1.879,3.766,3.766,0,0,1,2.441-.754,4.053,4.053,0,0,1,2.574.758,2.388,2.388,0,0,1,.965,1.969H29.359a1.092,1.092,0,0,0-.312-.8A1.322,1.322,0,0,0,28.07-7a1.351,1.351,0,0,0-.883.258.814.814,0,0,0-.312.656.7.7,0,0,0,.355.605,3.657,3.657,0,0,0,1.2.4,9.8,9.8,0,0,1,1.422.379A2.336,2.336,0,0,1,31.641-2.43a2.2,2.2,0,0,1-.992,1.871,4.28,4.28,0,0,1-2.562.715A4.47,4.47,0,0,1,26.2-.223a3.166,3.166,0,0,1-1.293-1.039,2.414,2.414,0,0,1-.469-1.426h2.141a1.179,1.179,0,0,0,.445.922,1.766,1.766,0,0,0,1.109.32,1.635,1.635,0,0,0,.98-.246A.766.766,0,0,0,29.445-2.336Z" transform="translate(571.126 4493.321)"/>
    <g id="Trazado_196443" data-name="Trazado 196443" transform="translate(577 4729.989)" fill="#fdd7ae">
      <path d="M 139.009765625 37.90890884399414 L 18.66536331176758 37.90890884399414 C 16.0767822265625 37.90890884399414 13.56536293029785 37.40180969238281 11.20086288452148 36.40171051025391 C 8.917282104492188 35.43584823608398 6.866542339324951 34.05323028564453 5.105562686920166 32.29225158691406 C 3.344602584838867 30.53129005432129 1.961982607841492 28.48052978515625 0.9961025714874268 26.19694900512695 C -0.003977438900619745 23.83244895935059 -0.5110774636268616 21.32102966308594 -0.5110774636268616 18.73245048522949 L -0.5110774636268616 18.66536903381348 C -0.5110774636268616 16.07678985595703 -0.003977438900619745 13.56536960601807 0.9961025714874268 11.2008695602417 C 1.961982607841492 8.917289733886719 3.344602584838867 6.866549968719482 5.105562686920166 5.105569839477539 C 6.866542339324951 3.34460973739624 8.917282104492188 1.961989760398865 11.20086288452148 0.9961097836494446 C 13.56536293029785 -0.003970240708440542 16.0767822265625 -0.5110702514648438 18.66536331176758 -0.5110702514648438 L 139.009765625 -0.5110702514648438 C 141.5983428955078 -0.5110702514648438 144.1097564697266 -0.003970240708440542 146.4742584228516 0.9961097836494446 C 148.7578430175781 1.961989760398865 150.8085784912109 3.34460973739624 152.5695648193359 5.105569839477539 C 154.3305206298828 6.866549968719482 155.7131500244141 8.917289733886719 156.6790161132812 11.2008695602417 C 157.6791076660156 13.56536960601807 158.1862030029297 16.07678985595703 158.1862030029297 18.66536903381348 L 158.1862030029297 18.73245048522949 C 158.1862030029297 21.32102966308594 157.6791076660156 23.83244895935059 156.6790161132812 26.19694900512695 C 155.7131500244141 28.48052978515625 154.3305206298828 30.53129005432129 152.5695648193359 32.29225158691406 C 150.8085784912109 34.05323028564453 148.7578430175781 35.43584823608398 146.4742584228516 36.40171051025391 C 144.1097564697266 37.40180969238281 141.5983428955078 37.90890884399414 139.009765625 37.90890884399414 Z" stroke="none"/>
      <path d="M 18.66535949707031 -1.1444091796875e-05 C 8.356765747070312 -1.1444091796875e-05 0 8.356769561767578 0 18.66536903381348 L 0 18.73245048522949 C 0 29.04104995727539 8.356765747070312 37.39780807495117 18.66535949707031 37.39780807495117 L 139.009765625 37.39780807495117 C 149.318359375 37.39780807495117 157.6751251220703 29.04104995727539 157.6751251220703 18.73245048522949 L 157.6751251220703 18.66536903381348 C 157.6751251220703 8.356769561767578 149.318359375 -1.1444091796875e-05 139.009765625 -1.1444091796875e-05 L 18.66535949707031 -1.1444091796875e-05 M 18.66535949707031 -1.022171020507812 L 139.009765625 -1.022171020507812 C 141.6670989990234 -1.022171020507812 144.2455291748047 -0.5014915466308594 146.67333984375 0.525390625 C 149.0178375244141 1.51702880859375 151.1231994628906 2.936450958251953 152.9309387207031 4.744190216064453 C 154.7386779785156 6.551929473876953 156.1580810546875 8.657289505004883 157.1497192382812 11.00178909301758 C 158.1766052246094 13.42960929870605 158.6972808837891 16.00802993774414 158.6972808837891 18.66536903381348 L 158.6972808837891 18.73245048522949 C 158.6972808837891 21.38978958129883 158.1766052246094 23.96821022033691 157.1497192382812 26.39603042602539 C 156.1580810546875 28.74053001403809 154.7386779785156 30.84589004516602 152.9309387207031 32.65362930297852 C 151.1231994628906 34.46136856079102 149.0178375244141 35.88076782226562 146.67333984375 36.87240982055664 C 144.2455291748047 37.89928817749023 141.6670989990234 38.41997146606445 139.009765625 38.41997146606445 L 18.66535949707031 38.41997146606445 C 16.00802612304688 38.41997146606445 13.42959594726562 37.89928817749023 11.00178527832031 36.87240982055664 C 8.65728759765625 35.88076782226562 6.551925659179688 34.46136856079102 4.744186401367188 32.65362930297852 C 2.936447143554688 30.84589004516602 1.517044067382812 28.74053001403809 0.5254058837890625 26.39603042602539 C -0.5014801025390625 23.96821022033691 -1.02215576171875 21.38978958129883 -1.02215576171875 18.73245048522949 L -1.02215576171875 18.66536903381348 C -1.02215576171875 16.00802993774414 -0.5014801025390625 13.42960929870605 0.5254058837890625 11.00178909301758 C 1.517044067382812 8.657289505004883 2.936447143554688 6.551929473876953 4.744186401367188 4.744190216064453 C 6.551925659179688 2.936450958251953 8.65728759765625 1.51702880859375 11.00178527832031 0.525390625 C 13.42959594726562 -0.5014915466308594 16.00802612304688 -1.022171020507812 18.66535949707031 -1.022171020507812 Z" stroke="none" fill="#faa141"/>
    </g>
    <path id="Trazado_196445" data-name="Trazado 196445" d="M-33.016,0V-11.375h3.5a5.315,5.315,0,0,1,2.684.676,4.712,4.712,0,0,1,1.848,1.922,5.928,5.928,0,0,1,.664,2.832v.523a5.945,5.945,0,0,1-.652,2.82,4.672,4.672,0,0,1-1.84,1.914A5.355,5.355,0,0,1-29.492,0Zm2.344-9.477v7.594h1.133a2.545,2.545,0,0,0,2.1-.9,4.06,4.06,0,0,0,.742-2.57v-.6a4.124,4.124,0,0,0-.719-2.629,2.537,2.537,0,0,0-2.1-.895ZM-20.383,0h-2.266V-8.453h2.266Zm-2.4-10.641a1.112,1.112,0,0,1,.34-.836,1.277,1.277,0,0,1,.926-.328,1.28,1.28,0,0,1,.922.328,1.105,1.105,0,0,1,.344.836A1.108,1.108,0,0,1-20.6-9.8a1.283,1.283,0,0,1-.918.328,1.283,1.283,0,0,1-.918-.328A1.108,1.108,0,0,1-22.781-10.641Zm9.008,4.3a6.134,6.134,0,0,0-.812-.062,1.654,1.654,0,0,0-1.68.867V0h-2.258V-8.453h2.133l.063,1.008a2.092,2.092,0,0,1,1.883-1.164,2.366,2.366,0,0,1,.7.1ZM-8.8.156A4.15,4.15,0,0,1-11.824-.984a4.054,4.054,0,0,1-1.168-3.039v-.219A5.106,5.106,0,0,1-12.5-6.52a3.612,3.612,0,0,1,1.395-1.547,3.914,3.914,0,0,1,2.059-.543,3.508,3.508,0,0,1,2.73,1.094,4.444,4.444,0,0,1,1,3.1v.922H-10.7a2.1,2.1,0,0,0,.66,1.328,2,2,0,0,0,1.395.5,2.437,2.437,0,0,0,2.039-.945L-5.5-1.367A3.389,3.389,0,0,1-6.875-.246,4.511,4.511,0,0,1-8.8.156Zm-.258-6.945a1.411,1.411,0,0,0-1.09.455,2.357,2.357,0,0,0-.535,1.3h3.141v-.181a1.681,1.681,0,0,0-.406-1.165A1.456,1.456,0,0,0-9.055-6.789ZM-.523-1.664A1.481,1.481,0,0,0,.492-2.008,1.2,1.2,0,0,0,.9-2.922H3.016a2.9,2.9,0,0,1-.469,1.574A3.093,3.093,0,0,1,1.285-.238,3.949,3.949,0,0,1-.484.156,3.67,3.67,0,0,1-3.344-1,4.56,4.56,0,0,1-4.391-4.18v-.148A4.508,4.508,0,0,1-3.352-7.445,3.627,3.627,0,0,1-.5-8.609a3.555,3.555,0,0,1,2.543.9,3.2,3.2,0,0,1,.973,2.4H.9A1.551,1.551,0,0,0,.492-6.377,1.354,1.354,0,0,0-.539-6.789a1.36,1.36,0,0,0-1.191.575,3.333,3.333,0,0,0-.4,1.866v.235a3.375,3.375,0,0,0,.4,1.878A1.377,1.377,0,0,0-.523-1.664Zm8.344,0a1.481,1.481,0,0,0,1.016-.344,1.2,1.2,0,0,0,.406-.914h2.117a2.9,2.9,0,0,1-.469,1.574A3.093,3.093,0,0,1,9.629-.238a3.949,3.949,0,0,1-1.77.395A3.67,3.67,0,0,1,5-1,4.56,4.56,0,0,1,3.953-4.18v-.148A4.508,4.508,0,0,1,4.992-7.445,3.627,3.627,0,0,1,7.844-8.609a3.555,3.555,0,0,1,2.543.9,3.2,3.2,0,0,1,.973,2.4H9.242a1.551,1.551,0,0,0-.406-1.072A1.354,1.354,0,0,0,7.8-6.789a1.36,1.36,0,0,0-1.191.575,3.333,3.333,0,0,0-.4,1.866v.235a3.375,3.375,0,0,0,.4,1.878A1.377,1.377,0,0,0,7.82-1.664ZM15.031,0H12.766V-8.453h2.266Zm-2.4-10.641a1.112,1.112,0,0,1,.34-.836A1.277,1.277,0,0,1,13.9-11.8a1.28,1.28,0,0,1,.922.328,1.105,1.105,0,0,1,.344.836,1.108,1.108,0,0,1-.348.844,1.283,1.283,0,0,1-.918.328A1.283,1.283,0,0,1,12.98-9.8,1.108,1.108,0,0,1,12.633-10.641ZM16.539-4.3a5.013,5.013,0,0,1,.484-2.242A3.546,3.546,0,0,1,18.418-8.07a4.069,4.069,0,0,1,2.113-.539,3.849,3.849,0,0,1,2.793,1.047,4.2,4.2,0,0,1,1.207,2.844l.016.578A4.418,4.418,0,0,1,23.461-1.02,3.775,3.775,0,0,1,20.547.156a3.793,3.793,0,0,1-2.918-1.172A4.5,4.5,0,0,1,16.539-4.2Zm2.258.16A3.16,3.16,0,0,0,19.25-2.3a1.5,1.5,0,0,0,1.3.638,1.5,1.5,0,0,0,1.281-.63,3.457,3.457,0,0,0,.461-2.015,3.128,3.128,0,0,0-.461-1.831,1.5,1.5,0,0,0-1.3-.649,1.474,1.474,0,0,0-1.281.646A3.516,3.516,0,0,0,18.8-4.144ZM20.977-12h2.461L21.273-9.578H19.438Zm7.039,3.547.07.977a2.951,2.951,0,0,1,2.43-1.133,2.453,2.453,0,0,1,2,.789,3.682,3.682,0,0,1,.672,2.359V0H30.93V-5.406a1.465,1.465,0,0,0-.312-1.043,1.4,1.4,0,0,0-1.039-.324,1.553,1.553,0,0,0-1.43.813V0H25.891V-8.453Z" transform="translate(657.725 4754.94)"/>
  </g>
</svg>
